<?xml version="1.0" encoding="UTF-8"?>
<svg id="Layer_3" data-name="Layer 3" xmlns="http://www.w3.org/2000/svg" viewBox="0 0 2000 2000">
  <defs>
    <style>
      .cls-1 {
        stroke-width: 22.1px;
      }

      .cls-1, .cls-2, .cls-3, .cls-4, .cls-5, .cls-6, .cls-7, .cls-8, .cls-9, .cls-10, .cls-11, .cls-12, .cls-13, .cls-14, .cls-15, .cls-16, .cls-17, .cls-18, .cls-19, .cls-20, .cls-21, .cls-22, .cls-23, .cls-24, .cls-25, .cls-26, .cls-27, .cls-28, .cls-29, .cls-30, .cls-31, .cls-32, .cls-33, .cls-34, .cls-35, .cls-36, .cls-37, .cls-38, .cls-39, .cls-40, .cls-41, .cls-42, .cls-43, .cls-44, .cls-45, .cls-46, .cls-47, .cls-48, .cls-49, .cls-50, .cls-51, .cls-52, .cls-53, .cls-54, .cls-55, .cls-56, .cls-57, .cls-58, .cls-59, .cls-60, .cls-61 {
        fill: none;
        stroke: #190c0c;
        stroke-miterlimit: 10;
      }

      .cls-2 {
        stroke-width: .61px;
      }

      .cls-3 {
        stroke-width: .5px;
      }

      .cls-4 {
        stroke-width: .76px;
      }

      .cls-5 {
        stroke-width: 19.89px;
      }

      .cls-6 {
        stroke-width: .1px;
      }

      .cls-7 {
        stroke-width: .13px;
      }

      .cls-8 {
        stroke-width: 6.24px;
      }

      .cls-9 {
        stroke-width: .45px;
      }

      .cls-10 {
        stroke-width: .07px;
      }

      .cls-11 {
        stroke-width: .11px;
      }

      .cls-12 {
        stroke-width: 2.68px;
      }

      .cls-13 {
        stroke-width: 8.56px;
      }

      .cls-14 {
        stroke-width: 24.55px;
      }

      .cls-15 {
        stroke-width: .84px;
      }

      .cls-16 {
        stroke-width: .05px;
      }

      .cls-17 {
        stroke-width: 9.51px;
      }

      .cls-18 {
        stroke-width: 1.58px;
      }

      .cls-19 {
        stroke-width: 3.31px;
      }

      .cls-20 {
        stroke-width: 1.96px;
      }

      .cls-21 {
        stroke-width: 17.9px;
      }

      .cls-22 {
        stroke-width: 14.49px;
      }

      .cls-23 {
        stroke-width: 4.09px;
      }

      .cls-24 {
        stroke-width: .14px;
      }

      .cls-25 {
        stroke-width: 3.68px;
      }

      .cls-26 {
        stroke-width: 5.05px;
      }

      .cls-27 {
        stroke-width: 5.61px;
      }

      .cls-28 {
        stroke-width: .55px;
      }

      .cls-29 {
        stroke-width: .19px;
      }

      .cls-30 {
        stroke-width: .05px;
      }

      .cls-31 {
        stroke-width: 2.41px;
      }

      .cls-32 {
        stroke-width: 10.56px;
      }

      .cls-33 {
        stroke-width: 4.55px;
      }

      .cls-34 {
        stroke-width: .24px;
      }

      .cls-35 {
        stroke-width: 27.28px;
      }

      .cls-36 {
        stroke-width: .26px;
      }

      .cls-37 {
        stroke-width: 1.15px;
      }

      .cls-38 {
        stroke-width: .36px;
      }

      .cls-39 {
        stroke-width: 1.04px;
      }

      .cls-40 {
        stroke-width: 2.98px;
      }

      .cls-41 {
        stroke-width: 1.43px;
      }

      .cls-42 {
        stroke-width: 6.93px;
      }

      .cls-43 {
        stroke-width: 1.76px;
      }

      .cls-44 {
        stroke-width: .06px;
      }

      .cls-45 {
        stroke-width: 13.04px;
      }

      .cls-46 {
        stroke-width: .08px;
      }

      .cls-47 {
        stroke-width: 16.11px;
      }

      .cls-48 {
        stroke-width: .09px;
      }

      .cls-49 {
        stroke-width: 2.17px;
      }

      .cls-50 {
        stroke-width: .68px;
      }

      .cls-51 {
        stroke-width: .16px;
      }

      .cls-52 {
        stroke-width: .94px;
      }

      .cls-53 {
        stroke-width: 7.7px;
      }

      .cls-54 {
        stroke-width: .21px;
      }

      .cls-55 {
        stroke-width: 11.74px;
      }

      .cls-56 {
        stroke-width: 1.28px;
      }

      .cls-57 {
        stroke-width: .07px;
      }

      .cls-58 {
        stroke-width: .33px;
      }

      .cls-59 {
        stroke-width: .4px;
      }

      .cls-60 {
        stroke-width: .17px;
      }

      .cls-61 {
        stroke-width: .29px;
      }
    </style>
  </defs>
  <path class="cls-16" d="M981.57,841.7l-2.36,1.08c-.19.09.05.2.43.2h4.72c.38,0,.62-.11.43-.2l-2.36-1.08c-.19-.09-.67-.09-.86,0Z"/>
  <path class="cls-30" d="M981.53,841.64l-2.59,1.21c-.21.1.05.22.47.22h5.18c.42,0,.68-.12.47-.22l-2.59-1.21c-.21-.1-.73-.1-.94,0Z"/>
  <path class="cls-44" d="M981.48,841.58l-2.85,1.36c-.23.11.06.25.52.25h5.7c.46,0,.75-.14.52-.25l-2.85-1.36c-.23-.11-.81-.11-1.04,0Z"/>
  <path class="cls-57" d="M981.43,841.51l-3.13,1.53c-.25.12.06.28.57.28h6.26c.51,0,.82-.15.57-.28l-3.13-1.53c-.25-.12-.89-.12-1.14,0Z"/>
  <path class="cls-10" d="M981.37,841.43l-3.44,1.72c-.28.14.07.31.63.31h6.88c.56,0,.9-.17.63-.31l-3.44-1.72c-.28-.14-.97-.14-1.25,0Z"/>
  <path class="cls-46" d="M981.31,841.34l-3.78,1.93c-.31.16.08.35.69.35h7.56c.61,0,.99-.2.69-.35l-3.78-1.93c-.31-.16-1.07-.16-1.38,0Z"/>
  <path class="cls-48" d="M981.24,841.23l-4.15,2.17c-.34.18.08.39.76.39h8.3c.67,0,1.09-.22.76-.39l-4.15-2.17c-.34-.18-1.18-.18-1.51,0Z"/>
  <path class="cls-6" d="M981.17,841.12l-4.56,2.43c-.37.2.09.44.83.44h9.13c.74,0,1.2-.25.83-.44l-4.56-2.43c-.37-.2-1.29-.2-1.66,0Z"/>
  <path class="cls-11" d="M981.08,840.99l-5.01,2.73c-.41.22.1.5.91.5h10.03c.81,0,1.32-.28.91-.5l-5.01-2.73c-.41-.22-1.42-.22-1.83,0Z"/>
  <path class="cls-7" d="M980.99,840.85l-5.51,3.07c-.45.25.11.56,1,.56h11.02c.89,0,1.45-.31,1-.56l-5.51-3.07c-.45-.25-1.56-.25-2.01,0Z"/>
  <path class="cls-24" d="M980.9,840.69l-6.06,3.45c-.49.28.12.63,1.1.63h12.11c.98,0,1.59-.35,1.1-.63l-6.06-3.45c-.49-.28-1.72-.28-2.21,0Z"/>
  <path class="cls-51" d="M980.79,840.5l-6.65,3.88c-.54.31.13.71,1.21.71h13.31c1.08,0,1.75-.39,1.21-.71l-6.65-3.88c-.54-.31-1.89-.31-2.42,0Z"/>
  <path class="cls-60" d="M980.67,840.3l-7.31,4.36c-.59.35.15.79,1.33.79h14.62c1.18,0,1.92-.44,1.33-.79l-7.31-4.36c-.59-.35-2.07-.35-2.66,0Z"/>
  <path class="cls-29" d="M980.53,840.07l-8.04,4.9c-.65.4.16.89,1.46.89h16.07c1.3,0,2.11-.5,1.46-.89l-8.04-4.9c-.65-.4-2.28-.4-2.93,0Z"/>
  <path class="cls-54" d="M980.39,839.81l-8.83,5.5c-.71.45.18,1,1.61,1h17.66c1.43,0,2.32-.56,1.61-1l-8.83-5.5c-.71-.45-2.5-.45-3.22,0Z"/>
  <path class="cls-34" d="M980.23,839.52l-9.7,6.18c-.79.5.2,1.13,1.77,1.13h19.41c1.57,0,2.55-.63,1.77-1.13l-9.7-6.18c-.79-.5-2.75-.5-3.54,0Z"/>
  <path class="cls-36" d="M980.06,839.2l-10.66,6.95c-.86.56.22,1.27,1.94,1.27h21.33c1.73,0,2.81-.7,1.94-1.27l-10.66-6.95c-.86-.56-3.02-.56-3.88,0Z"/>
  <path class="cls-61" d="M979.86,838.83l-11.72,7.81c-.95.63.24,1.42,2.13,1.42h23.44c1.9,0,3.08-.79,2.13-1.42l-11.72-7.81c-.95-.63-3.32-.63-4.27,0Z"/>
  <path class="cls-58" d="M979.65,838.42l-12.88,8.77c-1.04.71.26,1.6,2.35,1.6h25.75c2.09,0,3.39-.89,2.35-1.6l-12.88-8.77c-1.04-.71-3.65-.71-4.69,0Z"/>
  <path class="cls-38" d="M979.42,837.96l-14.15,9.85c-1.15.8.29,1.8,2.58,1.8h28.3c2.29,0,3.72-1,2.58-1.8l-14.15-9.85c-1.15-.8-4.01-.8-5.16,0Z"/>
  <path class="cls-59" d="M979.17,837.44l-15.55,11.07c-1.26.9.31,2.02,2.83,2.02h31.1c2.52,0,4.09-1.12,2.83-2.02l-15.55-11.07c-1.26-.9-4.41-.9-5.67,0Z"/>
  <path class="cls-9" d="M978.89,836.86l-17.09,12.44c-1.38,1.01.35,2.27,3.11,2.27h34.18c2.77,0,4.5-1.26,3.11-2.27l-17.09-12.44c-1.38-1.01-4.84-1.01-6.23,0Z"/>
  <path class="cls-3" d="M978.58,836.2l-18.78,13.98c-1.52,1.13.38,2.55,3.42,2.55h37.56c3.04,0,4.94-1.41,3.42-2.55l-18.78-13.98c-1.52-1.13-5.32-1.13-6.84,0Z"/>
  <path class="cls-28" d="M978.24,835.47l-20.63,15.71c-1.67,1.27.42,2.86,3.76,2.86h41.27c3.34,0,5.43-1.59,3.76-2.86l-20.63-15.71c-1.67-1.27-5.85-1.27-7.52,0Z"/>
  <path class="cls-2" d="M977.87,834.64l-22.68,17.65c-1.84,1.43.46,3.21,4.13,3.21h45.35c3.67,0,5.97-1.79,4.13-3.21l-22.68-17.65c-1.84-1.43-6.43-1.43-8.26,0Z"/>
  <path class="cls-50" d="M977.46,833.71l-24.92,19.83c-2.02,1.61.5,3.61,4.54,3.61h49.84c4.03,0,6.56-2.01,4.54-3.61l-24.92-19.83c-2.02-1.61-7.06-1.61-9.08,0Z"/>
  <path class="cls-4" d="M977.01,832.67l-27.38,22.28c-2.22,1.8.55,4.06,4.99,4.06h54.77c4.43,0,7.2-2.25,4.99-4.06l-27.38-22.28c-2.22-1.8-7.76-1.8-9.98,0Z"/>
  <path class="cls-15" d="M976.52,831.49l-30.09,25.03c-2.44,2.03.61,4.56,5.48,4.56h60.18c4.87,0,7.92-2.53,5.48-4.56l-30.09-25.03c-2.44-2.03-8.53-2.03-10.96,0Z"/>
  <path class="cls-52" d="M975.97,830.18l-33.07,28.13c-2.68,2.28.67,5.12,6.02,5.12h66.13c5.35,0,8.7-2.85,6.02-5.12l-33.07-28.13c-2.68-2.28-9.37-2.28-12.05,0Z"/>
  <path class="cls-39" d="M975.38,828.7l-36.34,31.6c-2.94,2.56.74,5.76,6.62,5.76h72.67c5.88,0,9.56-3.2,6.62-5.76l-36.34-31.6c-2.94-2.56-10.3-2.56-13.24,0Z"/>
  <path class="cls-37" d="M974.72,827.03l-39.93,35.51c-3.23,2.87.81,6.47,7.27,6.47h79.86c6.47,0,10.51-3.59,7.27-6.47l-39.93-35.51c-3.23-2.87-11.31-2.87-14.55,0Z"/>
  <path class="cls-56" d="M974.01,825.16l-43.88,39.9c-3.55,3.23.89,7.27,7.99,7.27h87.76c7.11,0,11.55-4.04,7.99-7.27l-43.88-39.9c-3.55-3.23-12.43-3.23-15.99,0Z"/>
  <path class="cls-41" d="M973.21,823.06l-48.22,44.83c-3.9,3.63.98,8.17,8.78,8.17h96.44c7.81,0,12.69-4.54,8.78-8.17l-48.22-44.83c-3.9-3.63-13.66-3.63-17.57,0Z"/>
  <path class="cls-18" d="M972.35,820.7l-52.99,50.37c-4.29,4.08,1.07,9.18,9.65,9.18h105.98c8.58,0,13.94-5.1,9.65-9.18l-52.99-50.37c-4.29-4.08-15.01-4.08-19.3,0Z"/>
  <path class="cls-43" d="M971.39,818.05l-58.23,56.59c-4.71,4.58,1.18,10.31,10.61,10.31h116.46c9.43,0,15.32-5.73,10.61-10.31l-58.23-56.59c-4.71-4.58-16.5-4.58-21.21,0Z"/>
  <path class="cls-20" d="M970.34,815.07l-63.99,63.59c-5.18,5.15,1.3,11.58,11.66,11.58h127.98c10.36,0,16.84-6.44,11.66-11.58l-63.99-63.59c-5.18-5.15-18.13-5.15-23.31,0Z"/>
  <path class="cls-49" d="M969.19,811.72l-70.32,71.45c-5.69,5.78,1.42,13.01,12.81,13.01h140.63c11.39,0,18.5-7.23,12.81-13.01l-70.32-71.45c-5.69-5.78-19.93-5.78-25.62,0Z"/>
  <path class="cls-31" d="M967.92,807.96l-77.27,80.28c-6.26,6.5,1.56,14.62,14.08,14.62h154.54c12.51,0,20.33-8.12,14.08-14.62l-77.27-80.28c-6.26-6.5-21.9-6.5-28.15,0Z"/>
  <path class="cls-12" d="M966.53,803.74l-84.91,90.2c-6.87,7.3,1.72,16.43,15.47,16.43h169.83c13.75,0,22.34-9.13,15.47-16.43l-84.91-90.2c-6.87-7.3-24.06-7.3-30.94,0Z"/>
  <path class="cls-40" d="M965,798.99l-93.31,101.35c-7.55,8.21,1.89,18.46,17,18.46h186.62c15.11,0,24.55-10.26,17-18.46l-93.31-101.35c-7.55-8.21-26.44-8.21-34,0Z"/>
  <path class="cls-19" d="M963.32,793.65l-102.54,113.88c-8.3,9.22,2.08,20.74,18.68,20.74h205.08c16.6,0,26.98-11.52,18.68-20.74l-102.54-113.88c-8.3-9.22-29.06-9.22-37.36,0Z"/>
  <path class="cls-25" d="M961.47,787.66l-112.68,127.95c-9.12,10.36,2.28,23.31,20.53,23.31h225.36c18.25,0,29.65-12.95,20.53-23.31l-112.68-127.95c-9.12-10.36-31.93-10.36-41.05,0Z"/>
  <path class="cls-23" d="M959.44,780.92l-123.83,143.76c-10.02,11.64,2.51,26.19,22.56,26.19h247.65c20.05,0,32.58-14.55,22.56-26.19l-123.83-143.76c-10.02-11.64-35.09-11.64-45.11,0Z"/>
  <path class="cls-33" d="M957.21,773.35l-136.07,161.53c-11.02,13.08,2.75,29.42,24.79,29.42h272.15c22.03,0,35.8-16.35,24.79-29.42l-136.07-161.53c-11.02-13.08-38.56-13.08-49.57,0Z"/>
  <path class="cls-26" d="M954.76,764.85l-149.53,181.5c-12.11,14.69,3.03,33.06,27.24,33.06h299.06c24.21,0,39.34-18.37,27.24-33.06l-149.53-181.5c-12.11-14.69-42.37-14.69-54.48,0Z"/>
  <path class="cls-27" d="M952.07,755.29l-164.32,203.93c-13.3,16.51,3.33,37.15,29.93,37.15h328.64c26.61,0,43.24-20.64,29.93-37.15l-164.32-203.93c-13.3-16.51-46.56-16.51-59.86,0Z"/>
  <path class="cls-8" d="M949.11,744.56l-180.57,229.13c-14.62,18.55,3.65,41.74,32.89,41.74h361.14c29.24,0,47.51-23.19,32.89-41.74l-180.57-229.13c-14.62-18.55-51.17-18.55-65.79,0Z"/>
  <path class="cls-42" d="M945.85,732.49l-198.43,257.45c-16.06,20.84,4.02,46.9,36.15,46.9h396.86c32.13,0,52.21-26.05,36.15-46.9l-198.43-257.45c-16.06-20.84-56.23-20.84-72.29,0Z"/>
  <path class="cls-53" d="M942.28,718.94l-218.06,289.27c-17.65,23.42,4.41,52.69,39.72,52.69h436.11c35.31,0,57.37-29.27,39.72-52.69l-218.06-289.27c-17.65-23.42-61.79-23.42-79.44,0Z"/>
  <path class="cls-13" d="M938.35,703.71l-239.62,325.03c-19.4,26.31,4.85,59.21,43.65,59.21h479.24c38.8,0,63.05-32.89,43.65-59.21l-239.62-325.03c-19.4-26.31-67.9-26.31-87.3,0Z"/>
  <path class="cls-17" d="M934.03,686.6l-263.32,365.2c-21.32,29.57,5.33,66.52,47.97,66.52h526.64c42.64,0,69.28-36.96,47.97-66.52l-263.32-365.2c-21.32-29.57-74.61-29.57-95.93,0Z"/>
  <path class="cls-32" d="M929.29,667.37l-289.36,410.34c-23.43,33.22,5.86,74.75,52.71,74.75h578.73c46.85,0,76.14-41.53,52.71-74.75l-289.36-410.34c-23.43-33.22-81.99-33.22-105.42,0Z"/>
  <path class="cls-55" d="M924.08,645.77l-317.98,461.05c-25.74,37.33,6.44,83.98,57.92,83.98h635.96c51.49,0,83.67-46.66,57.92-83.98l-317.98-461.05c-25.74-37.33-90.1-37.33-115.85,0Z"/>
  <path class="cls-45" d="M918.35,621.5l-349.43,518.04c-28.29,41.94,7.07,94.36,63.65,94.36h698.86c56.58,0,91.94-52.42,63.65-94.36l-349.43-518.04c-28.29-41.94-99.01-41.94-127.3,0Z"/>
  <path class="cls-22" d="M912.05,594.23l-383.99,582.06c-31.09,47.12,7.77,106.03,69.95,106.03h767.98c62.18,0,101.03-58.9,69.95-106.03l-383.99-582.06c-31.09-47.12-108.81-47.12-139.89,0Z"/>
  <path class="cls-47" d="M905.13,563.58l-421.97,654c-34.16,52.95,8.54,119.13,76.86,119.13h843.93c68.32,0,111.03-66.18,76.86-119.13l-421.97-654c-34.16-52.95-119.57-52.95-153.73,0Z"/>
  <path class="cls-21" d="M897.53,529.15l-463.7,734.84c-37.54,59.49,9.39,133.86,84.47,133.86h927.4c75.08,0,122.01-74.36,84.47-133.86l-463.7-734.84c-37.54-59.49-131.39-59.49-168.93,0Z"/>
  <path class="cls-5" d="M889.18,490.47l-509.56,825.66c-41.25,66.84,10.31,150.4,92.82,150.4h1019.12c82.51,0,134.07-83.56,92.82-150.4l-509.56-825.66c-41.25-66.84-144.39-66.84-185.64,0Z"/>
  <path class="cls-1" d="M880,447l-559.95,927.71c-45.33,75.11,11.33,168.99,102,168.99h1119.91c90.67,0,147.33-93.88,102-168.99l-559.95-927.71c-45.33-75.11-158.67-75.11-204,0Z"/>
  <path class="cls-14" d="M869.91,398.16L254.58,1440.53c-49.82,84.39,12.45,189.88,112.09,189.88h1230.67c99.63,0,161.91-105.49,112.09-189.88L1094.09,398.16c-49.82-84.39-174.36-84.39-224.18,0Z"/>
  <path class="cls-35" d="M858.82,343.29L182.63,1514.48c-54.74,94.82,13.69,213.34,123.17,213.34h1352.38c109.49,0,177.92-118.52,123.17-213.34L1105.17,343.29c-54.74-94.82-191.6-94.82-246.35,0Z"/>
</svg>