<?xml version="1.0" encoding="utf-8"?>
<!-- Generator: Adobe Illustrator 19.0.0, SVG Export Plug-In . SVG Version: 6.00 Build 0)  -->
<svg version="1.1" id="Layer_1" xmlns="http://www.w3.org/2000/svg" xmlns:xlink="http://www.w3.org/1999/xlink" x="0px" y="0px"
	 viewBox="1231.6 1494.3 1225.4 145.3" style="enable-background:new 1231.6 1494.3 1225.4 145.3;" xml:space="preserve">
<style type="text/css">
	.st0{display:none;}
	.st1{display:inline;}
	.st2{fill:none;}
	.st3{fill:none;stroke:url(#SVGID_1_);stroke-width:1.000000e-002;stroke-miterlimit:10;}
	.st4{fill:none;stroke:url(#SVGID_2_);stroke-width:1.000000e-002;stroke-miterlimit:10;}
	.st5{fill:none;stroke:url(#SVGID_3_);stroke-width:1.000000e-002;stroke-miterlimit:10;}
	.st6{fill:none;stroke:url(#SVGID_4_);stroke-width:1.000000e-002;stroke-miterlimit:10;}
	.st7{fill:none;stroke:url(#SVGID_5_);stroke-width:2.000000e-002;stroke-miterlimit:10;}
	.st8{fill:none;stroke:url(#SVGID_6_);stroke-width:2.000000e-002;stroke-miterlimit:10;}
	.st9{fill:none;stroke:url(#SVGID_7_);stroke-width:2.000000e-002;stroke-miterlimit:10;}
	.st10{fill:none;stroke:url(#SVGID_8_);stroke-width:2.000000e-002;stroke-miterlimit:10;}
	.st11{fill:none;stroke:url(#SVGID_9_);stroke-width:3.000000e-002;stroke-miterlimit:10;}
	.st12{fill:none;stroke:url(#SVGID_10_);stroke-width:3.000000e-002;stroke-miterlimit:10;}
	.st13{fill:none;stroke:url(#SVGID_11_);stroke-width:3.000000e-002;stroke-miterlimit:10;}
	.st14{fill:none;stroke:url(#SVGID_12_);stroke-width:3.000000e-002;stroke-miterlimit:10;}
	.st15{fill:none;stroke:url(#SVGID_13_);stroke-width:4.000000e-002;stroke-miterlimit:10;}
	.st16{fill:none;stroke:url(#SVGID_14_);stroke-width:4.000000e-002;stroke-miterlimit:10;}
	.st17{fill:none;stroke:url(#SVGID_15_);stroke-width:5.000000e-002;stroke-miterlimit:10;}
	.st18{fill:none;stroke:url(#SVGID_16_);stroke-width:5.000000e-002;stroke-miterlimit:10;}
	.st19{fill:none;stroke:url(#SVGID_17_);stroke-width:6.000000e-002;stroke-miterlimit:10;}
	.st20{fill:none;stroke:url(#SVGID_18_);stroke-width:6.000000e-002;stroke-miterlimit:10;}
	.st21{fill:none;stroke:url(#SVGID_19_);stroke-width:7.000000e-002;stroke-miterlimit:10;}
	.st22{fill:none;stroke:url(#SVGID_20_);stroke-width:8.000000e-002;stroke-miterlimit:10;}
	.st23{fill:none;stroke:url(#SVGID_21_);stroke-width:9.000000e-002;stroke-miterlimit:10;}
	.st24{fill:none;stroke:url(#SVGID_22_);stroke-width:0.1;stroke-miterlimit:10;}
	.st25{fill:none;stroke:url(#SVGID_23_);stroke-width:0.11;stroke-miterlimit:10;}
	.st26{fill:none;stroke:url(#SVGID_24_);stroke-width:0.12;stroke-miterlimit:10;}
	.st27{fill:none;stroke:url(#SVGID_25_);stroke-width:0.14;stroke-miterlimit:10;}
	.st28{fill:none;stroke:url(#SVGID_26_);stroke-width:0.15;stroke-miterlimit:10;}
	.st29{fill:none;stroke:url(#SVGID_27_);stroke-width:0.17;stroke-miterlimit:10;}
	.st30{fill:none;stroke:url(#SVGID_28_);stroke-width:0.19;stroke-miterlimit:10;}
	.st31{fill:none;stroke:url(#SVGID_29_);stroke-width:0.21;stroke-miterlimit:10;}
	.st32{fill:none;stroke:url(#SVGID_30_);stroke-width:0.23;stroke-miterlimit:10;}
	.st33{fill:none;stroke:url(#SVGID_31_);stroke-width:0.25;stroke-miterlimit:10;}
	.st34{fill:none;stroke:url(#SVGID_32_);stroke-width:0.28;stroke-miterlimit:10;}
	.st35{fill:none;stroke:url(#SVGID_33_);stroke-width:0.31;stroke-miterlimit:10;}
	.st36{fill:none;stroke:url(#SVGID_34_);stroke-width:0.35;stroke-miterlimit:10;}
	.st37{fill:none;stroke:url(#SVGID_35_);stroke-width:0.39;stroke-miterlimit:10;}
	.st38{fill:none;stroke:url(#SVGID_36_);stroke-width:0.43;stroke-miterlimit:10;}
	.st39{fill:none;stroke:url(#SVGID_37_);stroke-width:0.48;stroke-miterlimit:10;}
	.st40{fill:none;stroke:url(#SVGID_38_);stroke-width:0.53;stroke-miterlimit:10;}
	.st41{fill:none;stroke:url(#SVGID_39_);stroke-width:0.59;stroke-miterlimit:10;}
	.st42{fill:none;stroke:url(#SVGID_40_);stroke-width:0.66;stroke-miterlimit:10;}
	.st43{fill:none;stroke:url(#SVGID_41_);stroke-width:0.73;stroke-miterlimit:10;}
	.st44{fill:none;stroke:url(#SVGID_42_);stroke-width:0.81;stroke-miterlimit:10;}
	.st45{fill:none;stroke:url(#SVGID_43_);stroke-width:0.9;stroke-miterlimit:10;}
	.st46{fill:none;stroke:url(#SVGID_44_);stroke-miterlimit:10;}
	.st47{fill:none;stroke:url(#SVGID_45_);stroke-width:1.11;stroke-miterlimit:10;}
	.st48{fill:none;stroke:url(#SVGID_46_);stroke-width:1.24;stroke-miterlimit:10;}
	.st49{fill:none;stroke:url(#SVGID_47_);stroke-width:1.38;stroke-miterlimit:10;}
	.st50{fill:none;stroke:url(#SVGID_48_);stroke-width:1.53;stroke-miterlimit:10;}
	.st51{fill:none;stroke:url(#SVGID_49_);stroke-width:1.7;stroke-miterlimit:10;}
	.st52{fill:none;stroke:url(#SVGID_50_);stroke-width:1.89;stroke-miterlimit:10;}
	.st53{fill:none;stroke:url(#SVGID_51_);stroke-width:2.1;stroke-miterlimit:10;}
	.st54{fill:none;stroke:url(#SVGID_52_);stroke-width:2.33;stroke-miterlimit:10;}
	.st55{fill:none;stroke:url(#SVGID_53_);stroke-width:2.59;stroke-miterlimit:10;}
	.st56{fill:none;stroke:url(#SVGID_54_);stroke-width:2.88;stroke-miterlimit:10;}
	.st57{fill:none;stroke:url(#SVGID_55_);stroke-width:3.2;stroke-miterlimit:10;}
	.st58{fill:none;stroke:url(#SVGID_56_);stroke-width:3.55;stroke-miterlimit:10;}
	.st59{fill:none;stroke:url(#SVGID_57_);stroke-width:3.95;stroke-miterlimit:10;}
	.st60{fill:none;stroke:url(#SVGID_58_);stroke-width:4.39;stroke-miterlimit:10;}
</style>
<g id="Layer_3" class="st0">
	<g class="st1">
		<path class="st2" d="M1030.7,1541.4l-0.4,0.2c0,0,0,0,0.1,0h0.8c0.1,0,0.1,0,0.1,0l-0.4-0.2
			C1030.9,1541.4,1030.8,1541.4,1030.7,1541.4z"/>
		<path class="st2" d="M1030.7,1541.4l-0.4,0.2c0,0,0,0,0.1,0h0.8c0.1,0,0.1,0,0.1,0l-0.4-0.2
			C1030.9,1541.4,1030.7,1541.4,1030.7,1541.4L1030.7,1541.4z"/>
		<path class="st2" d="M1030.7,1541.4l-0.5,0.2c0,0,0,0,0.1,0h0.9c0.1,0,0.1,0,0.1,0L1030.7,1541.4
			C1030.9,1541.4,1030.7,1541.4,1030.7,1541.4L1030.7,1541.4z"/>
		
			<linearGradient id="SVGID_1_" gradientUnits="userSpaceOnUse" x1="1030.1799" y1="1896.1499" x2="1031.4099" y2="1896.1499" gradientTransform="matrix(1 0 0 1 0 -354.6)">
			<stop  offset="0" style="stop-color:#00A8DE"/>
			<stop  offset="0.2" style="stop-color:#33368F"/>
			<stop  offset="0.4" style="stop-color:#E81989"/>
			<stop  offset="0.6" style="stop-color:#EA2F30"/>
			<stop  offset="0.8" style="stop-color:#FCE828"/>
			<stop  offset="1" style="stop-color:#009E54"/>
		</linearGradient>
		<path class="st3" d="M1030.7,1541.4l-0.5,0.3c0,0,0,0,0.1,0h1c0.1,0,0.1,0,0.1,0l-0.5-0.3
			C1030.9,1541.4,1030.8,1541.4,1030.7,1541.4L1030.7,1541.4z"/>
		
			<linearGradient id="SVGID_2_" gradientUnits="userSpaceOnUse" x1="1030.12" y1="1896.1499" x2="1031.47" y2="1896.1499" gradientTransform="matrix(1 0 0 1 0 -354.6)">
			<stop  offset="0" style="stop-color:#00A8DE"/>
			<stop  offset="0.2" style="stop-color:#33368F"/>
			<stop  offset="0.4" style="stop-color:#E81989"/>
			<stop  offset="0.6" style="stop-color:#EA2F30"/>
			<stop  offset="0.8" style="stop-color:#FCE828"/>
			<stop  offset="1" style="stop-color:#009E54"/>
		</linearGradient>
		<path class="st4" d="M1030.7,1541.4l-0.5,0.3c0,0,0,0,0.1,0h1.1c0.1,0,0.2,0,0.1,0l-0.5-0.3
			C1030.9,1541.4,1030.7,1541.4,1030.7,1541.4L1030.7,1541.4z"/>
		
			<linearGradient id="SVGID_3_" gradientUnits="userSpaceOnUse" x1="1030.05" y1="1896.1777" x2="1031.54" y2="1896.1777" gradientTransform="matrix(1 0 0 1 0 -354.6)">
			<stop  offset="0" style="stop-color:#00A8DE"/>
			<stop  offset="0.2" style="stop-color:#33368F"/>
			<stop  offset="0.4" style="stop-color:#E81989"/>
			<stop  offset="0.6" style="stop-color:#EA2F30"/>
			<stop  offset="0.8" style="stop-color:#FCE828"/>
			<stop  offset="1" style="stop-color:#009E54"/>
		</linearGradient>
		<path class="st5" d="M1030.7,1541.4l-0.6,0.3c0,0,0,0.1,0.1,0.1h1.2c0.1,0,0.2,0,0.1-0.1l-0.6-0.3
			C1030.9,1541.4,1030.7,1541.3,1030.7,1541.4z"/>
		
			<linearGradient id="SVGID_4_" gradientUnits="userSpaceOnUse" x1="1029.98" y1="1896.0999" x2="1031.6099" y2="1896.0999" gradientTransform="matrix(1 0 0 1 0 -354.6)">
			<stop  offset="0" style="stop-color:#00A8DE"/>
			<stop  offset="0.2" style="stop-color:#33368F"/>
			<stop  offset="0.4" style="stop-color:#E81989"/>
			<stop  offset="0.6" style="stop-color:#EA2F30"/>
			<stop  offset="0.8" style="stop-color:#FCE828"/>
			<stop  offset="1" style="stop-color:#009E54"/>
		</linearGradient>
		<path class="st6" d="M1030.7,1541.3l-0.7,0.3c0,0,0,0.1,0.1,0.1h1.3c0.1,0,0.2,0,0.1-0.1L1030.7,1541.3
			C1030.9,1541.3,1030.7,1541.3,1030.7,1541.3L1030.7,1541.3z"/>
		
			<linearGradient id="SVGID_5_" gradientUnits="userSpaceOnUse" x1="1029.9" y1="1896.1499" x2="1031.6901" y2="1896.1499" gradientTransform="matrix(1 0 0 1 0 -354.6)">
			<stop  offset="0" style="stop-color:#00A8DE"/>
			<stop  offset="0.2" style="stop-color:#33368F"/>
			<stop  offset="0.4" style="stop-color:#E81989"/>
			<stop  offset="0.6" style="stop-color:#EA2F30"/>
			<stop  offset="0.8" style="stop-color:#FCE828"/>
			<stop  offset="1" style="stop-color:#009E54"/>
		</linearGradient>
		<path class="st7" d="M1030.7,1541.3l-0.7,0.4c-0.1,0,0,0.1,0.1,0.1h1.5c0.1,0,0.2,0,0.1-0.1l-0.7-0.4
			C1030.9,1541.3,1030.7,1541.3,1030.7,1541.3z"/>
		
			<linearGradient id="SVGID_6_" gradientUnits="userSpaceOnUse" x1="1029.8099" y1="1896.1499" x2="1031.78" y2="1896.1499" gradientTransform="matrix(1 0 0 1 0 -354.6)">
			<stop  offset="0" style="stop-color:#00A8DE"/>
			<stop  offset="0.2" style="stop-color:#33368F"/>
			<stop  offset="0.4" style="stop-color:#E81989"/>
			<stop  offset="0.6" style="stop-color:#EA2F30"/>
			<stop  offset="0.8" style="stop-color:#FCE828"/>
			<stop  offset="1" style="stop-color:#009E54"/>
		</linearGradient>
		<path class="st8" d="M1030.7,1541.3l-0.8,0.4c-0.1,0,0,0.1,0.2,0.1h1.6c0.1,0,0.2,0,0.2-0.1l-0.8-0.4
			C1030.9,1541.3,1030.7,1541.3,1030.7,1541.3L1030.7,1541.3z"/>
		
			<linearGradient id="SVGID_7_" gradientUnits="userSpaceOnUse" x1="1029.7101" y1="1896.1624" x2="1031.88" y2="1896.1624" gradientTransform="matrix(1 0 0 1 0 -354.6)">
			<stop  offset="0" style="stop-color:#00A8DE"/>
			<stop  offset="0.2" style="stop-color:#33368F"/>
			<stop  offset="0.4" style="stop-color:#E81989"/>
			<stop  offset="0.6" style="stop-color:#EA2F30"/>
			<stop  offset="0.8" style="stop-color:#FCE828"/>
			<stop  offset="1" style="stop-color:#009E54"/>
		</linearGradient>
		<path class="st9" d="M1030.6,1541.3l-0.9,0.5c-0.1,0,0,0.1,0.2,0.1h1.8c0.1,0,0.2,0,0.2-0.1l-0.9-0.5
			C1030.9,1541.2,1030.7,1541.2,1030.6,1541.3L1030.6,1541.3z"/>
		
			<linearGradient id="SVGID_8_" gradientUnits="userSpaceOnUse" x1="1029.6" y1="1896.2124" x2="1031.99" y2="1896.2124" gradientTransform="matrix(1 0 0 1 0 -354.6)">
			<stop  offset="0" style="stop-color:#00A8DE"/>
			<stop  offset="0.2" style="stop-color:#33368F"/>
			<stop  offset="0.4" style="stop-color:#E81989"/>
			<stop  offset="0.6" style="stop-color:#EA2F30"/>
			<stop  offset="0.8" style="stop-color:#FCE828"/>
			<stop  offset="1" style="stop-color:#009E54"/>
		</linearGradient>
		<path class="st10" d="M1030.6,1541.3l-1,0.6c-0.1,0,0,0.1,0.2,0.1h2c0.2,0,0.3-0.1,0.2-0.1l-1-0.6
			C1030.9,1541.2,1030.7,1541.2,1030.6,1541.3L1030.6,1541.3z"/>
		
			<linearGradient id="SVGID_9_" gradientUnits="userSpaceOnUse" x1="1029.49" y1="1896.1499" x2="1032.0984" y2="1896.1499" gradientTransform="matrix(1 0 0 1 0 -354.6)">
			<stop  offset="0" style="stop-color:#00A8DE"/>
			<stop  offset="0.2" style="stop-color:#33368F"/>
			<stop  offset="0.4" style="stop-color:#E81989"/>
			<stop  offset="0.6" style="stop-color:#EA2F30"/>
			<stop  offset="0.8" style="stop-color:#FCE828"/>
			<stop  offset="1" style="stop-color:#009E54"/>
		</linearGradient>
		<path class="st11" d="M1030.6,1541.2l-1.1,0.6c-0.1,0,0,0.1,0.2,0.1h2.1c0.2,0,0.3-0.1,0.2-0.1l-1.1-0.6
			C1030.9,1541.2,1030.7,1541.2,1030.6,1541.2L1030.6,1541.2z"/>
		
			<linearGradient id="SVGID_10_" gradientUnits="userSpaceOnUse" x1="1029.36" y1="1896.1624" x2="1032.2322" y2="1896.1624" gradientTransform="matrix(1 0 0 1 0 -354.6)">
			<stop  offset="0" style="stop-color:#00A8DE"/>
			<stop  offset="0.2" style="stop-color:#33368F"/>
			<stop  offset="0.4" style="stop-color:#E81989"/>
			<stop  offset="0.6" style="stop-color:#EA2F30"/>
			<stop  offset="0.8" style="stop-color:#FCE828"/>
			<stop  offset="1" style="stop-color:#009E54"/>
		</linearGradient>
		<path class="st12" d="M1030.6,1541.2l-1.2,0.7c-0.1,0.1,0,0.1,0.2,0.1h2.3c0.2,0,0.3-0.1,0.2-0.1l-1.2-0.7
			C1030.9,1541.1,1030.7,1541.1,1030.6,1541.2L1030.6,1541.2z"/>
		
			<linearGradient id="SVGID_11_" gradientUnits="userSpaceOnUse" x1="1029.2101" y1="1896.2124" x2="1032.37" y2="1896.2124" gradientTransform="matrix(1 0 0 1 0 -354.6)">
			<stop  offset="0" style="stop-color:#00A8DE"/>
			<stop  offset="0.2" style="stop-color:#33368F"/>
			<stop  offset="0.4" style="stop-color:#E81989"/>
			<stop  offset="0.6" style="stop-color:#EA2F30"/>
			<stop  offset="0.8" style="stop-color:#FCE828"/>
			<stop  offset="1" style="stop-color:#009E54"/>
		</linearGradient>
		<path class="st13" d="M1030.6,1541.2l-1.3,0.8c-0.1,0.1,0,0.1,0.2,0.1h2.6c0.2,0,0.3-0.1,0.2-0.1l-1.3-0.8
			C1030.9,1541.1,1030.7,1541.1,1030.6,1541.2L1030.6,1541.2z"/>
		
			<linearGradient id="SVGID_12_" gradientUnits="userSpaceOnUse" x1="1029.0601" y1="1896.2124" x2="1032.53" y2="1896.2124" gradientTransform="matrix(1 0 0 1 0 -354.6)">
			<stop  offset="0" style="stop-color:#00A8DE"/>
			<stop  offset="0.2" style="stop-color:#33368F"/>
			<stop  offset="0.4" style="stop-color:#E81989"/>
			<stop  offset="0.6" style="stop-color:#EA2F30"/>
			<stop  offset="0.8" style="stop-color:#FCE828"/>
			<stop  offset="1" style="stop-color:#009E54"/>
		</linearGradient>
		<path class="st14" d="M1030.5,1541.1l-1.4,0.9c-0.1,0.1,0,0.2,0.3,0.2h2.8c0.2,0,0.4-0.1,0.3-0.2l-1.4-0.9
			C1031,1541,1030.7,1541,1030.5,1541.1z"/>
		
			<linearGradient id="SVGID_13_" gradientUnits="userSpaceOnUse" x1="1028.89" y1="1896.2625" x2="1032.705" y2="1896.2625" gradientTransform="matrix(1 0 0 1 0 -354.6)">
			<stop  offset="0" style="stop-color:#00A8DE"/>
			<stop  offset="0.2" style="stop-color:#33368F"/>
			<stop  offset="0.4" style="stop-color:#E81989"/>
			<stop  offset="0.6" style="stop-color:#EA2F30"/>
			<stop  offset="0.8" style="stop-color:#FCE828"/>
			<stop  offset="1" style="stop-color:#009E54"/>
		</linearGradient>
		<path class="st15" d="M1030.5,1541.1l-1.6,1c-0.1,0.1,0,0.2,0.3,0.2h3.1c0.3,0,0.4-0.1,0.3-0.2l-1.6-1
			C1030.9,1541,1030.6,1541,1030.5,1541.1L1030.5,1541.1z"/>
		
			<linearGradient id="SVGID_14_" gradientUnits="userSpaceOnUse" x1="1028.7" y1="1896.2124" x2="1032.8901" y2="1896.2124" gradientTransform="matrix(1 0 0 1 0 -354.6)">
			<stop  offset="0" style="stop-color:#00A8DE"/>
			<stop  offset="0.2" style="stop-color:#33368F"/>
			<stop  offset="0.4" style="stop-color:#E81989"/>
			<stop  offset="0.6" style="stop-color:#EA2F30"/>
			<stop  offset="0.8" style="stop-color:#FCE828"/>
			<stop  offset="1" style="stop-color:#009E54"/>
		</linearGradient>
		<path class="st16" d="M1030.5,1541l-1.7,1.1c-0.1,0.1,0,0.2,0.3,0.2h3.4c0.3,0,0.5-0.1,0.3-0.2l-1.7-1.1
			C1030.9,1540.9,1030.6,1540.9,1030.5,1541L1030.5,1541z"/>
		
			<linearGradient id="SVGID_15_" gradientUnits="userSpaceOnUse" x1="1028.4927" y1="1896.3125" x2="1033.103" y2="1896.3125" gradientTransform="matrix(1 0 0 1 0 -354.6)">
			<stop  offset="0" style="stop-color:#00A8DE"/>
			<stop  offset="0.2" style="stop-color:#33368F"/>
			<stop  offset="0.4" style="stop-color:#E81989"/>
			<stop  offset="0.6" style="stop-color:#EA2F30"/>
			<stop  offset="0.8" style="stop-color:#FCE828"/>
			<stop  offset="1" style="stop-color:#009E54"/>
		</linearGradient>
		<path class="st17" d="M1030.5,1541l-1.9,1.3c-0.1,0.1,0,0.2,0.3,0.2h3.8c0.3,0,0.5-0.1,0.3-0.2l-1.9-1.3
			C1031,1540.9,1030.6,1540.9,1030.5,1541L1030.5,1541z"/>
		
			<linearGradient id="SVGID_16_" gradientUnits="userSpaceOnUse" x1="1028.2648" y1="1896.3124" x2="1033.3311" y2="1896.3124" gradientTransform="matrix(1 0 0 1 0 -354.6)">
			<stop  offset="0" style="stop-color:#00A8DE"/>
			<stop  offset="0.2" style="stop-color:#33368F"/>
			<stop  offset="0.4" style="stop-color:#E81989"/>
			<stop  offset="0.6" style="stop-color:#EA2F30"/>
			<stop  offset="0.8" style="stop-color:#FCE828"/>
			<stop  offset="1" style="stop-color:#009E54"/>
		</linearGradient>
		<path class="st18" d="M1030.4,1540.9l-2.1,1.4c-0.2,0.1,0,0.3,0.4,0.3h4.1c0.3,0,0.5-0.1,0.4-0.3l-2.1-1.4
			C1031,1540.8,1030.6,1540.8,1030.4,1540.9L1030.4,1540.9z"/>
		
			<linearGradient id="SVGID_17_" gradientUnits="userSpaceOnUse" x1="1028.0052" y1="1896.3124" x2="1033.5752" y2="1896.3124" gradientTransform="matrix(1 0 0 1 0 -354.6)">
			<stop  offset="0" style="stop-color:#00A8DE"/>
			<stop  offset="0.2" style="stop-color:#33368F"/>
			<stop  offset="0.4" style="stop-color:#E81989"/>
			<stop  offset="0.6" style="stop-color:#EA2F30"/>
			<stop  offset="0.8" style="stop-color:#FCE828"/>
			<stop  offset="1" style="stop-color:#009E54"/>
		</linearGradient>
		<path class="st19" d="M1030.4,1540.8l-2.3,1.6c-0.2,0.1,0.1,0.3,0.4,0.3h4.5c0.4,0,0.6-0.2,0.4-0.3l-2.3-1.6
			C1031,1540.7,1030.5,1540.7,1030.4,1540.8L1030.4,1540.8z"/>
		
			<linearGradient id="SVGID_18_" gradientUnits="userSpaceOnUse" x1="1027.73" y1="1896.3125" x2="1033.86" y2="1896.3125" gradientTransform="matrix(1 0 0 1 0 -354.6)">
			<stop  offset="0" style="stop-color:#00A8DE"/>
			<stop  offset="0.2" style="stop-color:#33368F"/>
			<stop  offset="0.4" style="stop-color:#E81989"/>
			<stop  offset="0.6" style="stop-color:#EA2F30"/>
			<stop  offset="0.8" style="stop-color:#FCE828"/>
			<stop  offset="1" style="stop-color:#009E54"/>
		</linearGradient>
		<path class="st20" d="M1030.3,1540.7l-2.5,1.8c-0.2,0.1,0.1,0.3,0.5,0.3h5c0.4,0,0.7-0.2,0.5-0.3l-2.5-1.8
			C1031.1,1540.6,1030.5,1540.6,1030.3,1540.7L1030.3,1540.7z"/>
		
			<linearGradient id="SVGID_19_" gradientUnits="userSpaceOnUse" x1="1027.4282" y1="1896.3624" x2="1034.1531" y2="1896.3624" gradientTransform="matrix(1 0 0 1 0 -354.6)">
			<stop  offset="0" style="stop-color:#00A8DE"/>
			<stop  offset="0.2" style="stop-color:#33368F"/>
			<stop  offset="0.4" style="stop-color:#E81989"/>
			<stop  offset="0.6" style="stop-color:#EA2F30"/>
			<stop  offset="0.8" style="stop-color:#FCE828"/>
			<stop  offset="1" style="stop-color:#009E54"/>
		</linearGradient>
		<path class="st21" d="M1030.3,1540.6l-2.8,2c-0.2,0.2,0.1,0.4,0.5,0.4h5.5c0.4,0,0.7-0.2,0.5-0.4l-2.8-2
			C1031.1,1540.5,1030.5,1540.5,1030.3,1540.6z"/>
		
			<linearGradient id="SVGID_20_" gradientUnits="userSpaceOnUse" x1="1027.0974" y1="1896.4125" x2="1034.486" y2="1896.4125" gradientTransform="matrix(1 0 0 1 0 -354.6)">
			<stop  offset="0" style="stop-color:#00A8DE"/>
			<stop  offset="0.2" style="stop-color:#33368F"/>
			<stop  offset="0.4" style="stop-color:#E81989"/>
			<stop  offset="0.6" style="stop-color:#EA2F30"/>
			<stop  offset="0.8" style="stop-color:#FCE828"/>
			<stop  offset="1" style="stop-color:#009E54"/>
		</linearGradient>
		<path class="st22" d="M1030.2,1540.5l-3,2.3c-0.2,0.2,0.1,0.4,0.6,0.4h6c0.5,0,0.8-0.2,0.5-0.4l-3-2.3
			C1031.1,1540.4,1030.5,1540.4,1030.2,1540.5z"/>
		
			<linearGradient id="SVGID_21_" gradientUnits="userSpaceOnUse" x1="1026.7302" y1="1896.4249" x2="1034.8602" y2="1896.4249" gradientTransform="matrix(1 0 0 1 0 -354.6)">
			<stop  offset="0" style="stop-color:#00A8DE"/>
			<stop  offset="0.2" style="stop-color:#33368F"/>
			<stop  offset="0.4" style="stop-color:#E81989"/>
			<stop  offset="0.6" style="stop-color:#EA2F30"/>
			<stop  offset="0.8" style="stop-color:#FCE828"/>
			<stop  offset="1" style="stop-color:#009E54"/>
		</linearGradient>
		<path class="st23" d="M1030.2,1540.4l-3.3,2.5c-0.3,0.2,0.1,0.5,0.6,0.5h6.6c0.5,0,0.9-0.3,0.6-0.5l-3.3-2.5
			C1031.1,1540.2,1030.5,1540.2,1030.2,1540.4L1030.2,1540.4z"/>
		
			<linearGradient id="SVGID_22_" gradientUnits="userSpaceOnUse" x1="1026.3235" y1="1896.475" x2="1035.2466" y2="1896.475" gradientTransform="matrix(1 0 0 1 0 -354.6)">
			<stop  offset="0" style="stop-color:#00A8DE"/>
			<stop  offset="0.2" style="stop-color:#33368F"/>
			<stop  offset="0.4" style="stop-color:#E81989"/>
			<stop  offset="0.6" style="stop-color:#EA2F30"/>
			<stop  offset="0.8" style="stop-color:#FCE828"/>
			<stop  offset="1" style="stop-color:#009E54"/>
		</linearGradient>
		<path class="st24" d="M1030.1,1540.3l-3.7,2.8c-0.3,0.2,0.1,0.5,0.7,0.5h7.3c0.6,0,1-0.3,0.7-0.5l-3.6-2.8
			C1031.1,1540.1,1030.4,1540.1,1030.1,1540.3L1030.1,1540.3z"/>
		
			<linearGradient id="SVGID_23_" gradientUnits="userSpaceOnUse" x1="1025.8826" y1="1896.5249" x2="1035.6974" y2="1896.5249" gradientTransform="matrix(1 0 0 1 0 -354.6)">
			<stop  offset="0" style="stop-color:#00A8DE"/>
			<stop  offset="0.2" style="stop-color:#33368F"/>
			<stop  offset="0.4" style="stop-color:#E81989"/>
			<stop  offset="0.6" style="stop-color:#EA2F30"/>
			<stop  offset="0.8" style="stop-color:#FCE828"/>
			<stop  offset="1" style="stop-color:#009E54"/>
		</linearGradient>
		<path class="st25" d="M1030.1,1540.1l-4,3.2c-0.3,0.3,0.1,0.6,0.7,0.6h8c0.6,0,1-0.3,0.7-0.6l-4-3.2
			C1031.2,1539.9,1030.4,1539.9,1030.1,1540.1z"/>
		
			<linearGradient id="SVGID_24_" gradientUnits="userSpaceOnUse" x1="1025.3977" y1="1896.6375" x2="1036.1815" y2="1896.6375" gradientTransform="matrix(1 0 0 1 0 -354.6)">
			<stop  offset="0" style="stop-color:#00A8DE"/>
			<stop  offset="0.2" style="stop-color:#33368F"/>
			<stop  offset="0.4" style="stop-color:#E81989"/>
			<stop  offset="0.6" style="stop-color:#EA2F30"/>
			<stop  offset="0.8" style="stop-color:#FCE828"/>
			<stop  offset="1" style="stop-color:#009E54"/>
		</linearGradient>
		<path class="st26" d="M1030,1540l-4.4,3.6c-0.4,0.3,0.1,0.7,0.8,0.7h8.8c0.7,0,1.2-0.4,0.8-0.7l-4.4-3.6
			C1031.2,1539.7,1030.3,1539.7,1030,1540L1030,1540z"/>
		
			<linearGradient id="SVGID_25_" gradientUnits="userSpaceOnUse" x1="1024.863" y1="1896.6375" x2="1036.7169" y2="1896.6375" gradientTransform="matrix(1 0 0 1 0 -354.6)">
			<stop  offset="0" style="stop-color:#00A8DE"/>
			<stop  offset="0.2" style="stop-color:#33368F"/>
			<stop  offset="0.4" style="stop-color:#E81989"/>
			<stop  offset="0.6" style="stop-color:#EA2F30"/>
			<stop  offset="0.8" style="stop-color:#FCE828"/>
			<stop  offset="1" style="stop-color:#009E54"/>
		</linearGradient>
		<path class="st27" d="M1029.9,1539.8l-4.8,4c-0.4,0.3,0.1,0.7,0.9,0.7h9.7c0.8,0,1.3-0.4,0.9-0.7l-4.8-4
			C1031.3,1539.5,1030.3,1539.5,1029.9,1539.8z"/>
		
			<linearGradient id="SVGID_26_" gradientUnits="userSpaceOnUse" x1="1024.2856" y1="1896.7" x2="1037.3143" y2="1896.7" gradientTransform="matrix(1 0 0 1 0 -354.6)">
			<stop  offset="0" style="stop-color:#00A8DE"/>
			<stop  offset="0.2" style="stop-color:#33368F"/>
			<stop  offset="0.4" style="stop-color:#E81989"/>
			<stop  offset="0.6" style="stop-color:#EA2F30"/>
			<stop  offset="0.8" style="stop-color:#FCE828"/>
			<stop  offset="1" style="stop-color:#009E54"/>
		</linearGradient>
		<path class="st28" d="M1029.8,1539.6l-5.3,4.5c-0.4,0.4,0.1,0.8,1,0.8h10.6c0.9,0,1.4-0.5,1-0.8l-5.3-4.5
			C1031.3,1539.2,1030.3,1539.2,1029.8,1539.6z"/>
		
			<linearGradient id="SVGID_27_" gradientUnits="userSpaceOnUse" x1="1023.6353" y1="1896.7499" x2="1037.9509" y2="1896.7499" gradientTransform="matrix(1 0 0 1 0 -354.6)">
			<stop  offset="0" style="stop-color:#00A8DE"/>
			<stop  offset="0.2" style="stop-color:#33368F"/>
			<stop  offset="0.4" style="stop-color:#E81989"/>
			<stop  offset="0.6" style="stop-color:#EA2F30"/>
			<stop  offset="0.8" style="stop-color:#FCE828"/>
			<stop  offset="1" style="stop-color:#009E54"/>
		</linearGradient>
		<path class="st29" d="M1029.7,1539.3l-5.8,5.1c-0.5,0.4,0.1,0.9,1.1,0.9h11.7c1,0,1.5-0.5,1.1-0.9l-5.8-5.1
			C1031.4,1538.9,1030.2,1538.9,1029.7,1539.3z"/>
		
			<linearGradient id="SVGID_28_" gradientUnits="userSpaceOnUse" x1="1022.9267" y1="1896.8624" x2="1038.6605" y2="1896.8624" gradientTransform="matrix(1 0 0 1 0 -354.6)">
			<stop  offset="0" style="stop-color:#00A8DE"/>
			<stop  offset="0.2" style="stop-color:#33368F"/>
			<stop  offset="0.4" style="stop-color:#E81989"/>
			<stop  offset="0.6" style="stop-color:#EA2F30"/>
			<stop  offset="0.8" style="stop-color:#FCE828"/>
			<stop  offset="1" style="stop-color:#009E54"/>
		</linearGradient>
		<path class="st30" d="M1029.6,1539.1l-6.4,5.7c-0.5,0.5,0.1,1,1.2,1h12.8c1,0,1.7-0.6,1.2-1l-6.4-5.7
			C1031.5,1538.6,1030.2,1538.6,1029.6,1539.1L1029.6,1539.1z"/>
		
			<linearGradient id="SVGID_29_" gradientUnits="userSpaceOnUse" x1="1022.1442" y1="1896.9749" x2="1039.4342" y2="1896.9749" gradientTransform="matrix(1 0 0 1 0 -354.6)">
			<stop  offset="0" style="stop-color:#00A8DE"/>
			<stop  offset="0.2" style="stop-color:#33368F"/>
			<stop  offset="0.4" style="stop-color:#E81989"/>
			<stop  offset="0.6" style="stop-color:#EA2F30"/>
			<stop  offset="0.8" style="stop-color:#FCE828"/>
			<stop  offset="1" style="stop-color:#009E54"/>
		</linearGradient>
		<path class="st31" d="M1029.5,1538.8l-7.1,6.4c-0.6,0.5,0.1,1.2,1.3,1.2h14.1c1.1,0,1.9-0.7,1.3-1.2l-7.1-6.4
			C1031.5,1538.2,1030.1,1538.2,1029.5,1538.8L1029.5,1538.8z"/>
		
			<linearGradient id="SVGID_30_" gradientUnits="userSpaceOnUse" x1="1021.281" y1="1897.0249" x2="1040.2853" y2="1897.0249" gradientTransform="matrix(1 0 0 1 0 -354.6)">
			<stop  offset="0" style="stop-color:#00A8DE"/>
			<stop  offset="0.2" style="stop-color:#33368F"/>
			<stop  offset="0.4" style="stop-color:#E81989"/>
			<stop  offset="0.6" style="stop-color:#EA2F30"/>
			<stop  offset="0.8" style="stop-color:#FCE828"/>
			<stop  offset="1" style="stop-color:#009E54"/>
		</linearGradient>
		<path class="st32" d="M1029.4,1538.4l-7.8,7.2c-0.6,0.6,0.2,1.3,1.4,1.3h15.5c1.3,0,2-0.7,1.4-1.3l-7.8-7.2
			C1031.6,1537.8,1030,1537.8,1029.4,1538.4L1029.4,1538.4z"/>
		
			<linearGradient id="SVGID_31_" gradientUnits="userSpaceOnUse" x1="1020.3323" y1="1897.1749" x2="1041.2266" y2="1897.1749" gradientTransform="matrix(1 0 0 1 0 -354.6)">
			<stop  offset="0" style="stop-color:#00A8DE"/>
			<stop  offset="0.2" style="stop-color:#33368F"/>
			<stop  offset="0.4" style="stop-color:#E81989"/>
			<stop  offset="0.6" style="stop-color:#EA2F30"/>
			<stop  offset="0.8" style="stop-color:#FCE828"/>
			<stop  offset="1" style="stop-color:#009E54"/>
		</linearGradient>
		<path class="st33" d="M1029.2,1538l-8.5,8.1c-0.7,0.7,0.2,1.5,1.6,1.5h17c1.4,0,2.2-0.8,1.6-1.5l-8.5-8.1
			C1031.7,1537.4,1029.9,1537.4,1029.2,1538z"/>
		
			<linearGradient id="SVGID_32_" gradientUnits="userSpaceOnUse" x1="1019.3125" y1="1897.3374" x2="1042.2585" y2="1897.3374" gradientTransform="matrix(1 0 0 1 0 -354.6)">
			<stop  offset="0" style="stop-color:#00A8DE"/>
			<stop  offset="0.2" style="stop-color:#33368F"/>
			<stop  offset="0.4" style="stop-color:#E81989"/>
			<stop  offset="0.6" style="stop-color:#EA2F30"/>
			<stop  offset="0.8" style="stop-color:#FCE828"/>
			<stop  offset="1" style="stop-color:#009E54"/>
		</linearGradient>
		<path class="st34" d="M1029.1,1537.6l-9.4,9.1c-0.8,0.7,0.2,1.7,1.7,1.7h18.7c1.5,0,2.5-0.9,1.7-1.7l-9.4-9.1
			C1031.7,1536.9,1029.8,1536.9,1029.1,1537.6z"/>
		
			<linearGradient id="SVGID_33_" gradientUnits="userSpaceOnUse" x1="1018.1649" y1="1897.45" x2="1043.3937" y2="1897.45" gradientTransform="matrix(1 0 0 1 0 -354.6)">
			<stop  offset="0" style="stop-color:#00A8DE"/>
			<stop  offset="0.2" style="stop-color:#33368F"/>
			<stop  offset="0.4" style="stop-color:#E81989"/>
			<stop  offset="0.6" style="stop-color:#EA2F30"/>
			<stop  offset="0.8" style="stop-color:#FCE828"/>
			<stop  offset="1" style="stop-color:#009E54"/>
		</linearGradient>
		<path class="st35" d="M1028.9,1537.1l-10.3,10.2c-0.8,0.8,0.2,1.9,1.9,1.9h20.6c1.7,0,2.7-1,1.9-1.9l-10.3-10.2
			C1031.8,1536.3,1029.8,1536.3,1028.9,1537.1L1028.9,1537.1z"/>
		
			<linearGradient id="SVGID_34_" gradientUnits="userSpaceOnUse" x1="1016.906" y1="1897.6625" x2="1044.6438" y2="1897.6625" gradientTransform="matrix(1 0 0 1 0 -354.6)">
			<stop  offset="0" style="stop-color:#00A8DE"/>
			<stop  offset="0.2" style="stop-color:#33368F"/>
			<stop  offset="0.4" style="stop-color:#E81989"/>
			<stop  offset="0.6" style="stop-color:#EA2F30"/>
			<stop  offset="0.8" style="stop-color:#FCE828"/>
			<stop  offset="1" style="stop-color:#009E54"/>
		</linearGradient>
		<path class="st36" d="M1028.7,1536.6l-11.3,11.5c-0.9,0.9,0.2,2.1,2.1,2.1h22.6c1.8,0,3-1.2,2.1-2.1l-11.3-11.5
			C1031.9,1535.7,1029.7,1535.7,1028.7,1536.6z"/>
		
			<linearGradient id="SVGID_35_" gradientUnits="userSpaceOnUse" x1="1015.5602" y1="1897.7875" x2="1046.0422" y2="1897.7875" gradientTransform="matrix(1 0 0 1 0 -354.6)">
			<stop  offset="0" style="stop-color:#00A8DE"/>
			<stop  offset="0.2" style="stop-color:#33368F"/>
			<stop  offset="0.4" style="stop-color:#E81989"/>
			<stop  offset="0.6" style="stop-color:#EA2F30"/>
			<stop  offset="0.8" style="stop-color:#FCE828"/>
			<stop  offset="1" style="stop-color:#009E54"/>
		</linearGradient>
		<path class="st37" d="M1028.5,1536l-12.4,12.9c-1,1,0.3,2.3,2.3,2.3h24.9c2,0,3.3-1.3,2.3-2.3l-12.4-12.9
			C1032,1534.9,1029.5,1534.9,1028.5,1536L1028.5,1536z"/>
		
			<linearGradient id="SVGID_36_" gradientUnits="userSpaceOnUse" x1="1014.0446" y1="1897.9999" x2="1047.5416" y2="1897.9999" gradientTransform="matrix(1 0 0 1 0 -354.6)">
			<stop  offset="0" style="stop-color:#00A8DE"/>
			<stop  offset="0.2" style="stop-color:#33368F"/>
			<stop  offset="0.4" style="stop-color:#E81989"/>
			<stop  offset="0.6" style="stop-color:#EA2F30"/>
			<stop  offset="0.8" style="stop-color:#FCE828"/>
			<stop  offset="1" style="stop-color:#009E54"/>
		</linearGradient>
		<path class="st38" d="M1028.3,1535.3l-13.7,14.5c-1.1,1.2,0.3,2.6,2.5,2.6h27.3c2.2,0,3.6-1.5,2.5-2.6l-13.7-14.5
			C1032.2,1534.1,1029.4,1534.1,1028.3,1535.3L1028.3,1535.3z"/>
		
			<linearGradient id="SVGID_37_" gradientUnits="userSpaceOnUse" x1="1012.3797" y1="1898.2625" x2="1049.2003" y2="1898.2625" gradientTransform="matrix(1 0 0 1 0 -354.6)">
			<stop  offset="0" style="stop-color:#00A8DE"/>
			<stop  offset="0.2" style="stop-color:#33368F"/>
			<stop  offset="0.4" style="stop-color:#E81989"/>
			<stop  offset="0.6" style="stop-color:#EA2F30"/>
			<stop  offset="0.8" style="stop-color:#FCE828"/>
			<stop  offset="1" style="stop-color:#009E54"/>
		</linearGradient>
		<path class="st39" d="M1028.1,1534.5l-15,16.3c-1.2,1.3,0.3,3,2.7,3h30c2.4,0,4-1.7,2.7-3l-15-16.3
			C1032.3,1533.2,1029.3,1533.2,1028.1,1534.5L1028.1,1534.5z"/>
		
			<linearGradient id="SVGID_38_" gradientUnits="userSpaceOnUse" x1="1010.5752" y1="1898.5375" x2="1051.0248" y2="1898.5375" gradientTransform="matrix(1 0 0 1 0 -354.6)">
			<stop  offset="0" style="stop-color:#00A8DE"/>
			<stop  offset="0.2" style="stop-color:#33368F"/>
			<stop  offset="0.4" style="stop-color:#E81989"/>
			<stop  offset="0.6" style="stop-color:#EA2F30"/>
			<stop  offset="0.8" style="stop-color:#FCE828"/>
			<stop  offset="1" style="stop-color:#009E54"/>
		</linearGradient>
		<path class="st40" d="M1027.8,1533.7l-16.5,18.3c-1.3,1.5,0.3,3.3,3,3.3h33c2.7,0,4.3-1.8,3-3.3l-16.5-18.3
			C1032.5,1532.2,1029.1,1532.2,1027.8,1533.7z"/>
		
			<linearGradient id="SVGID_39_" gradientUnits="userSpaceOnUse" x1="1008.5793" y1="1898.8999" x2="1053.0537" y2="1898.8999" gradientTransform="matrix(1 0 0 1 0 -354.6)">
			<stop  offset="0" style="stop-color:#00A8DE"/>
			<stop  offset="0.2" style="stop-color:#33368F"/>
			<stop  offset="0.4" style="stop-color:#E81989"/>
			<stop  offset="0.6" style="stop-color:#EA2F30"/>
			<stop  offset="0.8" style="stop-color:#FCE828"/>
			<stop  offset="1" style="stop-color:#009E54"/>
		</linearGradient>
		<path class="st41" d="M1027.5,1532.7l-18.1,20.6c-1.5,1.7,0.4,3.8,3.3,3.8h36.3c2.9,0,4.8-2.1,3.3-3.8l-18.1-20.6
			C1032.6,1531.1,1028.9,1531.1,1027.5,1532.7L1027.5,1532.7z"/>
		
			<linearGradient id="SVGID_40_" gradientUnits="userSpaceOnUse" x1="1006.3531" y1="1899.1749" x2="1055.2468" y2="1899.1749" gradientTransform="matrix(1 0 0 1 0 -354.6)">
			<stop  offset="0" style="stop-color:#00A8DE"/>
			<stop  offset="0.2" style="stop-color:#33368F"/>
			<stop  offset="0.4" style="stop-color:#E81989"/>
			<stop  offset="0.6" style="stop-color:#EA2F30"/>
			<stop  offset="0.8" style="stop-color:#FCE828"/>
			<stop  offset="1" style="stop-color:#009E54"/>
		</linearGradient>
		<path class="st42" d="M1027.2,1531.6l-19.9,23.1c-1.6,1.9,0.4,4.2,3.6,4.2h39.8c3.2,0,5.2-2.3,3.6-4.2l-19.9-23.1
			C1032.8,1529.8,1028.8,1529.8,1027.2,1531.6L1027.2,1531.6z"/>
		
			<linearGradient id="SVGID_41_" gradientUnits="userSpaceOnUse" x1="1003.894" y1="1899.5624" x2="1057.6292" y2="1899.5624" gradientTransform="matrix(1 0 0 1 0 -354.6)">
			<stop  offset="0" style="stop-color:#00A8DE"/>
			<stop  offset="0.2" style="stop-color:#33368F"/>
			<stop  offset="0.4" style="stop-color:#E81989"/>
			<stop  offset="0.6" style="stop-color:#EA2F30"/>
			<stop  offset="0.8" style="stop-color:#FCE828"/>
			<stop  offset="1" style="stop-color:#009E54"/>
		</linearGradient>
		<path class="st43" d="M1026.8,1530.4l-21.9,26c-1.8,2.1,0.4,4.7,4,4.7h43.8c3.5,0,5.8-2.6,4-4.7l-21.9-26
			C1033,1528.3,1028.6,1528.3,1026.8,1530.4L1026.8,1530.4z"/>
		
			<linearGradient id="SVGID_42_" gradientUnits="userSpaceOnUse" x1="1001.2314" y1="1900.0499" x2="1060.2687" y2="1900.0499" gradientTransform="matrix(1 0 0 1 0 -354.6)">
			<stop  offset="0" style="stop-color:#00A8DE"/>
			<stop  offset="0.2" style="stop-color:#33368F"/>
			<stop  offset="0.4" style="stop-color:#E81989"/>
			<stop  offset="0.6" style="stop-color:#EA2F30"/>
			<stop  offset="0.8" style="stop-color:#FCE828"/>
			<stop  offset="1" style="stop-color:#009E54"/>
		</linearGradient>
		<path class="st44" d="M1026.4,1529.1l-24.1,29.2c-1.9,2.4,0.5,5.3,4.4,5.3h48.1c3.9,0,6.3-3,4.4-5.3l-24-29.2
			C1033.2,1526.7,1028.4,1526.7,1026.4,1529.1L1026.4,1529.1z"/>
		
			<linearGradient id="SVGID_43_" gradientUnits="userSpaceOnUse" x1="998.4086" y1="1900.5249" x2="1063.3331" y2="1900.5249" gradientTransform="matrix(1 0 0 1 0 -354.6)">
			<stop  offset="0" style="stop-color:#00A8DE"/>
			<stop  offset="0.2" style="stop-color:#33368F"/>
			<stop  offset="0.4" style="stop-color:#E81989"/>
			<stop  offset="0.6" style="stop-color:#EA2F30"/>
			<stop  offset="0.8" style="stop-color:#FCE828"/>
			<stop  offset="1" style="stop-color:#009E54"/>
		</linearGradient>
		<path class="st45" d="M1026,1527.5l-26.4,32.8c-2.1,2.7,0.5,6,4.8,6h52.9c4.3,0,7-3.3,4.8-6l-26.5-32.8
			C1033.5,1524.9,1028.1,1524.9,1026,1527.5L1026,1527.5z"/>
		
			<linearGradient id="SVGID_44_" gradientUnits="userSpaceOnUse" x1="995.1539" y1="1901.075" x2="1066.5044" y2="1901.075" gradientTransform="matrix(1 0 0 1 0 -354.6)">
			<stop  offset="0" style="stop-color:#00A8DE"/>
			<stop  offset="0.2" style="stop-color:#33368F"/>
			<stop  offset="0.4" style="stop-color:#E81989"/>
			<stop  offset="0.6" style="stop-color:#EA2F30"/>
			<stop  offset="0.8" style="stop-color:#FCE828"/>
			<stop  offset="1" style="stop-color:#009E54"/>
		</linearGradient>
		<path class="st46" d="M1025.5,1525.8l-29,36.9c-2.4,3,0.6,6.7,5.3,6.7h58.1c4.7,0,7.6-3.7,5.3-6.7l-29-36.9
			C1033.7,1522.8,1027.8,1522.8,1025.5,1525.8L1025.5,1525.8z"/>
		
			<linearGradient id="SVGID_45_" gradientUnits="userSpaceOnUse" x1="991.6225" y1="1901.6124" x2="1069.9774" y2="1901.6124" gradientTransform="matrix(1 0 0 1 0 -354.6)">
			<stop  offset="0" style="stop-color:#00A8DE"/>
			<stop  offset="0.2" style="stop-color:#33368F"/>
			<stop  offset="0.4" style="stop-color:#E81989"/>
			<stop  offset="0.6" style="stop-color:#EA2F30"/>
			<stop  offset="0.8" style="stop-color:#FCE828"/>
			<stop  offset="1" style="stop-color:#009E54"/>
		</linearGradient>
		<path class="st47" d="M1025,1523.8l-31.9,41.4c-2.6,3.3,0.6,7.5,5.8,7.5h63.8c5.2,0,8.4-4.2,5.8-7.5l-31.9-41.4
			C1034,1520.5,1027.6,1520.5,1025,1523.8L1025,1523.8z"/>
		
			<linearGradient id="SVGID_46_" gradientUnits="userSpaceOnUse" x1="987.696" y1="1902.3749" x2="1073.9042" y2="1902.3749" gradientTransform="matrix(1 0 0 1 0 -354.6)">
			<stop  offset="0" style="stop-color:#00A8DE"/>
			<stop  offset="0.2" style="stop-color:#33368F"/>
			<stop  offset="0.4" style="stop-color:#E81989"/>
			<stop  offset="0.6" style="stop-color:#EA2F30"/>
			<stop  offset="0.8" style="stop-color:#FCE828"/>
			<stop  offset="1" style="stop-color:#009E54"/>
		</linearGradient>
		<path class="st48" d="M1024.4,1521.7l-35.1,46.5c-2.8,3.8,0.7,8.5,6.4,8.5h70.2c5.7,0,9.2-4.7,6.4-8.5l-35.1-46.5
			C1034.4,1517.9,1027.3,1517.9,1024.4,1521.7L1024.4,1521.7z"/>
		
			<linearGradient id="SVGID_47_" gradientUnits="userSpaceOnUse" x1="983.4226" y1="1903.125" x2="1078.0774" y2="1903.125" gradientTransform="matrix(1 0 0 1 0 -354.6)">
			<stop  offset="0" style="stop-color:#00A8DE"/>
			<stop  offset="0.2" style="stop-color:#33368F"/>
			<stop  offset="0.4" style="stop-color:#E81989"/>
			<stop  offset="0.6" style="stop-color:#EA2F30"/>
			<stop  offset="0.8" style="stop-color:#FCE828"/>
			<stop  offset="1" style="stop-color:#009E54"/>
		</linearGradient>
		<path class="st49" d="M1023.8,1519.2l-38.6,52.3c-3.1,4.2,0.8,9.5,7,9.5h77.1c6.2,0,10.1-5.3,7-9.5l-38.5-52.3
			C1034.7,1515,1026.9,1515,1023.8,1519.2L1023.8,1519.2z"/>
		
			<linearGradient id="SVGID_48_" gradientUnits="userSpaceOnUse" x1="978.7456" y1="1903.9999" x2="1082.7676" y2="1903.9999" gradientTransform="matrix(1 0 0 1 0 -354.6)">
			<stop  offset="0" style="stop-color:#00A8DE"/>
			<stop  offset="0.2" style="stop-color:#33368F"/>
			<stop  offset="0.4" style="stop-color:#E81989"/>
			<stop  offset="0.6" style="stop-color:#EA2F30"/>
			<stop  offset="0.8" style="stop-color:#FCE828"/>
			<stop  offset="1" style="stop-color:#009E54"/>
		</linearGradient>
		<path class="st50" d="M1023.1,1516.5l-42.4,58.7c-3.4,4.8,0.9,10.7,7.7,10.7h84.7c6.9,0,11.1-5.9,7.7-10.7l-42.3-58.7
			C1035.1,1511.7,1026.5,1511.7,1023.1,1516.5L1023.1,1516.5z"/>
		
			<linearGradient id="SVGID_49_" gradientUnits="userSpaceOnUse" x1="973.6052" y1="1904.9749" x2="1088.0814" y2="1904.9749" gradientTransform="matrix(1 0 0 1 0 -354.6)">
			<stop  offset="0" style="stop-color:#00A8DE"/>
			<stop  offset="0.2" style="stop-color:#33368F"/>
			<stop  offset="0.4" style="stop-color:#E81989"/>
			<stop  offset="0.6" style="stop-color:#EA2F30"/>
			<stop  offset="0.8" style="stop-color:#FCE828"/>
			<stop  offset="1" style="stop-color:#009E54"/>
		</linearGradient>
		<path class="st51" d="M1022.3,1513.4l-46.5,66c-3.8,5.3,0.9,12,8.5,12h93.1c7.5,0,12.3-6.7,8.5-12l-46.5-66
			C1035.5,1508,1026.1,1508,1022.3,1513.4L1022.3,1513.4z"/>
		
			<linearGradient id="SVGID_50_" gradientUnits="userSpaceOnUse" x1="968.0098" y1="1906.0999" x2="1093.7321" y2="1906.0999" gradientTransform="matrix(1 0 0 1 0 -354.6)">
			<stop  offset="0" style="stop-color:#00A8DE"/>
			<stop  offset="0.2" style="stop-color:#33368F"/>
			<stop  offset="0.4" style="stop-color:#E81989"/>
			<stop  offset="0.6" style="stop-color:#EA2F30"/>
			<stop  offset="0.8" style="stop-color:#FCE828"/>
			<stop  offset="1" style="stop-color:#009E54"/>
		</linearGradient>
		<path class="st52" d="M1021.5,1509.9l-51.1,74.2c-4.1,6,1,13.5,9.3,13.5H1082c8.3,0,13.5-7.5,9.3-13.5l-51.2-74.2
			C1036,1503.9,1025.6,1503.9,1021.5,1509.9L1021.5,1509.9z"/>
		
			<linearGradient id="SVGID_51_" gradientUnits="userSpaceOnUse" x1="961.7639" y1="1907.3374" x2="1099.8778" y2="1907.3374" gradientTransform="matrix(1 0 0 1 0 -354.6)">
			<stop  offset="0" style="stop-color:#00A8DE"/>
			<stop  offset="0.2" style="stop-color:#33368F"/>
			<stop  offset="0.4" style="stop-color:#E81989"/>
			<stop  offset="0.6" style="stop-color:#EA2F30"/>
			<stop  offset="0.8" style="stop-color:#FCE828"/>
			<stop  offset="1" style="stop-color:#009E54"/>
		</linearGradient>
		<path class="st53" d="M1020.6,1506l-56.2,83.3c-4.5,6.8,1.1,15.2,10.2,15.2H1087c9.1,0,14.8-8.4,10.2-15.2L1041,1506
			C1036.5,1499.3,1025.1,1499.3,1020.6,1506L1020.6,1506z"/>
		
			<linearGradient id="SVGID_52_" gradientUnits="userSpaceOnUse" x1="954.7826" y1="1908.6499" x2="1106.7174" y2="1908.6499" gradientTransform="matrix(1 0 0 1 0 -354.6)">
			<stop  offset="0" style="stop-color:#00A8DE"/>
			<stop  offset="0.2" style="stop-color:#33368F"/>
			<stop  offset="0.4" style="stop-color:#E81989"/>
			<stop  offset="0.6" style="stop-color:#EA2F30"/>
			<stop  offset="0.8" style="stop-color:#FCE828"/>
			<stop  offset="1" style="stop-color:#009E54"/>
		</linearGradient>
		<path class="st54" d="M1019.5,1501.6l-61.8,93.6c-5,7.6,1.3,17,11.3,17h123.5c10,0,16.3-9.5,11.3-17l-61.8-93.6
			C1037,1494,1024.5,1494,1019.5,1501.6L1019.5,1501.6z"/>
		
			<linearGradient id="SVGID_53_" gradientUnits="userSpaceOnUse" x1="947.2729" y1="1910.3124" x2="1114.3271" y2="1910.3124" gradientTransform="matrix(1 0 0 1 0 -354.6)">
			<stop  offset="0" style="stop-color:#00A8DE"/>
			<stop  offset="0.2" style="stop-color:#33368F"/>
			<stop  offset="0.4" style="stop-color:#E81989"/>
			<stop  offset="0.6" style="stop-color:#EA2F30"/>
			<stop  offset="0.8" style="stop-color:#FCE828"/>
			<stop  offset="1" style="stop-color:#009E54"/>
		</linearGradient>
		<path class="st55" d="M1018.4,1496.7l-67.9,105.2c-5.5,8.5,1.4,19.2,12.4,19.2h135.8c11,0,17.9-10.7,12.4-19.2l-67.9-105.2
			C1037.7,1488.2,1023.9,1488.2,1018.4,1496.7L1018.4,1496.7z"/>
		
			<linearGradient id="SVGID_54_" gradientUnits="userSpaceOnUse" x1="939.0497" y1="1912.0499" x2="1122.5503" y2="1912.0499" gradientTransform="matrix(1 0 0 1 0 -354.6)">
			<stop  offset="0" style="stop-color:#00A8DE"/>
			<stop  offset="0.2" style="stop-color:#33368F"/>
			<stop  offset="0.4" style="stop-color:#E81989"/>
			<stop  offset="0.6" style="stop-color:#EA2F30"/>
			<stop  offset="0.8" style="stop-color:#FCE828"/>
			<stop  offset="1" style="stop-color:#009E54"/>
		</linearGradient>
		<path class="st56" d="M1017.2,1491.2l-74.6,118.2c-6,9.6,1.5,21.5,13.6,21.5h149.2c12.1,0,19.6-12,13.6-21.5l-74.6-118.2
			C1038.3,1481.6,1023.3,1481.6,1017.2,1491.2L1017.2,1491.2z"/>
		
			<linearGradient id="SVGID_55_" gradientUnits="userSpaceOnUse" x1="929.9845" y1="1913.9874" x2="1131.5707" y2="1913.9874" gradientTransform="matrix(1 0 0 1 0 -354.6)">
			<stop  offset="0" style="stop-color:#00A8DE"/>
			<stop  offset="0.2" style="stop-color:#33368F"/>
			<stop  offset="0.4" style="stop-color:#E81989"/>
			<stop  offset="0.6" style="stop-color:#EA2F30"/>
			<stop  offset="0.8" style="stop-color:#FCE828"/>
			<stop  offset="1" style="stop-color:#009E54"/>
		</linearGradient>
		<path class="st57" d="M1015.9,1484.9l-82,132.8c-6.6,10.8,1.7,24.2,14.9,24.2h163.9c13.3,0,21.6-13.4,14.9-24.2l-82-132.8
			C1039.1,1474.2,1022.5,1474.2,1015.9,1484.9L1015.9,1484.9z"/>
		
			<linearGradient id="SVGID_56_" gradientUnits="userSpaceOnUse" x1="919.9521" y1="1916.1998" x2="1141.548" y2="1916.1998" gradientTransform="matrix(1 0 0 1 0 -354.6)">
			<stop  offset="0" style="stop-color:#00A8DE"/>
			<stop  offset="0.2" style="stop-color:#33368F"/>
			<stop  offset="0.4" style="stop-color:#E81989"/>
			<stop  offset="0.6" style="stop-color:#EA2F30"/>
			<stop  offset="0.8" style="stop-color:#FCE828"/>
			<stop  offset="1" style="stop-color:#009E54"/>
		</linearGradient>
		<path class="st58" d="M1014.4,1477.9l-90.1,149.2c-7.3,12.1,1.8,27.2,16.4,27.2h180.1c14.6,0,23.7-15.1,16.4-27.2l-90.1-149.2
			C1039.9,1465.9,1021.7,1465.9,1014.4,1477.9L1014.4,1477.9z"/>
		
			<linearGradient id="SVGID_57_" gradientUnits="userSpaceOnUse" x1="909.0094" y1="1918.7" x2="1152.5907" y2="1918.7" gradientTransform="matrix(1 0 0 1 0 -354.6)">
			<stop  offset="0" style="stop-color:#00A8DE"/>
			<stop  offset="0.2" style="stop-color:#33368F"/>
			<stop  offset="0.4" style="stop-color:#E81989"/>
			<stop  offset="0.6" style="stop-color:#EA2F30"/>
			<stop  offset="0.8" style="stop-color:#FCE828"/>
			<stop  offset="1" style="stop-color:#009E54"/>
		</linearGradient>
		<path class="st59" d="M1012.8,1470.1l-99,167.7c-8,13.6,2,30.5,18,30.5h198c16,0,26-17,18-30.5l-99-167.7
			C1040.8,1456.5,1020.8,1456.5,1012.8,1470.1z"/>
		
			<linearGradient id="SVGID_58_" gradientUnits="userSpaceOnUse" x1="896.9078" y1="1921.4624" x2="1164.5922" y2="1921.4624" gradientTransform="matrix(1 0 0 1 0 -354.6)">
			<stop  offset="0" style="stop-color:#00A8DE"/>
			<stop  offset="0.2" style="stop-color:#33368F"/>
			<stop  offset="0.4" style="stop-color:#E81989"/>
			<stop  offset="0.6" style="stop-color:#EA2F30"/>
			<stop  offset="0.8" style="stop-color:#FCE828"/>
			<stop  offset="1" style="stop-color:#009E54"/>
		</linearGradient>
		<path class="st60" d="M1011,1461.3l-108.8,188.3c-8.8,15.3,2.2,34.3,19.8,34.3h217.5c17.6,0,28.6-19.1,19.8-34.3l-108.7-188.3
			C1041.8,1446,1019.8,1446,1011,1461.3L1011,1461.3z"/>
	</g>
</g>
<g id="Layer_4">
	<g>
		<path d="M1231.6,1495.6c0-0.3,0.1-0.5,0.4-0.8c0.2-0.2,0.5-0.4,0.8-0.4h164.5c11.4,0,21.1,4,29.2,12.1s12.1,17.8,12.1,29.2v14.5
			c0,11.5-4,21.3-12.1,29.3c-8.1,8.1-17.8,12.1-29.2,12.1h-136.7v46.4c0,0.4-0.1,0.7-0.4,0.9c-0.3,0.2-0.6,0.4-0.9,0.4h-26.5
			c-0.3,0-0.6-0.1-0.8-0.4c-0.2-0.3-0.4-0.6-0.4-0.9V1495.6L1231.6,1495.6z M1397.2,1566.9c3.4,0,6.3-1.2,8.7-3.7
			c2.4-2.5,3.6-5.4,3.6-8.8v-22.8c0-3.5-1.2-6.4-3.6-8.8s-5.3-3.6-8.7-3.6h-136.6v47.7L1397.2,1566.9L1397.2,1566.9z"/>
		<path d="M1688.9,1550.4c0,8.4-2.2,16-6.7,22.7c-4.4,6.7-10.3,11.7-17.7,15l0.6,1.2l23,48.4c0.1,0.4,0.1,0.8-0.1,1.2
			s-0.5,0.6-1,0.6h-29.4c-0.5,0-0.9-0.2-1.2-0.7l-22.3-46.8H1511v46.4c0,0.3-0.1,0.6-0.4,0.8s-0.6,0.4-0.9,0.4h-26.5
			c-0.3,0-0.6-0.1-0.8-0.4s-0.4-0.5-0.4-0.8v-142.7c0-0.4,0.1-0.7,0.4-0.9s0.5-0.4,0.8-0.4h164.5c11.4,0,21.1,4,29.2,12.1
			s12.1,17.8,12.1,29.3L1688.9,1550.4L1688.9,1550.4z M1511,1566.9h136.7c3.4,0,6.3-1.2,8.7-3.6c2.4-2.4,3.6-5.4,3.6-8.8v-22.8
			c0-3.4-1.2-6.3-3.6-8.7s-5.3-3.6-8.7-3.6H1511V1566.9L1511,1566.9z"/>
		<path d="M1918.8,1495.6c0-0.3,0.1-0.5,0.4-0.8c0.2-0.2,0.6-0.4,0.9-0.4h26.4c0.4,0,0.7,0.1,0.9,0.4s0.4,0.5,0.4,0.8v40.6
			c0,5.9-1.6,11.2-4.8,16c-3.2,4.8-7.5,8.3-12.9,10.7l-75.5,32v43.2c0,0.4-0.1,0.7-0.4,0.9s-0.5,0.4-0.8,0.4h-26.5
			c-0.4,0-0.7-0.1-0.9-0.4c-0.2-0.3-0.4-0.6-0.4-0.9v-43.2l-75.5-32c-5.4-2.3-9.7-5.9-12.9-10.7c-3.2-4.8-4.8-10.1-4.8-15.9v-40.6
			c0-0.3,0.1-0.5,0.4-0.8c0.2-0.2,0.6-0.4,0.9-0.4h26.5c0.3,0,0.6,0.1,0.8,0.4c0.2,0.2,0.4,0.5,0.4,0.8v34.8c0,5,2.6,8.8,7.7,11.5
			l71,29.8l71.2-29.8c5-2.6,7.5-6.4,7.5-11.5L1918.8,1495.6L1918.8,1495.6z"/>
		<path d="M2020.2,1542c0,3.5,1.2,6.4,3.6,8.8s5.3,3.6,8.7,3.6h124.3c11.4,0,21.1,4,29.2,12.1s12.1,17.8,12.1,29.3v2
			c0,11.4-4,21.2-12.1,29.3c-8.1,8.1-17.8,12.2-29.2,12.2h-156.2c-0.3,0-0.6-0.1-0.8-0.4c-0.2-0.3-0.4-0.6-0.4-0.9v-22.3
			c0-0.4,0.1-0.7,0.4-0.9s0.5-0.4,0.8-0.4h156.2c3.4,0,6.3-1.2,8.7-3.6s3.6-5.3,3.6-8.7v-10.4c0-3.4-1.2-6.3-3.6-8.8
			c-2.4-2.5-5.3-3.7-8.7-3.7h-124.3c-11.4,0-21.1-4-29.2-12.1s-12.1-17.8-12.1-29.2v-2.2c0-11.4,4-21.1,12.1-29.2
			s17.8-12.1,29.2-12.1h156.2c0.3,0,0.6,0.1,0.8,0.4c0.2,0.2,0.4,0.5,0.4,0.8v22.5c0,0.3-0.1,0.6-0.4,0.8c-0.3,0.2-0.5,0.4-0.8,0.4
			h-156.2c-3.4,0-6.3,1.2-8.7,3.6c-2.4,2.4-3.6,5.4-3.6,8.8L2020.2,1542L2020.2,1542z"/>
		<path d="M2457,1638c0,0.4-0.1,0.7-0.4,0.9c-0.2,0.2-0.6,0.4-0.9,0.4h-26.5c-0.3,0-0.6-0.1-0.8-0.4c-0.2-0.2-0.4-0.6-0.4-0.9
			v-118.8h-15.9c-5.3,0-9.2,2.8-11.7,8.4l-39.2,110.9c-0.2,0.6-0.6,0.9-1.2,0.9h-21.6c-0.5,0-0.9-0.3-1.2-0.9l-39-110.9
			c-2.6-5.6-6.5-8.4-11.7-8.4h-15.9V1638c0,0.4-0.1,0.7-0.4,0.9c-0.3,0.2-0.6,0.4-0.9,0.4h-26.5c-0.3,0-0.6-0.1-0.8-0.4
			s-0.4-0.6-0.4-0.9v-142.3c0-0.4,0.1-0.7,0.4-0.9c0.3-0.2,0.5-0.4,0.8-0.4h53.3c1,0,1.9,0,2.9,0.1c5.5,0.7,10.3,2.8,14.4,6.2
			c4.1,3.4,7.1,7.9,8.9,13.2l26.9,77.1l26.8-77.1c1.9-5.3,4.9-9.7,9.1-13.3c4.1-3.5,8.9-5.6,14.4-6.2c1-0.1,1.9-0.1,2.8-0.1h53.3
			c0.4,0,0.7,0.1,0.9,0.4c0.2,0.2,0.4,0.6,0.4,0.9L2457,1638L2457,1638z"/>
	</g>
</g>
</svg>
