<?xml version="1.0" encoding="UTF-8"?>
<svg xmlns="http://www.w3.org/2000/svg" xmlns:xlink="http://www.w3.org/1999/xlink" viewBox="0 0 2000 2000">
  <defs>
    <style>
      .cls-1 {
        stroke: url(#Spectrum_-21);
        stroke-width: .06px;
      }

      .cls-1, .cls-2, .cls-3, .cls-4, .cls-5, .cls-6, .cls-7, .cls-8, .cls-9, .cls-10, .cls-11, .cls-12, .cls-13, .cls-14, .cls-15, .cls-16, .cls-17, .cls-18, .cls-19, .cls-20, .cls-21, .cls-22, .cls-23, .cls-24, .cls-25, .cls-26, .cls-27, .cls-28, .cls-29, .cls-30, .cls-31, .cls-32, .cls-33, .cls-34, .cls-35, .cls-36, .cls-37, .cls-38, .cls-39, .cls-40, .cls-41, .cls-42, .cls-43, .cls-44, .cls-45, .cls-46, .cls-47, .cls-48, .cls-49, .cls-50, .cls-51, .cls-52, .cls-53, .cls-54, .cls-55, .cls-56, .cls-57, .cls-58, .cls-59, .cls-60, .cls-61 {
        fill: none;
        stroke-miterlimit: 10;
      }

      .cls-2 {
        stroke: url(#Spectrum_-10);
        stroke-width: .02px;
      }

      .cls-3 {
        stroke: url(#Spectrum_-51);
        stroke-width: 1.53px;
      }

      .cls-4 {
        stroke: url(#Spectrum_-44);
        stroke-width: .73px;
      }

      .cls-5 {
        stroke: url(#Spectrum_-33);
        stroke-width: .23px;
      }

      .cls-6 {
        stroke: url(#Spectrum_-53);
        stroke-width: 1.89px;
      }

      .cls-7 {
        stroke: url(#Spectrum_-59);
        stroke-width: 3.55px;
      }

      .cls-8 {
        stroke: url(#Spectrum_-17);
        stroke-width: .04px;
      }

      .cls-9 {
        stroke: url(#Spectrum_-4);
        stroke-width: .01px;
      }

      .cls-10 {
        stroke: url(#Spectrum_-18);
        stroke-width: .05px;
      }

      .cls-11 {
        stroke: url(#Spectrum_-50);
        stroke-width: 1.38px;
      }

      .cls-12 {
        stroke: url(#Spectrum_-40);
        stroke-width: .48px;
      }

      .cls-13 {
        stroke: url(#Spectrum_-52);
        stroke-width: 1.7px;
      }

      .cls-14 {
        stroke: url(#Spectrum_-47);
        stroke-width: 1px;
      }

      .cls-15 {
        stroke: url(#Spectrum_-2);
        stroke-width: 0px;
      }

      .cls-16 {
        stroke: url(#Spectrum_-60);
        stroke-width: 3.95px;
      }

      .cls-17 {
        stroke: url(#Spectrum_-39);
        stroke-width: .43px;
      }

      .cls-18 {
        stroke: url(#Spectrum_-42);
        stroke-width: .59px;
      }

      .cls-19 {
        stroke: url(#Spectrum_-36);
        stroke-width: .31px;
      }

      .cls-20 {
        stroke: url(#Spectrum_-46);
        stroke-width: .9px;
      }

      .cls-21 {
        stroke: url(#Spectrum_-34);
        stroke-width: .25px;
      }

      .cls-22 {
        stroke: url(#Spectrum_-29);
        stroke-width: .15px;
      }

      .cls-23 {
        stroke: url(#Spectrum_-16);
        stroke-width: .04px;
      }

      .cls-24 {
        stroke: url(#Spectrum_-25);
        stroke-width: .1px;
      }

      .cls-25 {
        stroke: url(#Spectrum_-28);
        stroke-width: .14px;
      }

      .cls-26 {
        stroke: url(#Spectrum_-6);
        stroke-width: .01px;
      }

      .cls-27 {
        stroke: url(#Spectrum_-30);
        stroke-width: .17px;
      }

      .cls-28 {
        stroke: url(#Spectrum_-20);
        stroke-width: .06px;
      }

      .cls-29 {
        stroke: url(#Spectrum_-8);
        stroke-width: .02px;
      }

      .cls-30 {
        stroke: url(#Spectrum_-11);
        stroke-width: .02px;
      }

      .cls-31 {
        stroke: url(#Spectrum_-35);
        stroke-width: .28px;
      }

      .cls-32 {
        stroke: url(#Spectrum_-14);
        stroke-width: .03px;
      }

      .cls-62 {
        fill: #fff;
        stroke-width: 0px;
      }

      .cls-33 {
        stroke: url(#Spectrum_-38);
        stroke-width: .39px;
      }

      .cls-34 {
        stroke: url(#Spectrum_-56);
        stroke-width: 2.59px;
      }

      .cls-35 {
        stroke: url(#Spectrum_-57);
        stroke-width: 2.88px;
      }

      .cls-36 {
        stroke: url(#Spectrum_-54);
        stroke-width: 2.1px;
      }

      .cls-37 {
        stroke: url(#Spectrum_-24);
        stroke-width: .09px;
      }

      .cls-38 {
        stroke: url(#Spectrum_-13);
        stroke-width: .03px;
      }

      .cls-39 {
        stroke: url(#Spectrum_-19);
        stroke-width: .05px;
      }

      .cls-40 {
        stroke: url(#Spectrum_-5);
        stroke-width: .01px;
      }

      .cls-41 {
        stroke: url(#Spectrum_-12);
        stroke-width: .03px;
      }

      .cls-42 {
        stroke: url(#Spectrum_-32);
        stroke-width: .21px;
      }

      .cls-43 {
        stroke: url(#Spectrum_-3);
        stroke-width: 0px;
      }

      .cls-44 {
        stroke: url(#Spectrum_-48);
        stroke-width: 1.11px;
      }

      .cls-45 {
        stroke: url(#Spectrum_);
        stroke-width: 0px;
      }

      .cls-46 {
        stroke: url(#Spectrum_-23);
        stroke-width: .08px;
      }

      .cls-47 {
        stroke: url(#Spectrum_-15);
        stroke-width: .03px;
      }

      .cls-48 {
        stroke: url(#Spectrum_-7);
        stroke-width: .01px;
      }

      .cls-49 {
        stroke: url(#Spectrum_-49);
        stroke-width: 1.24px;
      }

      .cls-50 {
        stroke: url(#Spectrum_-41);
        stroke-width: .53px;
      }

      .cls-51 {
        stroke: url(#Spectrum_-61);
        stroke-width: 4.39px;
      }

      .cls-52 {
        stroke: url(#Spectrum_-27);
        stroke-width: .12px;
      }

      .cls-53 {
        stroke: url(#Spectrum_-55);
        stroke-width: 2.33px;
      }

      .cls-54 {
        stroke: url(#Spectrum_-9);
        stroke-width: .02px;
      }

      .cls-55 {
        stroke: url(#Spectrum_-31);
        stroke-width: .19px;
      }

      .cls-56 {
        stroke: url(#Spectrum_-45);
        stroke-width: .81px;
      }

      .cls-57 {
        stroke: url(#Spectrum_-58);
        stroke-width: 3.2px;
      }

      .cls-58 {
        stroke: url(#Spectrum_-22);
        stroke-width: .07px;
      }

      .cls-59 {
        stroke: url(#Spectrum_-43);
        stroke-width: .66px;
      }

      .cls-60 {
        stroke: url(#Spectrum_-37);
        stroke-width: .35px;
      }

      .cls-61 {
        stroke: url(#Spectrum_-26);
        stroke-width: .11px;
      }
    </style>
    <linearGradient id="Spectrum_" data-name="Spectrum " x1="331.33" y1="936.02" x2="332.26" y2="936.02" gradientUnits="userSpaceOnUse">
      <stop offset="0" stop-color="#00a8de"/>
      <stop offset=".2" stop-color="#33368f"/>
      <stop offset=".4" stop-color="#e81989"/>
      <stop offset=".6" stop-color="#ea2f30"/>
      <stop offset=".8" stop-color="#fce828"/>
      <stop offset="1" stop-color="#009e54"/>
    </linearGradient>
    <linearGradient id="Spectrum_-2" data-name="Spectrum " x1="331.29" y1="936.02" x2="332.3" y2="936.02" xlink:href="#Spectrum_"/>
    <linearGradient id="Spectrum_-3" data-name="Spectrum " x1="331.24" y1="936.02" x2="332.35" y2="936.02" xlink:href="#Spectrum_"/>
    <linearGradient id="Spectrum_-4" data-name="Spectrum " x1="331.18" y1="936.03" x2="332.41" y2="936.03" xlink:href="#Spectrum_"/>
    <linearGradient id="Spectrum_-5" data-name="Spectrum " x1="331.12" y1="936.03" x2="332.47" y2="936.03" xlink:href="#Spectrum_"/>
    <linearGradient id="Spectrum_-6" data-name="Spectrum " x1="331.05" y1="936.04" x2="332.54" y2="936.04" xlink:href="#Spectrum_"/>
    <linearGradient id="Spectrum_-7" data-name="Spectrum " x1="330.98" y1="936.04" x2="332.61" y2="936.04" xlink:href="#Spectrum_"/>
    <linearGradient id="Spectrum_-8" data-name="Spectrum " x1="330.9" y1="936.05" x2="332.69" y2="936.05" xlink:href="#Spectrum_"/>
    <linearGradient id="Spectrum_-9" data-name="Spectrum " x1="330.81" y1="936.05" x2="332.78" y2="936.05" xlink:href="#Spectrum_"/>
    <linearGradient id="Spectrum_-10" data-name="Spectrum " x1="330.71" y1="936.06" x2="332.88" y2="936.06" xlink:href="#Spectrum_"/>
    <linearGradient id="Spectrum_-11" data-name="Spectrum " x1="330.6" y1="936.07" x2="332.99" y2="936.07" xlink:href="#Spectrum_"/>
    <linearGradient id="Spectrum_-12" data-name="Spectrum " x1="330.49" y1="936.08" x2="333.1" y2="936.08" xlink:href="#Spectrum_"/>
    <linearGradient id="Spectrum_-13" data-name="Spectrum " x1="330.36" y1="936.09" x2="333.23" y2="936.09" xlink:href="#Spectrum_"/>
    <linearGradient id="Spectrum_-14" data-name="Spectrum " x1="330.21" y1="936.1" x2="333.37" y2="936.1" xlink:href="#Spectrum_"/>
    <linearGradient id="Spectrum_-15" data-name="Spectrum " x1="330.06" y1="936.11" x2="333.53" y2="936.11" xlink:href="#Spectrum_"/>
    <linearGradient id="Spectrum_-16" data-name="Spectrum " x1="329.89" y1="936.13" x2="333.7" y2="936.13" xlink:href="#Spectrum_"/>
    <linearGradient id="Spectrum_-17" data-name="Spectrum " x1="329.7" y1="936.14" x2="333.89" y2="936.14" xlink:href="#Spectrum_"/>
    <linearGradient id="Spectrum_-18" data-name="Spectrum " x1="329.49" y1="936.16" x2="334.1" y2="936.16" xlink:href="#Spectrum_"/>
    <linearGradient id="Spectrum_-19" data-name="Spectrum " x1="329.26" y1="936.18" x2="334.33" y2="936.18" xlink:href="#Spectrum_"/>
    <linearGradient id="Spectrum_-20" data-name="Spectrum " x1="329.01" y1="936.21" x2="334.58" y2="936.21" xlink:href="#Spectrum_"/>
    <linearGradient id="Spectrum_-21" data-name="Spectrum " x1="328.73" y1="936.23" x2="334.86" y2="936.23" xlink:href="#Spectrum_"/>
    <linearGradient id="Spectrum_-22" data-name="Spectrum " x1="328.43" y1="936.26" x2="335.16" y2="936.26" xlink:href="#Spectrum_"/>
    <linearGradient id="Spectrum_-23" data-name="Spectrum " x1="328.1" y1="936.3" x2="335.49" y2="936.3" xlink:href="#Spectrum_"/>
    <linearGradient id="Spectrum_-24" data-name="Spectrum " x1="327.73" y1="936.33" x2="335.86" y2="936.33" xlink:href="#Spectrum_"/>
    <linearGradient id="Spectrum_-25" data-name="Spectrum " x1="327.33" y1="936.38" x2="336.26" y2="936.38" xlink:href="#Spectrum_"/>
    <linearGradient id="Spectrum_-26" data-name="Spectrum " x1="326.89" y1="936.42" x2="336.7" y2="936.42" xlink:href="#Spectrum_"/>
    <linearGradient id="Spectrum_-27" data-name="Spectrum " x1="326.4" y1="936.48" x2="337.19" y2="936.48" xlink:href="#Spectrum_"/>
    <linearGradient id="Spectrum_-28" data-name="Spectrum " x1="325.87" y1="936.54" x2="337.72" y2="936.54" xlink:href="#Spectrum_"/>
    <linearGradient id="Spectrum_-29" data-name="Spectrum " x1="325.28" y1="936.6" x2="338.31" y2="936.6" xlink:href="#Spectrum_"/>
    <linearGradient id="Spectrum_-30" data-name="Spectrum " x1="324.63" y1="936.68" x2="338.95" y2="936.68" xlink:href="#Spectrum_"/>
    <linearGradient id="Spectrum_-31" data-name="Spectrum " x1="323.93" y1="936.76" x2="339.66" y2="936.76" xlink:href="#Spectrum_"/>
    <linearGradient id="Spectrum_-32" data-name="Spectrum " x1="323.15" y1="936.86" x2="340.44" y2="936.86" xlink:href="#Spectrum_"/>
    <linearGradient id="Spectrum_-33" data-name="Spectrum " x1="322.29" y1="936.97" x2="341.3" y2="936.97" xlink:href="#Spectrum_"/>
    <linearGradient id="Spectrum_-34" data-name="Spectrum " x1="321.35" y1="937.09" x2="342.24" y2="937.09" xlink:href="#Spectrum_"/>
    <linearGradient id="Spectrum_-35" data-name="Spectrum " x1="320.31" y1="937.22" x2="343.28" y2="937.22" xlink:href="#Spectrum_"/>
    <linearGradient id="Spectrum_-36" data-name="Spectrum " x1="319.18" y1="937.37" x2="344.41" y2="937.37" xlink:href="#Spectrum_"/>
    <linearGradient id="Spectrum_-37" data-name="Spectrum " x1="317.93" y1="937.54" x2="345.66" y2="937.54" xlink:href="#Spectrum_"/>
    <linearGradient id="Spectrum_-38" data-name="Spectrum " x1="316.55" y1="937.73" x2="347.04" y2="937.73" xlink:href="#Spectrum_"/>
    <linearGradient id="Spectrum_-39" data-name="Spectrum " x1="315.04" y1="937.95" x2="348.55" y2="937.95" xlink:href="#Spectrum_"/>
    <linearGradient id="Spectrum_-40" data-name="Spectrum " x1="313.38" y1="938.19" x2="350.21" y2="938.19" xlink:href="#Spectrum_"/>
    <linearGradient id="Spectrum_-41" data-name="Spectrum " x1="311.56" y1="938.46" x2="352.03" y2="938.46" xlink:href="#Spectrum_"/>
    <linearGradient id="Spectrum_-42" data-name="Spectrum " x1="309.56" y1="938.77" x2="354.03" y2="938.77" xlink:href="#Spectrum_"/>
    <linearGradient id="Spectrum_-43" data-name="Spectrum " x1="307.35" y1="939.11" x2="356.24" y2="939.11" xlink:href="#Spectrum_"/>
    <linearGradient id="Spectrum_-44" data-name="Spectrum " x1="304.93" y1="939.5" x2="358.66" y2="939.5" xlink:href="#Spectrum_"/>
    <linearGradient id="Spectrum_-45" data-name="Spectrum " x1="302.27" y1="939.93" x2="361.32" y2="939.93" xlink:href="#Spectrum_"/>
    <linearGradient id="Spectrum_-46" data-name="Spectrum " x1="299.34" y1="940.42" x2="364.25" y2="940.42" xlink:href="#Spectrum_"/>
    <linearGradient id="Spectrum_-47" data-name="Spectrum " x1="296.13" y1="940.96" x2="367.46" y2="940.96" xlink:href="#Spectrum_"/>
    <linearGradient id="Spectrum_-48" data-name="Spectrum " x1="292.6" y1="941.58" x2="370.99" y2="941.58" xlink:href="#Spectrum_"/>
    <linearGradient id="Spectrum_-49" data-name="Spectrum " x1="288.71" y1="942.27" x2="374.88" y2="942.27" xlink:href="#Spectrum_"/>
    <linearGradient id="Spectrum_-50" data-name="Spectrum " x1="284.44" y1="943.04" x2="379.15" y2="943.04" xlink:href="#Spectrum_"/>
    <linearGradient id="Spectrum_-51" data-name="Spectrum " x1="279.75" y1="943.91" x2="383.84" y2="943.91" xlink:href="#Spectrum_"/>
    <linearGradient id="Spectrum_-52" data-name="Spectrum " x1="274.6" y1="944.89" x2="388.99" y2="944.89" xlink:href="#Spectrum_"/>
    <linearGradient id="Spectrum_-53" data-name="Spectrum " x1="268.93" y1="945.99" x2="394.66" y2="945.99" xlink:href="#Spectrum_"/>
    <linearGradient id="Spectrum_-54" data-name="Spectrum " x1="262.7" y1="947.22" x2="400.89" y2="947.22" xlink:href="#Spectrum_"/>
    <linearGradient id="Spectrum_-55" data-name="Spectrum " x1="255.85" y1="948.61" x2="407.74" y2="948.61" xlink:href="#Spectrum_"/>
    <linearGradient id="Spectrum_-56" data-name="Spectrum " x1="248.33" y1="950.17" x2="415.26" y2="950.17" xlink:href="#Spectrum_"/>
    <linearGradient id="Spectrum_-57" data-name="Spectrum " x1="240.06" y1="951.92" x2="423.53" y2="951.92" xlink:href="#Spectrum_"/>
    <linearGradient id="Spectrum_-58" data-name="Spectrum " x1="230.97" y1="953.89" x2="432.62" y2="953.89" xlink:href="#Spectrum_"/>
    <linearGradient id="Spectrum_-59" data-name="Spectrum " x1="220.97" y1="956.11" x2="442.62" y2="956.11" xlink:href="#Spectrum_"/>
    <linearGradient id="Spectrum_-60" data-name="Spectrum " x1="209.99" y1="958.59" x2="453.6" y2="958.59" xlink:href="#Spectrum_"/>
    <linearGradient id="Spectrum_-61" data-name="Spectrum " x1="197.92" y1="961.38" x2="465.67" y2="961.38" xlink:href="#Spectrum_"/>
  </defs>
  <g id="Layer_3" data-name="Layer 3">
    <g>
      <path class="cls-45" d="M331.73,935.92l-.38.17s0,.03.07.03h.76c.06,0,.1-.02.07-.03l-.38-.17s-.11-.01-.14,0Z"/>
      <path class="cls-15" d="M331.72,935.91l-.42.19s0,.04.08.04h.83c.07,0,.11-.02.08-.04l-.42-.19s-.12-.02-.15,0Z"/>
      <path class="cls-43" d="M331.71,935.9l-.46.22s0,.04.08.04h.92c.07,0,.12-.02.08-.04l-.46-.22s-.13-.02-.17,0Z"/>
      <path class="cls-9" d="M331.7,935.89l-.5.25s.01.04.09.04h1.01c.08,0,.13-.02.09-.04l-.5-.25s-.14-.02-.18,0Z"/>
      <path class="cls-40" d="M331.69,935.88l-.55.28s.01.05.1.05h1.11c.09,0,.15-.03.1-.05l-.55-.28s-.16-.02-.2,0Z"/>
      <path class="cls-26" d="M331.68,935.86l-.61.31s.01.06.11.06h1.22c.1,0,.16-.03.11-.06l-.61-.31s-.17-.03-.22,0Z"/>
      <path class="cls-48" d="M331.67,935.85l-.67.35c-.05.03.01.06.12.06h1.34c.11,0,.18-.04.12-.06l-.67-.35c-.05-.03-.19-.03-.24,0Z"/>
      <path class="cls-29" d="M331.66,935.83l-.73.39c-.06.03.01.07.13.07h1.47c.12,0,.19-.04.13-.07l-.73-.39c-.06-.03-.21-.03-.27,0Z"/>
      <path class="cls-54" d="M331.65,935.81l-.81.44c-.07.04.02.08.15.08h1.61c.13,0,.21-.04.15-.08l-.81-.44c-.07-.04-.23-.04-.29,0Z"/>
      <path class="cls-2" d="M331.63,935.78l-.89.49c-.07.04.02.09.16.09h1.77c.14,0,.23-.05.16-.09l-.89-.49c-.07-.04-.25-.04-.32,0Z"/>
      <path class="cls-30" d="M331.62,935.76l-.97.56c-.08.04.02.1.18.1h1.95c.16,0,.26-.06.18-.1l-.97-.56c-.08-.04-.28-.04-.35,0Z"/>
      <path class="cls-41" d="M331.6,935.73l-1.07.62c-.09.05.02.11.19.11h2.14c.17,0,.28-.06.19-.11l-1.07-.62c-.09-.05-.3-.05-.39,0Z"/>
      <path class="cls-38" d="M331.58,935.7l-1.18.7c-.1.06.02.13.21.13h2.35c.19,0,.31-.07.21-.13l-1.18-.7c-.1-.06-.33-.06-.43,0Z"/>
      <path class="cls-32" d="M331.56,935.66l-1.29.79c-.1.06.03.14.24.14h2.59c.21,0,.34-.08.24-.14l-1.29-.79c-.1-.06-.37-.06-.47,0Z"/>
      <path class="cls-47" d="M331.54,935.62l-1.42.89c-.11.07.03.16.26.16h2.84c.23,0,.37-.09.26-.16l-1.42-.89c-.11-.07-.4-.07-.52,0Z"/>
      <path class="cls-23" d="M331.51,935.57l-1.56.99c-.13.08.03.18.28.18h3.12c.25,0,.41-.1.28-.18l-1.56-.99c-.13-.08-.44-.08-.57,0Z"/>
      <path class="cls-8" d="M331.48,935.52l-1.72,1.12c-.14.09.03.2.31.2h3.43c.28,0,.45-.11.31-.2l-1.72-1.12c-.14-.09-.49-.09-.62,0Z"/>
      <path class="cls-10" d="M331.45,935.46l-1.88,1.26c-.15.1.04.23.34.23h3.77c.31,0,.5-.13.34-.23l-1.88-1.26c-.15-.1-.53-.1-.69,0Z"/>
      <path class="cls-39" d="M331.42,935.39l-2.07,1.41c-.17.11.04.26.38.26h4.14c.34,0,.54-.14.38-.26l-2.07-1.41c-.17-.11-.59-.11-.75,0Z"/>
      <path class="cls-28" d="M331.38,935.32l-2.28,1.59c-.18.13.05.29.41.29h4.55c.37,0,.6-.16.41-.29l-2.28-1.59c-.18-.13-.64-.13-.83,0Z"/>
      <path class="cls-1" d="M331.34,935.24l-2.5,1.78c-.2.14.05.32.46.32h5c.4,0,.66-.18.46-.32l-2.5-1.78c-.2-.14-.71-.14-.91,0Z"/>
      <path class="cls-58" d="M331.29,935.14l-2.75,2c-.22.16.06.36.5.36h5.5c.45,0,.72-.2.5-.36l-2.75-2c-.22-.16-.78-.16-1,0Z"/>
      <path class="cls-46" d="M331.24,935.04l-3.02,2.25c-.24.18.06.41.55.41h6.04c.49,0,.79-.23.55-.41l-3.02-2.25c-.24-.18-.86-.18-1.1,0Z"/>
      <path class="cls-37" d="M331.19,934.92l-3.32,2.53c-.27.2.07.46.6.46h6.64c.54,0,.87-.26.6-.46l-3.32-2.53c-.27-.2-.94-.2-1.21,0Z"/>
      <path class="cls-24" d="M331.13,934.79l-3.65,2.84c-.3.23.07.52.66.52h7.29c.59,0,.96-.29.66-.52l-3.65-2.84c-.3-.23-1.03-.23-1.33,0Z"/>
      <path class="cls-61" d="M331.06,934.64l-4.01,3.19c-.32.26.08.58.73.58h8.02c.65,0,1.05-.32.73-.58l-4.01-3.19c-.32-.26-1.14-.26-1.46,0Z"/>
      <path class="cls-52" d="M330.99,934.47l-4.4,3.58c-.36.29.09.65.8.65h8.81c.71,0,1.16-.36.8-.65l-4.4-3.58c-.36-.29-1.25-.29-1.6,0Z"/>
      <path class="cls-25" d="M330.91,934.28l-4.84,4.03c-.39.33.1.73.88.73h9.68c.78,0,1.27-.41.88-.73l-4.84-4.03c-.39-.33-1.37-.33-1.76,0Z"/>
      <path class="cls-22" d="M330.83,934.07l-5.32,4.52c-.43.37.11.82.97.82h10.64c.86,0,1.4-.46.97-.82l-5.32-4.52c-.43-.37-1.51-.37-1.94,0Z"/>
      <path class="cls-27" d="M330.73,933.83l-5.84,5.08c-.47.41.12.93,1.06.93h11.69c.95,0,1.54-.51,1.06-.93l-5.84-5.08c-.47-.41-1.66-.41-2.13,0Z"/>
      <path class="cls-55" d="M330.62,933.56l-6.42,5.71c-.52.46.13,1.04,1.17,1.04h12.85c1.04,0,1.69-.58,1.17-1.04l-6.42-5.71c-.52-.46-1.82-.46-2.34,0Z"/>
      <path class="cls-42" d="M330.51,933.26l-7.06,6.42c-.57.52.14,1.17,1.29,1.17h14.12c1.14,0,1.86-.65,1.29-1.17l-7.06-6.42c-.57-.52-2-.52-2.57,0Z"/>
      <path class="cls-5" d="M330.38,932.92l-7.76,7.21c-.63.58.16,1.31,1.41,1.31h15.51c1.26,0,2.04-.73,1.41-1.31l-7.76-7.21c-.63-.58-2.2-.58-2.83,0Z"/>
      <path class="cls-21" d="M330.24,932.54l-8.52,8.1c-.69.66.17,1.48,1.55,1.48h17.05c1.38,0,2.24-.82,1.55-1.48l-8.52-8.1c-.69-.66-2.42-.66-3.11,0Z"/>
      <path class="cls-31" d="M330.09,932.12l-9.37,9.1c-.76.74.19,1.66,1.71,1.66h18.73c1.52,0,2.46-.92,1.71-1.66l-9.37-9.1c-.76-.74-2.65-.74-3.41,0Z"/>
      <path class="cls-19" d="M329.92,931.64l-10.29,10.23c-.83.83.21,1.86,1.87,1.86h20.59c1.67,0,2.71-1.04,1.87-1.86l-10.29-10.23c-.83-.83-2.92-.83-3.75,0Z"/>
      <path class="cls-60" d="M329.73,931.1l-11.31,11.49c-.92.93.23,2.09,2.06,2.09h22.62c1.83,0,2.98-1.16,2.06-2.09l-11.31-11.49c-.92-.93-3.2-.93-4.12,0Z"/>
      <path class="cls-33" d="M329.53,930.49l-12.43,12.91c-1.01,1.05.25,2.35,2.26,2.35h24.86c2.01,0,3.27-1.31,2.26-2.35l-12.43-12.91c-1.01-1.05-3.52-1.05-4.53,0Z"/>
      <path class="cls-17" d="M329.31,929.81l-13.66,14.51c-1.11,1.17.28,2.64,2.49,2.64h27.32c2.21,0,3.59-1.47,2.49-2.64l-13.66-14.51c-1.11-1.17-3.87-1.17-4.98,0Z"/>
      <path class="cls-12" d="M329.06,929.05l-15.01,16.3c-1.22,1.32.3,2.97,2.73,2.97h30.02c2.43,0,3.95-1.65,2.73-2.97l-15.01-16.3c-1.22-1.32-4.25-1.32-5.47,0Z"/>
      <path class="cls-50" d="M328.79,928.19l-16.49,18.32c-1.34,1.48.33,3.34,3,3.34h32.99c2.67,0,4.34-1.85,3-3.34l-16.49-18.32c-1.34-1.48-4.67-1.48-6.01,0Z"/>
      <path class="cls-18" d="M328.49,927.23l-18.13,20.58c-1.47,1.67.37,3.75,3.3,3.75h36.25c2.93,0,4.77-2.08,3.3-3.75l-18.13-20.58c-1.47-1.67-5.14-1.67-6.6,0Z"/>
      <path class="cls-59" d="M328.17,926.14l-19.92,23.12c-1.61,1.87.4,4.21,3.63,4.21h39.84c3.23,0,5.24-2.34,3.63-4.21l-19.92-23.12c-1.61-1.87-5.64-1.87-7.26,0Z"/>
      <path class="cls-4" d="M327.81,924.93l-21.89,25.98c-1.77,2.1.44,4.73,3.99,4.73h43.78c3.54,0,5.76-2.63,3.99-4.73l-21.89-25.98c-1.77-2.1-6.2-2.1-7.97,0Z"/>
      <path class="cls-56" d="M327.41,923.56l-24.05,29.19c-1.95,2.36.49,5.32,4.38,5.32h48.11c3.89,0,6.33-2.95,4.38-5.32l-24.05-29.19c-1.95-2.36-6.82-2.36-8.76,0Z"/>
      <path class="cls-20" d="M326.98,922.02l-26.43,32.8c-2.14,2.66.53,5.98,4.81,5.98h52.86c4.28,0,6.95-3.32,4.81-5.98l-26.43-32.8c-2.14-2.66-7.49-2.66-9.63,0Z"/>
      <path class="cls-14" d="M326.5,920.3l-29.05,36.86c-2.35,2.98.59,6.71,5.29,6.71h58.09c4.7,0,7.64-3.73,5.29-6.71l-29.05-36.86c-2.35-2.98-8.23-2.98-10.58,0Z"/>
      <path class="cls-44" d="M325.98,918.35l-31.92,41.41c-2.58,3.35.65,7.54,5.81,7.54h63.84c5.17,0,8.4-4.19,5.81-7.54l-31.92-41.41c-2.58-3.35-9.04-3.35-11.63,0Z"/>
      <path class="cls-49" d="M325.41,916.17l-35.07,46.53c-2.84,3.77.71,8.48,6.39,8.48h70.15c5.68,0,9.23-4.71,6.39-8.48l-35.07-46.53c-2.84-3.77-9.94-3.77-12.78,0Z"/>
      <path class="cls-11" d="M324.77,913.73l-38.54,52.28c-3.12,4.23.78,9.52,7.02,9.52h77.09c6.24,0,10.14-5.29,7.02-9.52l-38.54-52.28c-3.12-4.23-10.92-4.23-14.04,0Z"/>
      <path class="cls-3" d="M324.08,910.97l-42.36,58.74c-3.43,4.76.86,10.7,7.72,10.7h84.71c6.86,0,11.14-5.94,7.72-10.7l-42.36-58.74c-3.43-4.76-12-4.76-15.43,0Z"/>
      <path class="cls-13" d="M323.32,907.88l-46.54,66c-3.77,5.34.94,12.02,8.48,12.02h93.09c7.54,0,12.25-6.68,8.48-12.02l-46.54-66c-3.77-5.34-13.19-5.34-16.96,0Z"/>
      <path class="cls-6" d="M322.48,904.41l-51.15,74.16c-4.14,6,1.04,13.51,9.32,13.51h102.3c8.28,0,13.46-7.51,9.32-13.51l-51.15-74.16c-4.14-6-14.49-6-18.63,0Z"/>
      <path class="cls-36" d="M321.56,900.5l-56.21,83.33c-4.55,6.75,1.14,15.18,10.24,15.18h112.41c9.1,0,14.79-8.43,10.24-15.18l-56.21-83.33c-4.55-6.75-15.93-6.75-20.48,0Z"/>
      <path class="cls-53" d="M320.54,896.11l-61.77,93.63c-5,7.58,1.25,17.05,11.25,17.05h123.53c10,0,16.25-9.47,11.25-17.05l-61.77-93.63c-5-7.58-17.5-7.58-22.5,0Z"/>
      <path class="cls-34" d="M319.43,891.19l-67.87,105.2c-5.5,8.52,1.37,19.16,12.36,19.16h135.75c10.99,0,17.86-10.65,12.36-19.16l-67.87-105.2c-5.5-8.52-19.23-8.52-24.73,0Z"/>
      <path class="cls-35" d="M318.21,885.65l-74.59,118.2c-6.04,9.57,1.51,21.53,13.59,21.53h149.17c12.08,0,19.63-11.96,13.59-21.53l-74.59-118.2c-6.04-9.57-21.13-9.57-27.17,0Z"/>
      <path class="cls-57" d="M316.86,879.42l-81.96,132.81c-6.64,10.75,1.66,24.19,14.93,24.19h163.93c13.27,0,21.57-13.44,14.93-24.19l-81.96-132.81c-6.64-10.75-23.23-10.75-29.86,0Z"/>
      <path class="cls-7" d="M315.39,872.43l-90.07,149.22c-7.29,12.08,1.82,27.18,16.41,27.18h180.14c14.58,0,23.7-15.1,16.41-27.18l-90.07-149.22c-7.29-12.08-25.52-12.08-32.81,0Z"/>
      <path class="cls-16" d="M313.76,864.58l-98.98,167.67c-8.01,13.57,2,30.54,18.03,30.54h197.96c16.03,0,26.04-16.97,18.03-30.54l-98.98-167.67c-8.01-13.57-28.05-13.57-36.06,0Z"/>
      <path class="cls-51" d="M311.98,855.75l-108.77,188.39c-8.81,15.25,2.2,34.32,19.81,34.32h217.53c17.61,0,28.62-19.06,19.81-34.32l-108.77-188.39c-8.81-15.25-30.82-15.25-39.63,0Z"/>
    </g>
  </g>
  <g id="Layer_4" data-name="Layer 4">
    <g>
      <path class="cls-62" d="M532.59,890.09c0-.29.12-.55.36-.8.24-.24.51-.36.8-.36h164.48c11.4,0,21.13,4.03,29.2,12.1,8.07,8.07,12.1,17.8,12.1,29.2v14.49c0,11.5-4.03,21.28-12.1,29.34-8.07,8.07-17.8,12.1-29.2,12.1h-136.65v46.37c0,.39-.12.7-.36.94-.24.24-.56.36-.94.36h-26.52c-.29,0-.56-.12-.8-.36-.24-.24-.36-.55-.36-.94v-142.45ZM698.23,961.38c3.38,0,6.28-1.23,8.69-3.69,2.41-2.46,3.62-5.38,3.62-8.77v-22.75c0-3.48-1.21-6.42-3.62-8.84-2.42-2.41-5.31-3.62-8.69-3.62h-136.65v47.68h136.65Z"/>
      <path class="cls-62" d="M989.94,944.86c0,8.4-2.22,15.97-6.67,22.68-4.44,6.72-10.34,11.72-17.68,15l.58,1.16,23.04,48.4c.1.39.05.77-.14,1.16-.19.39-.53.58-1.01.58h-29.42c-.48,0-.87-.24-1.16-.72l-22.32-46.81h-123.18v46.37c0,.29-.12.56-.36.8-.24.24-.56.36-.94.36h-26.52c-.29,0-.56-.12-.8-.36-.24-.24-.36-.51-.36-.8v-142.45c0-.38.12-.7.36-.94.24-.24.51-.36.8-.36h164.48c11.4,0,21.13,4.03,29.2,12.1,8.07,8.07,12.1,17.85,12.1,29.35v14.49ZM811.99,961.38h136.65c3.38,0,6.28-1.21,8.69-3.62,2.41-2.41,3.62-5.36,3.62-8.84v-22.75c0-3.38-1.21-6.28-3.62-8.69-2.42-2.41-5.31-3.62-8.69-3.62h-136.65v47.53Z"/>
      <path class="cls-62" d="M1219.77,890.09c0-.29.12-.55.36-.8.24-.24.56-.36.94-.36h26.37c.38,0,.7.12.94.36.24.24.36.51.36.8v40.58c0,5.89-1.59,11.23-4.78,16.01-3.19,4.78-7.49,8.33-12.9,10.65l-75.5,32.03v43.18c0,.39-.12.7-.36.94s-.51.36-.8.36h-26.52c-.39,0-.7-.12-.94-.36-.24-.24-.36-.55-.36-.94v-43.18l-75.5-32.03c-5.41-2.32-9.71-5.89-12.9-10.72-3.19-4.83-4.78-10.14-4.78-15.94v-40.58c0-.29.12-.55.36-.8.24-.24.55-.36.94-.36h26.52c.29,0,.55.12.8.36.24.24.36.51.36.8v34.92c0,5.02,2.56,8.84,7.68,11.45l71.01,29.85,71.15-29.85c5.02-2.61,7.54-6.42,7.54-11.45v-34.92Z"/>
      <path class="cls-62" d="M1321.21,936.46c0,3.48,1.21,6.43,3.62,8.84,2.41,2.42,5.31,3.62,8.69,3.62h124.34c11.4,0,21.13,4.03,29.2,12.1,8.06,8.07,12.1,17.85,12.1,29.35v2.03c0,11.4-4.03,21.16-12.1,29.27-8.07,8.12-17.8,12.17-29.2,12.17h-156.22c-.29,0-.56-.12-.8-.36-.24-.24-.36-.55-.36-.94v-22.32c0-.38.12-.7.36-.94s.51-.36.8-.36h156.22c3.38,0,6.28-1.21,8.69-3.62s3.62-5.31,3.62-8.69v-10.43c0-3.38-1.21-6.3-3.62-8.77-2.42-2.46-5.31-3.7-8.69-3.7h-124.34c-11.4,0-21.13-4.03-29.2-12.1-8.07-8.06-12.1-17.8-12.1-29.2v-2.17c0-11.4,4.03-21.13,12.1-29.2,8.07-8.06,17.8-12.1,29.2-12.1h156.22c.29,0,.55.12.8.36.24.24.36.51.36.8v22.46c0,.29-.12.56-.36.8-.24.24-.51.36-.8.36h-156.22c-3.38,0-6.28,1.21-8.69,3.62s-3.62,5.36-3.62,8.84v10.29Z"/>
      <path class="cls-62" d="M1757.98,1032.54c0,.39-.12.7-.36.94-.24.24-.56.36-.94.36h-26.52c-.29,0-.56-.12-.8-.36-.24-.24-.36-.55-.36-.94v-118.83h-15.94c-5.31,0-9.23,2.8-11.74,8.4l-39.13,110.86c-.2.58-.58.87-1.16.87h-21.59c-.48,0-.87-.29-1.16-.87l-38.98-110.86c-2.61-5.6-6.52-8.4-11.74-8.4h-15.94v118.83c0,.39-.12.7-.36.94-.24.24-.56.36-.94.36h-26.52c-.29,0-.56-.12-.8-.36-.24-.24-.36-.55-.36-.94v-142.3c0-.38.12-.7.36-.94.24-.24.51-.36.8-.36h53.33c.96,0,1.93.05,2.9.14,5.51.68,10.31,2.75,14.42,6.23,4.11,3.48,7.08,7.88,8.91,13.19l26.95,77.09,26.81-77.09c1.93-5.31,4.95-9.73,9.06-13.26,4.1-3.52,8.91-5.58,14.42-6.16.96-.09,1.88-.14,2.75-.14h53.33c.38,0,.7.12.94.36.24.24.36.56.36.94v142.3Z"/>
    </g>
  </g>
</svg>