<?xml version="1.0" encoding="UTF-8"?>
<svg xmlns="http://www.w3.org/2000/svg" xmlns:xlink="http://www.w3.org/1999/xlink" viewBox="0 0 2000 2000">
  <defs>
    <style>
      .cls-1 {
        stroke: url(#Spectrum_-15);
        stroke-width: .06px;
      }

      .cls-1, .cls-2, .cls-3, .cls-4, .cls-5, .cls-6, .cls-7, .cls-8, .cls-9, .cls-10, .cls-11, .cls-12, .cls-13, .cls-14, .cls-15, .cls-16, .cls-17, .cls-18, .cls-19, .cls-20, .cls-21, .cls-22, .cls-23, .cls-24, .cls-25, .cls-26, .cls-27, .cls-28, .cls-29, .cls-30, .cls-31, .cls-32, .cls-33, .cls-34, .cls-35, .cls-36, .cls-37, .cls-38, .cls-39, .cls-40, .cls-41, .cls-42, .cls-43, .cls-44, .cls-45, .cls-46, .cls-47, .cls-48, .cls-49, .cls-50, .cls-51, .cls-52, .cls-53, .cls-54, .cls-55, .cls-56, .cls-57, .cls-58, .cls-59, .cls-60, .cls-61 {
        fill: none;
        stroke-miterlimit: 10;
      }

      .cls-2 {
        stroke: url(#Spectrum_-58);
        stroke-width: 5.39px;
      }

      .cls-3 {
        stroke: url(#Spectrum_-17);
        stroke-width: .07px;
      }

      .cls-4 {
        stroke: url(#Spectrum_-12);
        stroke-width: .04px;
      }

      .cls-5 {
        stroke: url(#Spectrum_-30);
        stroke-width: .28px;
      }

      .cls-6 {
        stroke: url(#Spectrum_-24);
        stroke-width: .15px;
      }

      .cls-7 {
        stroke: url(#Spectrum_-14);
        stroke-width: .05px;
      }

      .cls-8 {
        stroke: url(#Spectrum_-25);
        stroke-width: .17px;
      }

      .cls-9 {
        stroke: url(#Spectrum_-10);
        stroke-width: .03px;
      }

      .cls-10 {
        stroke: url(#Spectrum_-20);
        stroke-width: .1px;
      }

      .cls-11 {
        stroke: url(#Spectrum_-8);
        stroke-width: .03px;
      }

      .cls-12 {
        stroke: url(#Spectrum_-6);
        stroke-width: .02px;
      }

      .cls-13 {
        stroke: url(#Spectrum_-26);
        stroke-width: .18px;
      }

      .cls-14 {
        stroke: url(#Spectrum_-38);
        stroke-width: .65px;
      }

      .cls-15 {
        stroke: url(#Spectrum_-43);
        stroke-width: 1.11px;
      }

      .cls-16 {
        stroke: url(#Spectrum_-3);
        stroke-width: .02px;
      }

      .cls-17 {
        stroke: url(#Spectrum_-22);
        stroke-width: .12px;
      }

      .cls-18 {
        stroke: url(#Spectrum_-53);
        stroke-width: 3.18px;
      }

      .cls-19 {
        stroke: url(#Spectrum_-56);
        stroke-width: 4.37px;
      }

      .cls-20 {
        stroke: url(#Spectrum_-16);
        stroke-width: .06px;
      }

      .cls-21 {
        stroke: url(#Spectrum_);
        stroke-width: .01px;
      }

      .cls-22 {
        stroke: url(#Spectrum_-41);
        stroke-width: .9px;
      }

      .cls-23 {
        stroke: url(#Spectrum_-4);
        stroke-width: .02px;
      }

      .cls-24 {
        stroke: url(#Spectrum_-29);
        stroke-width: .25px;
      }

      .cls-25 {
        stroke: url(#Spectrum_-33);
        stroke-width: .39px;
      }

      .cls-26 {
        stroke: url(#Spectrum_-28);
        stroke-width: .23px;
      }

      .cls-27 {
        stroke: url(#Spectrum_-13);
        stroke-width: .05px;
      }

      .cls-28 {
        stroke: url(#Spectrum_-44);
        stroke-width: 1.23px;
      }

      .cls-29 {
        stroke: url(#Spectrum_-59);
        stroke-width: 5.99px;
      }

      .cls-30 {
        stroke: url(#Spectrum_-21);
        stroke-width: .11px;
      }

      .cls-31 {
        stroke: url(#Spectrum_-36);
        stroke-width: .53px;
      }

      .cls-32 {
        stroke: url(#Spectrum_-47);
        stroke-width: 1.69px;
      }

      .cls-33 {
        stroke: url(#Spectrum_-31);
        stroke-width: .31px;
      }

      .cls-34 {
        stroke: url(#Spectrum_-54);
        stroke-width: 3.54px;
      }

      .cls-35 {
        stroke: url(#Spectrum_-2);
        stroke-width: .01px;
      }

      .cls-36 {
        stroke: url(#Spectrum_-49);
        stroke-width: 2.09px;
      }

      .cls-37 {
        stroke: url(#Spectrum_-48);
        stroke-width: 1.88px;
      }

      .cls-38 {
        stroke: url(#Spectrum_-5);
        stroke-width: .02px;
      }

      .cls-39 {
        stroke: url(#Spectrum_-19);
        stroke-width: .09px;
      }

      .cls-62 {
        fill: #231f20;
        stroke-width: 0px;
      }

      .cls-40 {
        stroke: url(#Spectrum_-18);
        stroke-width: .08px;
      }

      .cls-41 {
        stroke: url(#Spectrum_-23);
        stroke-width: .13px;
      }

      .cls-42 {
        stroke: url(#Spectrum_-57);
        stroke-width: 4.85px;
      }

      .cls-43 {
        stroke: url(#Spectrum_-27);
        stroke-width: .21px;
      }

      .cls-44 {
        stroke: url(#Spectrum_-45);
        stroke-width: 1.37px;
      }

      .cls-45 {
        stroke: url(#Spectrum_-37);
        stroke-width: .59px;
      }

      .cls-46 {
        stroke: url(#Spectrum_-32);
        stroke-width: .35px;
      }

      .cls-47 {
        stroke: url(#Spectrum_-52);
        stroke-width: 2.87px;
      }

      .cls-48 {
        stroke: url(#Spectrum_-50);
        stroke-width: 2.32px;
      }

      .cls-49 {
        stroke: url(#Spectrum_-40);
        stroke-width: .81px;
      }

      .cls-50 {
        stroke: url(#Spectrum_-42);
        stroke-width: 1px;
      }

      .cls-51 {
        stroke: url(#Spectrum_-34);
        stroke-width: .43px;
      }

      .cls-52 {
        stroke: url(#Spectrum_-9);
        stroke-width: .03px;
      }

      .cls-53 {
        stroke: url(#Spectrum_-55);
        stroke-width: 3.93px;
      }

      .cls-54 {
        stroke: url(#Spectrum_-11);
        stroke-width: .04px;
      }

      .cls-55 {
        stroke: url(#Spectrum_-46);
        stroke-width: 1.52px;
      }

      .cls-56 {
        stroke: url(#Spectrum_-51);
        stroke-width: 2.58px;
      }

      .cls-57 {
        stroke: url(#Spectrum_-7);
        stroke-width: .02px;
      }

      .cls-58 {
        stroke: url(#Spectrum_-35);
        stroke-width: .48px;
      }

      .cls-59 {
        stroke: url(#Spectrum_-61);
        stroke-width: 7.4px;
      }

      .cls-60 {
        stroke: url(#Spectrum_-39);
        stroke-width: .73px;
      }

      .cls-61 {
        stroke: url(#Spectrum_-60);
        stroke-width: 6.66px;
      }
    </style>
    <linearGradient id="Spectrum_" data-name="Spectrum " x1="380.53" y1="957.23" x2="382.1" y2="957.23" gradientUnits="userSpaceOnUse">
      <stop offset="0" stop-color="#00a8de"/>
      <stop offset=".2" stop-color="#33368f"/>
      <stop offset=".4" stop-color="#e81989"/>
      <stop offset=".6" stop-color="#ea2f30"/>
      <stop offset=".8" stop-color="#fce828"/>
      <stop offset="1" stop-color="#009e54"/>
    </linearGradient>
    <linearGradient id="Spectrum_-2" data-name="Spectrum " x1="380.46" y1="957.24" x2="382.17" y2="957.24" xlink:href="#Spectrum_"/>
    <linearGradient id="Spectrum_-3" data-name="Spectrum " x1="380.37" y1="957.24" x2="382.26" y2="957.24" xlink:href="#Spectrum_"/>
    <linearGradient id="Spectrum_-4" data-name="Spectrum " x1="380.28" y1="957.25" x2="382.35" y2="957.25" xlink:href="#Spectrum_"/>
    <linearGradient id="Spectrum_-5" data-name="Spectrum " x1="380.18" y1="957.25" x2="382.45" y2="957.25" xlink:href="#Spectrum_"/>
    <linearGradient id="Spectrum_-6" data-name="Spectrum " x1="380.06" y1="957.26" x2="382.57" y2="957.26" xlink:href="#Spectrum_"/>
    <linearGradient id="Spectrum_-7" data-name="Spectrum " x1="379.94" y1="957.27" x2="382.69" y2="957.27" xlink:href="#Spectrum_"/>
    <linearGradient id="Spectrum_-8" data-name="Spectrum " x1="379.8" y1="957.28" x2="382.83" y2="957.28" xlink:href="#Spectrum_"/>
    <linearGradient id="Spectrum_-9" data-name="Spectrum " x1="379.65" y1="957.29" x2="382.98" y2="957.29" xlink:href="#Spectrum_"/>
    <linearGradient id="Spectrum_-10" data-name="Spectrum " x1="379.49" y1="957.3" x2="383.14" y2="957.3" xlink:href="#Spectrum_"/>
    <linearGradient id="Spectrum_-11" data-name="Spectrum " x1="379.31" y1="957.32" x2="383.32" y2="957.32" xlink:href="#Spectrum_"/>
    <linearGradient id="Spectrum_-12" data-name="Spectrum " x1="379.11" y1="957.33" x2="383.52" y2="957.33" xlink:href="#Spectrum_"/>
    <linearGradient id="Spectrum_-13" data-name="Spectrum " x1="378.89" y1="957.35" x2="383.74" y2="957.35" xlink:href="#Spectrum_"/>
    <linearGradient id="Spectrum_-14" data-name="Spectrum " x1="378.65" y1="957.37" x2="383.98" y2="957.37" xlink:href="#Spectrum_"/>
    <linearGradient id="Spectrum_-15" data-name="Spectrum " x1="378.39" y1="957.39" x2="384.24" y2="957.39" xlink:href="#Spectrum_"/>
    <linearGradient id="Spectrum_-16" data-name="Spectrum " x1="378.1" y1="957.42" x2="384.53" y2="957.42" xlink:href="#Spectrum_"/>
    <linearGradient id="Spectrum_-17" data-name="Spectrum " x1="377.78" y1="957.45" x2="384.85" y2="957.45" xlink:href="#Spectrum_"/>
    <linearGradient id="Spectrum_-18" data-name="Spectrum " x1="377.43" y1="957.48" x2="385.2" y2="957.48" xlink:href="#Spectrum_"/>
    <linearGradient id="Spectrum_-19" data-name="Spectrum " x1="377.04" y1="957.51" x2="385.59" y2="957.51" xlink:href="#Spectrum_"/>
    <linearGradient id="Spectrum_-20" data-name="Spectrum " x1="376.62" y1="957.55" x2="386.01" y2="957.55" xlink:href="#Spectrum_"/>
    <linearGradient id="Spectrum_-21" data-name="Spectrum " x1="376.16" y1="957.6" x2="386.48" y2="957.6" xlink:href="#Spectrum_"/>
    <linearGradient id="Spectrum_-22" data-name="Spectrum " x1="375.64" y1="957.65" x2="386.99" y2="957.65" xlink:href="#Spectrum_"/>
    <linearGradient id="Spectrum_-23" data-name="Spectrum " x1="375.08" y1="957.7" x2="387.55" y2="957.7" xlink:href="#Spectrum_"/>
    <linearGradient id="Spectrum_-24" data-name="Spectrum " x1="374.47" y1="957.77" x2="388.17" y2="957.77" xlink:href="#Spectrum_"/>
    <linearGradient id="Spectrum_-25" data-name="Spectrum " x1="373.79" y1="957.84" x2="388.84" y2="957.84" xlink:href="#Spectrum_"/>
    <linearGradient id="Spectrum_-26" data-name="Spectrum " x1="373.04" y1="957.92" x2="389.59" y2="957.92" xlink:href="#Spectrum_"/>
    <linearGradient id="Spectrum_-27" data-name="Spectrum " x1="372.22" y1="958.01" x2="390.41" y2="958.01" xlink:href="#Spectrum_"/>
    <linearGradient id="Spectrum_-28" data-name="Spectrum " x1="371.32" y1="958.11" x2="391.31" y2="958.11" xlink:href="#Spectrum_"/>
    <linearGradient id="Spectrum_-29" data-name="Spectrum " x1="370.33" y1="958.22" x2="392.3" y2="958.22" xlink:href="#Spectrum_"/>
    <linearGradient id="Spectrum_-30" data-name="Spectrum " x1="369.24" y1="958.35" x2="393.39" y2="958.35" xlink:href="#Spectrum_"/>
    <linearGradient id="Spectrum_-31" data-name="Spectrum " x1="368.05" y1="958.49" x2="394.58" y2="958.49" xlink:href="#Spectrum_"/>
    <linearGradient id="Spectrum_-32" data-name="Spectrum " x1="366.73" y1="958.65" x2="395.9" y2="958.65" xlink:href="#Spectrum_"/>
    <linearGradient id="Spectrum_-33" data-name="Spectrum " x1="365.29" y1="958.83" x2="397.34" y2="958.83" xlink:href="#Spectrum_"/>
    <linearGradient id="Spectrum_-34" data-name="Spectrum " x1="363.7" y1="959.03" x2="398.93" y2="959.03" xlink:href="#Spectrum_"/>
    <linearGradient id="Spectrum_-35" data-name="Spectrum " x1="361.96" y1="959.26" x2="400.67" y2="959.26" xlink:href="#Spectrum_"/>
    <linearGradient id="Spectrum_-36" data-name="Spectrum " x1="360.04" y1="959.52" x2="402.59" y2="959.52" xlink:href="#Spectrum_"/>
    <linearGradient id="Spectrum_-37" data-name="Spectrum " x1="357.93" y1="959.8" x2="404.7" y2="959.8" xlink:href="#Spectrum_"/>
    <linearGradient id="Spectrum_-38" data-name="Spectrum " x1="355.62" y1="960.13" x2="407.01" y2="960.13" xlink:href="#Spectrum_"/>
    <linearGradient id="Spectrum_-39" data-name="Spectrum " x1="353.07" y1="960.49" x2="409.56" y2="960.49" xlink:href="#Spectrum_"/>
    <linearGradient id="Spectrum_-40" data-name="Spectrum " x1="350.27" y1="960.9" x2="412.36" y2="960.9" xlink:href="#Spectrum_"/>
    <linearGradient id="Spectrum_-41" data-name="Spectrum " x1="347.2" y1="961.35" x2="415.43" y2="961.35" xlink:href="#Spectrum_"/>
    <linearGradient id="Spectrum_-42" data-name="Spectrum " x1="343.82" y1="961.87" x2="418.81" y2="961.87" xlink:href="#Spectrum_"/>
    <linearGradient id="Spectrum_-43" data-name="Spectrum " x1="340.1" y1="962.45" x2="422.53" y2="962.45" xlink:href="#Spectrum_"/>
    <linearGradient id="Spectrum_-44" data-name="Spectrum " x1="336.02" y1="963.1" x2="426.61" y2="963.1" xlink:href="#Spectrum_"/>
    <linearGradient id="Spectrum_-45" data-name="Spectrum " x1="331.53" y1="963.83" x2="431.1" y2="963.83" xlink:href="#Spectrum_"/>
    <linearGradient id="Spectrum_-46" data-name="Spectrum " x1="326.6" y1="964.65" x2="436.03" y2="964.65" xlink:href="#Spectrum_"/>
    <linearGradient id="Spectrum_-47" data-name="Spectrum " x1="321.18" y1="965.57" x2="441.45" y2="965.57" xlink:href="#Spectrum_"/>
    <linearGradient id="Spectrum_-48" data-name="Spectrum " x1="315.22" y1="966.6" x2="447.41" y2="966.6" xlink:href="#Spectrum_"/>
    <linearGradient id="Spectrum_-49" data-name="Spectrum " x1="308.67" y1="967.76" x2="453.96" y2="967.76" xlink:href="#Spectrum_"/>
    <linearGradient id="Spectrum_-50" data-name="Spectrum " x1="301.48" y1="969.07" x2="461.15" y2="969.07" xlink:href="#Spectrum_"/>
    <linearGradient id="Spectrum_-51" data-name="Spectrum " x1="293.57" y1="970.54" x2="469.06" y2="970.54" xlink:href="#Spectrum_"/>
    <linearGradient id="Spectrum_-52" data-name="Spectrum " x1="284.87" y1="972.19" x2="477.76" y2="972.19" xlink:href="#Spectrum_"/>
    <linearGradient id="Spectrum_-53" data-name="Spectrum " x1="275.32" y1="974.04" x2="487.31" y2="974.04" xlink:href="#Spectrum_"/>
    <linearGradient id="Spectrum_-54" data-name="Spectrum " x1="264.81" y1="976.13" x2="497.82" y2="976.13" xlink:href="#Spectrum_"/>
    <linearGradient id="Spectrum_-55" data-name="Spectrum " x1="253.27" y1="978.47" x2="509.36" y2="978.47" xlink:href="#Spectrum_"/>
    <linearGradient id="Spectrum_-56" data-name="Spectrum " x1="240.58" y1="981.1" x2="522.05" y2="981.1" xlink:href="#Spectrum_"/>
    <linearGradient id="Spectrum_-57" data-name="Spectrum " x1="226.64" y1="984.05" x2="535.99" y2="984.05" xlink:href="#Spectrum_"/>
    <linearGradient id="Spectrum_-58" data-name="Spectrum " x1="211.31" y1="987.37" x2="551.32" y2="987.37" xlink:href="#Spectrum_"/>
    <linearGradient id="Spectrum_-59" data-name="Spectrum " x1="194.46" y1="991.1" x2="568.17" y2="991.1" xlink:href="#Spectrum_"/>
    <linearGradient id="Spectrum_-60" data-name="Spectrum " x1="175.95" y1="995.29" x2="586.68" y2="995.29" xlink:href="#Spectrum_"/>
    <linearGradient id="Spectrum_-61" data-name="Spectrum " x1="155.59" y1="1000" x2="607.04" y2="1000" xlink:href="#Spectrum_"/>
  </defs>
  <g id="Layer_3" data-name="Layer 3">
    <g>
      <path class="cls-21" d="M381.2,957.07l-.64.29c-.05.02.01.05.12.05h1.28c.1,0,.17-.03.12-.05l-.64-.29c-.05-.02-.18-.02-.23,0Z"/>
      <path class="cls-35" d="M381.19,957.05l-.7.33c-.06.03.01.06.13.06h1.41c.11,0,.18-.03.13-.06l-.7-.33c-.06-.03-.2-.03-.26,0Z"/>
      <path class="cls-16" d="M381.17,957.03l-.77.37c-.06.03.02.07.14.07h1.54c.13,0,.2-.04.14-.07l-.77-.37c-.06-.03-.22-.03-.28,0Z"/>
      <path class="cls-23" d="M381.16,957.01l-.85.41c-.07.03.02.08.15.08h1.7c.14,0,.22-.04.15-.08l-.85-.41c-.07-.03-.24-.03-.31,0Z"/>
      <path class="cls-38" d="M381.15,956.99l-.93.47c-.08.04.02.08.17.08h1.87c.15,0,.25-.05.17-.08l-.93-.47c-.08-.04-.26-.04-.34,0Z"/>
      <path class="cls-12" d="M381.13,956.97l-1.02.52c-.08.04.02.1.19.1h2.05c.17,0,.27-.05.19-.1l-1.02-.52c-.08-.04-.29-.04-.37,0Z"/>
      <path class="cls-57" d="M381.11,956.94l-1.13.59c-.09.05.02.11.21.11h2.25c.18,0,.3-.06.21-.11l-1.13-.59c-.09-.05-.32-.05-.41,0Z"/>
      <path class="cls-11" d="M381.09,956.91l-1.24.66c-.1.05.03.12.23.12h2.48c.2,0,.33-.07.23-.12l-1.24-.66c-.1-.05-.35-.05-.45,0Z"/>
      <path class="cls-52" d="M381.07,956.88l-1.36.74c-.11.06.03.14.25.14h2.72c.22,0,.36-.08.25-.14l-1.36-.74c-.11-.06-.39-.06-.5,0Z"/>
      <path class="cls-9" d="M381.04,956.84l-1.49.83c-.12.07.03.15.27.15h2.99c.24,0,.39-.08.27-.15l-1.49-.83c-.12-.07-.42-.07-.54,0Z"/>
      <path class="cls-54" d="M381.02,956.79l-1.64.94c-.13.08.03.17.3.17h3.28c.27,0,.43-.09.3-.17l-1.64-.94c-.13-.08-.47-.08-.6,0Z"/>
      <path class="cls-4" d="M380.99,956.74l-1.8,1.05c-.15.09.04.19.33.19h3.61c.29,0,.47-.11.33-.19l-1.8-1.05c-.15-.09-.51-.09-.66,0Z"/>
      <path class="cls-27" d="M380.95,956.69l-1.98,1.18c-.16.1.04.22.36.22h3.97c.32,0,.52-.12.36-.22l-1.98-1.18c-.16-.1-.56-.1-.72,0Z"/>
      <path class="cls-7" d="M380.92,956.63l-2.18,1.33c-.18.11.04.24.4.24h4.36c.35,0,.57-.13.4-.24l-2.18-1.33c-.18-.11-.62-.11-.79,0Z"/>
      <path class="cls-1" d="M380.88,956.56l-2.39,1.49c-.19.12.05.27.44.27h4.79c.39,0,.63-.15.44-.27l-2.39-1.49c-.19-.12-.68-.12-.87,0Z"/>
      <path class="cls-20" d="M380.84,956.48l-2.63,1.68c-.21.14.05.31.48.31h5.26c.43,0,.69-.17.48-.31l-2.63-1.68c-.21-.14-.75-.14-.96,0Z"/>
      <path class="cls-3" d="M380.79,956.39l-2.89,1.88c-.23.15.06.34.53.34h5.78c.47,0,.76-.19.53-.34l-2.89-1.88c-.23-.15-.82-.15-1.05,0Z"/>
      <path class="cls-40" d="M380.74,956.29l-3.18,2.12c-.26.17.06.39.58.39h6.36c.51,0,.84-.21.58-.39l-3.18-2.12c-.26-.17-.9-.17-1.16,0Z"/>
      <path class="cls-39" d="M380.68,956.18l-3.49,2.38c-.28.19.07.43.64.43h6.98c.57,0,.92-.24.64-.43l-3.49-2.38c-.28-.19-.99-.19-1.27,0Z"/>
      <path class="cls-10" d="M380.62,956.05l-3.84,2.67c-.31.22.08.49.7.49h7.68c.62,0,1.01-.27.7-.49l-3.84-2.67c-.31-.22-1.09-.22-1.4,0Z"/>
      <path class="cls-30" d="M380.55,955.91l-4.22,3c-.34.24.09.55.77.55h8.43c.68,0,1.11-.3.77-.55l-4.22-3c-.34-.24-1.19-.24-1.54,0Z"/>
      <path class="cls-17" d="M380.47,955.75l-4.63,3.37c-.38.27.09.61.84.61h9.27c.75,0,1.22-.34.84-.61l-4.63-3.37c-.38-.27-1.31-.27-1.69,0Z"/>
      <path class="cls-41" d="M380.39,955.58l-5.09,3.79c-.41.31.1.69.93.69h10.19c.82,0,1.34-.38.93-.69l-5.09-3.79c-.41-.31-1.44-.31-1.86,0Z"/>
      <path class="cls-6" d="M380.3,955.38l-5.6,4.26c-.45.34.11.78,1.02.78h11.19c.91,0,1.47-.43,1.02-.78l-5.6-4.26c-.45-.34-1.59-.34-2.04,0Z"/>
      <path class="cls-8" d="M380.2,955.15l-6.15,4.79c-.5.39.12.87,1.12.87h12.3c1,0,1.62-.48,1.12-.87l-6.15-4.79c-.5-.39-1.74-.39-2.24,0Z"/>
      <path class="cls-13" d="M380.08,954.9l-6.76,5.38c-.55.44.14.98,1.23.98h13.52c1.09,0,1.78-.54,1.23-.98l-6.76-5.38c-.55-.44-1.91-.44-2.46,0Z"/>
      <path class="cls-43" d="M379.96,954.62l-7.43,6.04c-.6.49.15,1.1,1.35,1.1h14.85c1.2,0,1.95-.61,1.35-1.1l-7.43-6.04c-.6-.49-2.1-.49-2.71,0Z"/>
      <path class="cls-26" d="M379.83,954.3l-8.16,6.79c-.66.55.17,1.24,1.49,1.24h16.32c1.32,0,2.15-.69,1.49-1.24l-8.16-6.79c-.66-.55-2.31-.55-2.97,0Z"/>
      <path class="cls-24" d="M379.68,953.94l-8.97,7.63c-.73.62.18,1.39,1.63,1.39h17.94c1.45,0,2.36-.77,1.63-1.39l-8.97-7.63c-.73-.62-2.54-.62-3.27,0Z"/>
      <path class="cls-5" d="M379.52,953.54l-9.86,8.57c-.8.69.2,1.56,1.8,1.56h19.71c1.6,0,2.59-.87,1.8-1.56l-9.86-8.57c-.8-.69-2.79-.69-3.59,0Z"/>
      <path class="cls-33" d="M379.34,953.09l-10.83,9.63c-.88.78.22,1.75,1.97,1.75h21.66c1.75,0,2.85-.97,1.97-1.75l-10.83-9.63c-.88-.78-3.07-.78-3.95,0Z"/>
      <path class="cls-46" d="M379.15,952.58l-11.9,10.82c-.96.88.24,1.97,2.17,1.97h23.8c1.93,0,3.13-1.1,2.17-1.97l-11.9-10.82c-.96-.88-3.37-.88-4.34,0Z"/>
      <path class="cls-25" d="M378.93,952.01l-13.08,12.16c-1.06.98.26,2.21,2.38,2.21h26.16c2.12,0,3.44-1.23,2.38-2.21l-13.08-12.16c-1.06-.98-3.71-.98-4.76,0Z"/>
      <path class="cls-51" d="M378.7,951.37l-14.37,13.66c-1.16,1.11.29,2.49,2.62,2.49h28.74c2.33,0,3.78-1.38,2.62-2.49l-14.37-13.66c-1.16-1.11-4.07-1.11-5.24,0Z"/>
      <path class="cls-58" d="M378.44,950.65l-15.79,15.35c-1.28,1.24.32,2.8,2.88,2.8h31.58c2.56,0,4.16-1.55,2.88-2.8l-15.79-15.35c-1.28-1.24-4.47-1.24-5.75,0Z"/>
      <path class="cls-31" d="M378.15,949.85l-17.35,17.25c-1.41,1.4.35,3.14,3.16,3.14h34.71c2.81,0,4.57-1.75,3.16-3.14l-17.35-17.25c-1.41-1.4-4.92-1.4-6.32,0Z"/>
      <path class="cls-45" d="M377.84,948.94l-19.07,19.38c-1.54,1.57.39,3.53,3.47,3.53h38.14c3.09,0,5.02-1.96,3.47-3.53l-19.07-19.38c-1.54-1.57-5.4-1.57-6.95,0Z"/>
      <path class="cls-14" d="M377.5,947.92l-20.96,21.77c-1.7,1.76.42,3.97,3.82,3.97h41.91c3.39,0,5.51-2.2,3.82-3.97l-20.96-21.77c-1.7-1.76-5.94-1.76-7.63,0Z"/>
      <path class="cls-60" d="M377.12,946.77l-23.03,24.46c-1.86,1.98.47,4.46,4.2,4.46h46.06c3.73,0,6.06-2.48,4.2-4.46l-23.03-24.46c-1.86-1.98-6.53-1.98-8.39,0Z"/>
      <path class="cls-49" d="M376.71,945.48l-25.31,27.49c-2.05,2.23.51,5.01,4.61,5.01h50.61c4.1,0,6.66-2.78,4.61-5.01l-25.31-27.49c-2.05-2.23-7.17-2.23-9.22,0Z"/>
      <path class="cls-22" d="M376.25,944.04l-27.81,30.88c-2.25,2.5.56,5.63,5.07,5.63h55.62c4.5,0,7.32-3.13,5.07-5.63l-27.81-30.88c-2.25-2.5-7.88-2.5-10.13,0Z"/>
      <path class="cls-50" d="M375.75,942.41l-30.56,34.7c-2.47,2.81.62,6.32,5.57,6.32h61.12c4.95,0,8.04-3.51,5.57-6.32l-30.56-34.7c-2.47-2.81-8.66-2.81-11.13,0Z"/>
      <path class="cls-15" d="M375.2,940.58l-33.58,38.99c-2.72,3.16.68,7.1,6.12,7.1h67.17c5.44,0,8.84-3.95,6.12-7.1l-33.58-38.99c-2.72-3.16-9.52-3.16-12.23,0Z"/>
      <path class="cls-28" d="M374.59,938.53l-36.9,43.81c-2.99,3.55.75,7.98,6.72,7.98h73.81c5.98,0,9.71-4.43,6.72-7.98l-36.9-43.81c-2.99-3.55-10.46-3.55-13.44,0Z"/>
      <path class="cls-44" d="M373.93,936.22l-40.55,49.22c-3.28,3.99.82,8.97,7.39,8.97h81.11c6.57,0,10.67-4.98,7.39-8.97l-40.55-49.22c-3.28-3.99-11.49-3.99-14.77,0Z"/>
      <path class="cls-55" d="M373.2,933.63l-44.57,55.31c-3.61,4.48.9,10.07,8.12,10.07h89.13c7.22,0,11.73-5.6,8.12-10.07l-44.57-55.31c-3.61-4.48-12.63-4.48-16.24,0Z"/>
      <path class="cls-32" d="M372.39,930.72l-48.97,62.14c-3.96,5.03.99,11.32,8.92,11.32h97.95c7.93,0,12.89-6.29,8.92-11.32l-48.97-62.14c-3.96-5.03-13.88-5.03-17.84,0Z"/>
      <path class="cls-37" d="M371.51,927.45l-53.82,69.82c-4.36,5.65,1.09,12.72,9.8,12.72h107.63c8.71,0,14.16-7.07,9.8-12.72l-53.82-69.82c-4.36-5.65-15.25-5.65-19.61,0Z"/>
      <path class="cls-36" d="M370.54,923.77l-59.14,78.45c-4.79,6.35,1.2,14.29,10.77,14.29h118.28c9.58,0,15.56-7.94,10.77-14.29l-59.14-78.45c-4.79-6.35-16.76-6.35-21.55,0Z"/>
      <path class="cls-48" d="M369.48,919.64l-64.99,88.15c-5.26,7.14,1.32,16.06,11.84,16.06h129.97c10.52,0,17.1-8.92,11.84-16.06l-64.99-88.15c-5.26-7.14-18.41-7.14-23.68,0Z"/>
      <path class="cls-56" d="M368.31,915l-71.41,99.05c-5.78,8.02,1.45,18.04,13.01,18.04h142.83c11.56,0,18.79-10.02,13.01-18.04l-71.41-99.05c-5.78-8.02-20.24-8.02-26.02,0Z"/>
      <path class="cls-47" d="M367.02,909.79l-78.48,111.29c-6.35,9.01,1.59,20.27,14.3,20.27h156.96c12.71,0,20.65-11.26,14.3-20.27l-78.48-111.29c-6.35-9.01-22.24-9.01-28.59,0Z"/>
      <path class="cls-18" d="M365.61,903.93l-86.24,125.04c-6.98,10.12,1.75,22.78,15.71,22.78h172.48c13.96,0,22.69-12.65,15.71-22.78l-86.24-125.04c-6.98-10.12-24.44-10.12-31.42,0Z"/>
      <path class="cls-34" d="M364.05,897.35l-94.77,140.5c-7.67,11.37,1.92,25.59,17.26,25.59h189.54c15.34,0,24.94-14.22,17.26-25.59l-94.77-140.5c-7.67-11.37-26.85-11.37-34.53,0Z"/>
      <path class="cls-53" d="M362.35,889.95l-104.14,157.86c-8.43,12.78,2.11,28.76,18.97,28.76h208.28c16.86,0,27.4-15.98,18.97-28.76l-104.14-157.86c-8.43-12.78-29.51-12.78-37.94,0Z"/>
      <path class="cls-19" d="M360.47,881.64l-114.44,177.37c-9.27,14.36,2.32,32.31,20.85,32.31h228.88c18.53,0,30.11-17.95,20.85-32.31l-114.44-177.37c-9.27-14.36-32.43-14.36-41.69,0Z"/>
      <path class="cls-42" d="M358.41,872.3l-125.76,199.29c-10.18,16.13,2.55,36.3,22.91,36.3h251.52c20.36,0,33.09-20.17,22.91-36.3l-125.76-199.29c-10.18-16.13-35.63-16.13-45.82,0Z"/>
      <path class="cls-2" d="M356.14,861.81l-138.2,223.93c-11.19,18.13,2.8,40.79,25.17,40.79h276.39c22.38,0,36.36-22.66,25.17-40.79l-138.2-223.93c-11.19-18.13-39.16-18.13-50.35,0Z"/>
      <path class="cls-29" d="M353.65,850.02l-151.86,251.6c-12.29,20.37,3.07,45.83,27.66,45.83h303.73c24.59,0,39.96-25.46,27.66-45.83l-151.86-251.6c-12.29-20.37-43.03-20.37-55.33,0Z"/>
      <path class="cls-61" d="M350.92,836.78l-166.88,282.7c-13.51,22.89,3.38,51.5,30.4,51.5h333.77c27.02,0,43.91-28.61,30.4-51.5l-166.88-282.7c-13.51-22.89-47.29-22.89-60.8,0Z"/>
      <path class="cls-59" d="M347.91,821.89l-183.39,317.64c-14.85,25.72,3.71,57.86,33.41,57.86h366.78c29.69,0,48.25-32.14,33.41-57.86l-183.39-317.64c-14.85-25.72-51.96-25.72-66.81,0Z"/>
    </g>
  </g>
  <g id="Layer_4" data-name="Layer 4">
    <g>
      <path class="cls-62" d="M615.32,890.09c0-.29.12-.55.36-.8.24-.24.51-.36.8-.36h164.48c11.4,0,21.13,4.03,29.2,12.1,8.07,8.07,12.1,17.8,12.1,29.2v14.49c0,11.5-4.03,21.28-12.1,29.34-8.07,8.07-17.8,12.1-29.2,12.1h-136.65v46.37c0,.39-.12.7-.36.94-.24.24-.56.36-.94.36h-26.52c-.29,0-.56-.12-.8-.36-.24-.24-.36-.55-.36-.94v-142.45ZM780.96,961.38c3.38,0,6.28-1.23,8.69-3.69,2.41-2.46,3.62-5.38,3.62-8.77v-22.75c0-3.48-1.21-6.42-3.62-8.84-2.42-2.41-5.31-3.62-8.69-3.62h-136.65v47.68h136.65Z"/>
      <path class="cls-62" d="M1072.67,944.86c0,8.4-2.22,15.97-6.67,22.68-4.44,6.72-10.34,11.72-17.68,15l.58,1.16,23.04,48.4c.1.39.05.77-.14,1.16-.19.39-.53.58-1.01.58h-29.42c-.48,0-.87-.24-1.16-.72l-22.32-46.81h-123.18v46.37c0,.29-.12.56-.36.8-.24.24-.56.36-.94.36h-26.52c-.29,0-.56-.12-.8-.36-.24-.24-.36-.51-.36-.8v-142.45c0-.38.12-.7.36-.94.24-.24.51-.36.8-.36h164.48c11.4,0,21.13,4.03,29.2,12.1,8.07,8.07,12.1,17.85,12.1,29.35v14.49ZM894.71,961.38h136.65c3.38,0,6.28-1.21,8.69-3.62,2.41-2.41,3.62-5.36,3.62-8.84v-22.75c0-3.38-1.21-6.28-3.62-8.69-2.42-2.41-5.31-3.62-8.69-3.62h-136.65v47.53Z"/>
      <path class="cls-62" d="M1302.5,890.09c0-.29.12-.55.36-.8.24-.24.56-.36.94-.36h26.37c.38,0,.7.12.94.36.24.24.36.51.36.8v40.58c0,5.89-1.59,11.23-4.78,16.01-3.19,4.78-7.49,8.33-12.9,10.65l-75.5,32.03v43.18c0,.39-.12.7-.36.94s-.51.36-.8.36h-26.52c-.39,0-.7-.12-.94-.36-.24-.24-.36-.55-.36-.94v-43.18l-75.5-32.03c-5.41-2.32-9.71-5.89-12.9-10.72-3.19-4.83-4.78-10.14-4.78-15.94v-40.58c0-.29.12-.55.36-.8.24-.24.55-.36.94-.36h26.52c.29,0,.55.12.8.36.24.24.36.51.36.8v34.92c0,5.02,2.56,8.84,7.68,11.45l71.01,29.85,71.15-29.85c5.02-2.61,7.54-6.42,7.54-11.45v-34.92Z"/>
      <path class="cls-62" d="M1403.94,936.46c0,3.48,1.21,6.43,3.62,8.84,2.41,2.42,5.31,3.62,8.69,3.62h124.34c11.4,0,21.13,4.03,29.2,12.1,8.06,8.07,12.1,17.85,12.1,29.35v2.03c0,11.4-4.03,21.16-12.1,29.27-8.07,8.12-17.8,12.17-29.2,12.17h-156.22c-.29,0-.56-.12-.8-.36-.24-.24-.36-.55-.36-.94v-22.32c0-.38.12-.7.36-.94s.51-.36.8-.36h156.22c3.38,0,6.28-1.21,8.69-3.62s3.62-5.31,3.62-8.69v-10.43c0-3.38-1.21-6.3-3.62-8.77-2.42-2.46-5.31-3.7-8.69-3.7h-124.34c-11.4,0-21.13-4.03-29.2-12.1-8.07-8.06-12.1-17.8-12.1-29.2v-2.17c0-11.4,4.03-21.13,12.1-29.2,8.07-8.06,17.8-12.1,29.2-12.1h156.22c.29,0,.55.12.8.36.24.24.36.51.36.8v22.46c0,.29-.12.56-.36.8-.24.24-.51.36-.8.36h-156.22c-3.38,0-6.28,1.21-8.69,3.62s-3.62,5.36-3.62,8.84v10.29Z"/>
      <path class="cls-62" d="M1840.71,1032.54c0,.39-.12.7-.36.94-.24.24-.56.36-.94.36h-26.52c-.29,0-.56-.12-.8-.36-.24-.24-.36-.55-.36-.94v-118.83h-15.94c-5.31,0-9.23,2.8-11.74,8.4l-39.13,110.86c-.2.58-.58.87-1.16.87h-21.59c-.48,0-.87-.29-1.16-.87l-38.98-110.86c-2.61-5.6-6.52-8.4-11.74-8.4h-15.94v118.83c0,.39-.12.7-.36.94-.24.24-.56.36-.94.36h-26.52c-.29,0-.56-.12-.8-.36-.24-.24-.36-.55-.36-.94v-142.3c0-.38.12-.7.36-.94.24-.24.51-.36.8-.36h53.33c.96,0,1.93.05,2.9.14,5.51.68,10.31,2.75,14.42,6.23,4.11,3.48,7.08,7.88,8.91,13.19l26.95,77.09,26.81-77.09c1.93-5.31,4.95-9.73,9.06-13.26,4.1-3.52,8.91-5.58,14.42-6.16.96-.09,1.88-.14,2.75-.14h53.33c.38,0,.7.12.94.36.24.24.36.56.36.94v142.3Z"/>
    </g>
    <g>
      <path class="cls-62" d="M897.1,1066.72c0-.18.06-.33.17-.45.11-.12.27-.17.45-.17h12.69c.14,0,.27.06.38.17.11.12.17.27.17.45v68.16c0,.14-.06.27-.17.38-.12.12-.24.17-.38.17h-25.93c-5.32-.14-9.5-2.38-12.55-6.73l-32.24-48.05c-1.34-1.76-3.01-2.63-4.99-2.63h-8.88v56.86c0,.14-.06.27-.17.38-.12.12-.27.17-.45.17h-12.69c-.14,0-.27-.06-.38-.17-.12-.11-.17-.24-.17-.38v-68.16c0-.18.06-.33.17-.45.11-.12.24-.17.38-.17h25.93c5.31.19,9.5,2.45,12.55,6.79l32.24,47.98c1.29,1.8,2.96,2.7,4.99,2.7h8.88v-56.86Z"/>
      <path class="cls-62" d="M945.64,1094.8h74.67c.18,0,.33.06.45.17.11.12.17.27.17.45v10.68c0,.19-.06.34-.17.45-.12.12-.27.17-.45.17h-74.67v10.89c0,1.62.58,3.02,1.73,4.19,1.15,1.18,2.57,1.77,4.23,1.77h78.63c.18,0,.33.06.45.17.11.12.17.24.17.38v10.68c0,.19-.06.34-.17.45-.12.12-.27.17-.45.17h-78.63c-5.5,0-10.18-1.93-14.04-5.79-3.86-3.86-5.79-8.54-5.79-14.04v-29.68c0-5.5,1.93-10.18,5.79-14.04,3.86-3.86,8.54-5.79,14.04-5.79h78.63c.18,0,.33.06.45.17.11.12.17.27.17.45v10.68c0,.14-.06.27-.17.38-.12.12-.27.17-.45.17h-78.63c-1.66,0-3.07.59-4.23,1.77-1.16,1.18-1.73,2.58-1.73,4.19v10.89Z"/>
      <path class="cls-62" d="M1051.65,1066.72c0-.18.06-.33.17-.45.11-.12.24-.17.38-.17h97.9c.14,0,.27.06.38.17.11.12.17.27.17.45v10.68c0,.14-.06.27-.17.38-.12.12-.24.17-.38.17h-42.02v56.86c0,.19-.06.34-.17.45s-.24.17-.38.17h-12.69c-.19,0-.34-.06-.45-.17-.12-.11-.17-.26-.17-.45v-56.86h-42.02c-.14,0-.27-.06-.38-.17-.12-.12-.17-.24-.17-.38v-10.68Z"/>
      <path class="cls-62" d="M1274.5,1134.81c0,.19-.06.34-.17.45-.12.12-.27.17-.45.17h-27.67c-3.19,0-6.16-.8-8.91-2.39-2.75-1.59-4.93-3.8-6.55-6.62l-7.77-13.59-7.77,13.59c-1.62,2.82-3.8,5.03-6.55,6.62-2.75,1.6-5.72,2.39-8.91,2.39h-27.67c-.19,0-.34-.06-.45-.17-.12-.11-.17-.26-.17-.45v-68.16c0-.14.06-.27.17-.38.11-.12.26-.17.45-.17h12.69c.14,0,.27.06.38.17s.17.24.17.38v56.86h12.13c2.13,0,3.84-.99,5.13-2.98l13.45-23.5v-30.37c0-.14.06-.27.17-.38s.27-.17.45-.17h12.62c.18,0,.33.06.45.17.11.12.17.24.17.38v30.37l13.45,23.5c1.29,1.99,3,2.98,5.13,2.98h12.13v-56.86c0-.14.06-.27.17-.38.11-.12.24-.17.38-.17h12.69c.18,0,.33.06.45.17s.17.24.17.38v68.16Z"/>
      <path class="cls-62" d="M1374.55,1066.1c5.5,0,10.18,1.93,14.04,5.79,3.86,3.86,5.79,8.54,5.79,14.04v29.68c0,5.5-1.93,10.18-5.79,14.04s-8.54,5.79-14.04,5.79h-59.42c-5.46,0-10.12-1.93-14.01-5.79s-5.82-8.54-5.82-14.04v-29.68c0-5.5,1.94-10.18,5.82-14.04,3.88-3.86,8.55-5.79,14.01-5.79h59.42ZM1380.51,1083.92c0-1.62-.58-3.02-1.73-4.19-1.16-1.18-2.57-1.77-4.23-1.77h-59.42c-1.62,0-3.02.59-4.2,1.77s-1.77,2.58-1.77,4.19v33.7c0,1.62.59,3.02,1.77,4.19s2.58,1.77,4.2,1.77h59.42c1.66,0,3.07-.59,4.23-1.77,1.16-1.18,1.73-2.58,1.73-4.19v-33.7Z"/>
      <path class="cls-62" d="M1514.19,1092.86c0,4.02-1.06,7.64-3.19,10.85-2.13,3.21-4.95,5.6-8.46,7.18l.28.55,11.02,23.16c.05.19.02.37-.07.55-.09.19-.25.28-.49.28h-14.08c-.23,0-.42-.12-.55-.35l-10.68-22.4h-58.94v22.19c0,.14-.06.27-.17.38-.12.12-.27.17-.45.17h-12.69c-.14,0-.27-.06-.38-.17-.12-.11-.17-.24-.17-.38v-68.16c0-.18.06-.33.17-.45.11-.12.24-.17.38-.17h78.7c5.45,0,10.11,1.93,13.97,5.79,3.86,3.86,5.79,8.54,5.79,14.04v6.93ZM1429.05,1100.77h65.38c1.62,0,3-.58,4.16-1.73s1.73-2.57,1.73-4.23v-10.89c0-1.62-.58-3-1.73-4.16-1.16-1.16-2.54-1.73-4.16-1.73h-65.38v22.74Z"/>
      <path class="cls-62" d="M1635.6,1134.6c.09.19.08.37-.03.55-.12.19-.27.28-.45.28h-14.08c-.23,0-.42-.12-.55-.35l-10.33-21.77c-.88-1.71-2.12-3.07-3.71-4.09-1.6-1.02-3.34-1.53-5.24-1.53h-52.35v27.11c0,.19-.06.34-.17.45-.12.12-.27.17-.45.17h-12.62c-.19,0-.34-.06-.45-.17-.12-.11-.17-.26-.17-.45v-68.09c0-.18.06-.33.17-.45.11-.12.26-.17.45-.17h12.62c.18,0,.33.06.45.17s.17.27.17.45v29.12h52.35c1.89,0,3.64-.51,5.24-1.53,1.59-1.02,2.83-2.4,3.71-4.16l10.33-21.7c.14-.23.32-.35.55-.35h14.08c.18,0,.33.08.45.24.11.16.13.36.03.59l-12,25.24c-1.43,2.96-3.35,5.48-5.75,7.56,2.4,2.13,4.32,4.67,5.75,7.63l12,25.24Z"/>
    </g>
  </g>
</svg>