<?xml version="1.0" encoding="utf-8"?>
<!-- Generator: Adobe Illustrator 19.0.0, SVG Export Plug-In . SVG Version: 6.00 Build 0)  -->
<svg version="1.1" id="Layer_3" xmlns="http://www.w3.org/2000/svg" xmlns:xlink="http://www.w3.org/1999/xlink" x="0px" y="0px"
	 viewBox="649.7 -241.5 1664.5 1482.9" style="enable-background:new 649.7 -241.5 1664.5 1482.9;" xml:space="preserve">
<style type="text/css">
	.st0{fill:none;stroke:#190C0C;stroke-width:5.000000e-002;stroke-miterlimit:10;}
	.st1{fill:none;stroke:#190C0C;stroke-width:6.000000e-002;stroke-miterlimit:10;}
	.st2{fill:none;stroke:#190C0C;stroke-width:7.000000e-002;stroke-miterlimit:10;}
	.st3{fill:none;stroke:#190C0C;stroke-width:8.000000e-002;stroke-miterlimit:10;}
	.st4{fill:none;stroke:#190C0C;stroke-width:9.000000e-002;stroke-miterlimit:10;}
	.st5{fill:none;stroke:#190C0C;stroke-width:0.1;stroke-miterlimit:10;}
	.st6{fill:none;stroke:#190C0C;stroke-width:0.11;stroke-miterlimit:10;}
	.st7{fill:none;stroke:#190C0C;stroke-width:0.13;stroke-miterlimit:10;}
	.st8{fill:none;stroke:#190C0C;stroke-width:0.14;stroke-miterlimit:10;}
	.st9{fill:none;stroke:#190C0C;stroke-width:0.16;stroke-miterlimit:10;}
	.st10{fill:none;stroke:#190C0C;stroke-width:0.17;stroke-miterlimit:10;}
	.st11{fill:none;stroke:#190C0C;stroke-width:0.19;stroke-miterlimit:10;}
	.st12{fill:none;stroke:#190C0C;stroke-width:0.21;stroke-miterlimit:10;}
	.st13{fill:none;stroke:#190C0C;stroke-width:0.24;stroke-miterlimit:10;}
	.st14{fill:none;stroke:#190C0C;stroke-width:0.26;stroke-miterlimit:10;}
	.st15{fill:none;stroke:#190C0C;stroke-width:0.29;stroke-miterlimit:10;}
	.st16{fill:none;stroke:#190C0C;stroke-width:0.33;stroke-miterlimit:10;}
	.st17{fill:none;stroke:#190C0C;stroke-width:0.36;stroke-miterlimit:10;}
	.st18{fill:none;stroke:#190C0C;stroke-width:0.4;stroke-miterlimit:10;}
	.st19{fill:none;stroke:#190C0C;stroke-width:0.45;stroke-miterlimit:10;}
	.st20{fill:none;stroke:#190C0C;stroke-width:0.5;stroke-miterlimit:10;}
	.st21{fill:none;stroke:#190C0C;stroke-width:0.55;stroke-miterlimit:10;}
	.st22{fill:none;stroke:#190C0C;stroke-width:0.61;stroke-miterlimit:10;}
	.st23{fill:none;stroke:#190C0C;stroke-width:0.68;stroke-miterlimit:10;}
	.st24{fill:none;stroke:#190C0C;stroke-width:0.76;stroke-miterlimit:10;}
	.st25{fill:none;stroke:#190C0C;stroke-width:0.84;stroke-miterlimit:10;}
	.st26{fill:none;stroke:#190C0C;stroke-width:0.94;stroke-miterlimit:10;}
	.st27{fill:none;stroke:#190C0C;stroke-width:1.04;stroke-miterlimit:10;}
	.st28{fill:none;stroke:#190C0C;stroke-width:1.15;stroke-miterlimit:10;}
	.st29{fill:none;stroke:#190C0C;stroke-width:1.28;stroke-miterlimit:10;}
	.st30{fill:none;stroke:#190C0C;stroke-width:1.43;stroke-miterlimit:10;}
	.st31{fill:none;stroke:#190C0C;stroke-width:1.58;stroke-miterlimit:10;}
	.st32{fill:none;stroke:#190C0C;stroke-width:1.76;stroke-miterlimit:10;}
	.st33{fill:none;stroke:#190C0C;stroke-width:1.96;stroke-miterlimit:10;}
	.st34{fill:none;stroke:#190C0C;stroke-width:2.17;stroke-miterlimit:10;}
	.st35{fill:none;stroke:#190C0C;stroke-width:2.41;stroke-miterlimit:10;}
	.st36{fill:none;stroke:#190C0C;stroke-width:2.68;stroke-miterlimit:10;}
	.st37{fill:none;stroke:#190C0C;stroke-width:2.98;stroke-miterlimit:10;}
	.st38{fill:none;stroke:#190C0C;stroke-width:3.31;stroke-miterlimit:10;}
	.st39{fill:none;stroke:#190C0C;stroke-width:3.68;stroke-miterlimit:10;}
	.st40{fill:none;stroke:#190C0C;stroke-width:4.09;stroke-miterlimit:10;}
	.st41{fill:none;stroke:#190C0C;stroke-width:4.55;stroke-miterlimit:10;}
	.st42{fill:none;stroke:#190C0C;stroke-width:5.05;stroke-miterlimit:10;}
	.st43{fill:none;stroke:#190C0C;stroke-width:5.61;stroke-miterlimit:10;}
	.st44{fill:none;stroke:#190C0C;stroke-width:6.24;stroke-miterlimit:10;}
	.st45{fill:none;stroke:#190C0C;stroke-width:6.93;stroke-miterlimit:10;}
	.st46{fill:none;stroke:#190C0C;stroke-width:7.7;stroke-miterlimit:10;}
	.st47{fill:none;stroke:#190C0C;stroke-width:8.56;stroke-miterlimit:10;}
	.st48{fill:none;stroke:#190C0C;stroke-width:9.51;stroke-miterlimit:10;}
	.st49{fill:none;stroke:#190C0C;stroke-width:10.56;stroke-miterlimit:10;}
	.st50{fill:none;stroke:#190C0C;stroke-width:11.74;stroke-miterlimit:10;}
	.st51{fill:none;stroke:#190C0C;stroke-width:13.04;stroke-miterlimit:10;}
	.st52{fill:none;stroke:#190C0C;stroke-width:14.49;stroke-miterlimit:10;}
	.st53{fill:none;stroke:#190C0C;stroke-width:16.11;stroke-miterlimit:10;}
	.st54{fill:none;stroke:#190C0C;stroke-width:17.9;stroke-miterlimit:10;}
	.st55{fill:none;stroke:#190C0C;stroke-width:19.89;stroke-miterlimit:10;}
	.st56{fill:none;stroke:#190C0C;stroke-width:22.1;stroke-miterlimit:10;}
	.st57{fill:none;stroke:#190C0C;stroke-width:24.55;stroke-miterlimit:10;}
	.st58{fill:none;stroke:#190C0C;stroke-width:27.28;stroke-miterlimit:10;}
</style>
<path class="st0" d="M1481.6,341.7l-2.4,1.1c-0.2,0.1,0.1,0.2,0.4,0.2h4.7c0.4,0,0.6-0.1,0.4-0.2l-2.4-1.1
	C1482.2,341.6,1481.8,341.6,1481.6,341.7z"/>
<path class="st0" d="M1481.5,341.6l-2.6,1.2c-0.2,0.1,0.1,0.2,0.5,0.2h5.2c0.4,0,0.7-0.1,0.5-0.2l-2.6-1.2
	C1482.3,341.5,1481.7,341.5,1481.5,341.6L1481.5,341.6z"/>
<path class="st1" d="M1481.5,341.6l-2.8,1.4c-0.2,0.1,0.1,0.3,0.5,0.3h5.7c0.5,0,0.8-0.1,0.5-0.3l-2.8-1.4
	C1482.3,341.5,1481.7,341.5,1481.5,341.6L1481.5,341.6z"/>
<path class="st2" d="M1481.4,341.5l-3.1,1.5c-0.3,0.1,0.1,0.3,0.6,0.3h6.3c0.5,0,0.8-0.2,0.6-0.3l-3.1-1.5
	C1482.3,341.4,1481.7,341.4,1481.4,341.5z"/>
<path class="st2" d="M1481.4,341.4l-3.4,1.7c-0.3,0.1,0.1,0.3,0.6,0.3h6.9c0.6,0,0.9-0.2,0.6-0.3l-3.4-1.7
	C1482.3,341.3,1481.7,341.3,1481.4,341.4L1481.4,341.4z"/>
<path class="st3" d="M1481.3,341.3l-3.8,1.9c-0.3,0.2,0.1,0.3,0.7,0.3h7.6c0.6,0,1-0.2,0.7-0.3l-3.8-1.9
	C1482.4,341.2,1481.6,341.2,1481.3,341.3L1481.3,341.3z"/>
<path class="st4" d="M1481.2,341.2l-4.2,2.2c-0.3,0.2,0.1,0.4,0.8,0.4h8.3c0.7,0,1.1-0.2,0.8-0.4l-4.2-2.2
	C1482.4,341,1481.6,341,1481.2,341.2L1481.2,341.2z"/>
<path class="st5" d="M1481.2,341.1l-4.6,2.4c-0.4,0.2,0.1,0.4,0.8,0.4h9.1c0.7,0,1.2-0.3,0.8-0.4l-4.6-2.4
	C1482.5,340.9,1481.6,340.9,1481.2,341.1L1481.2,341.1z"/>
<path class="st6" d="M1481.1,341l-5,2.7c-0.4,0.2,0.1,0.5,0.9,0.5h10c0.8,0,1.3-0.3,0.9-0.5l-5-2.7
	C1482.5,340.8,1481.5,340.8,1481.1,341L1481.1,341z"/>
<path class="st7" d="M1481,340.8l-5.5,3.1c-0.5,0.3,0.1,0.6,1,0.6h11c0.9,0,1.4-0.3,1-0.6l-5.5-3.1
	C1482.5,340.6,1481.4,340.6,1481,340.8L1481,340.8z"/>
<path class="st8" d="M1480.9,340.7l-6.1,3.5c-0.5,0.3,0.1,0.6,1.1,0.6h12.1c1,0,1.6-0.3,1.1-0.6l-6.1-3.5
	C1482.6,340.4,1481.4,340.4,1480.9,340.7L1480.9,340.7z"/>
<path class="st9" d="M1480.8,340.5l-6.7,3.9c-0.5,0.3,0.1,0.7,1.2,0.7h13.3c1.1,0,1.8-0.4,1.2-0.7l-6.7-3.9
	C1482.7,340.2,1481.3,340.2,1480.8,340.5L1480.8,340.5z"/>
<path class="st10" d="M1480.7,340.3l-7.3,4.4c-0.6,0.3,0.2,0.8,1.3,0.8h14.6c1.2,0,1.9-0.4,1.3-0.8l-7.3-4.4
	C1482.7,340,1481.3,340,1480.7,340.3L1480.7,340.3z"/>
<path class="st11" d="M1480.5,340.1l-8,4.9c-0.7,0.4,0.2,0.9,1.5,0.9h16.1c1.3,0,2.1-0.5,1.5-0.9l-8-4.9
	C1482.8,339.7,1481.2,339.7,1480.5,340.1L1480.5,340.1z"/>
<path class="st12" d="M1480.4,339.8l-8.8,5.5c-0.7,0.5,0.2,1,1.6,1h17.7c1.4,0,2.3-0.6,1.6-1l-8.8-5.5
	C1482.9,339.4,1481.1,339.4,1480.4,339.8L1480.4,339.8z"/>
<path class="st13" d="M1480.2,339.5l-9.7,6.2c-0.8,0.5,0.2,1.1,1.8,1.1h19.4c1.6,0,2.5-0.6,1.8-1.1l-9.7-6.2
	C1483,339,1481,339,1480.2,339.5L1480.2,339.5z"/>
<path class="st14" d="M1480.1,339.2l-10.7,7c-0.9,0.6,0.2,1.3,1.9,1.3h21.3c1.7,0,2.8-0.7,1.9-1.3l-10.7-7
	C1483.1,338.6,1480.9,338.6,1480.1,339.2L1480.1,339.2z"/>
<path class="st15" d="M1479.9,338.8l-11.7,7.8c-1,0.6,0.2,1.4,2.1,1.4h23.4c1.9,0,3.1-0.8,2.1-1.4l-11.7-7.8
	C1483.2,338.2,1480.8,338.2,1479.9,338.8L1479.9,338.8z"/>
<path class="st16" d="M1479.7,338.4l-12.9,8.8c-1,0.7,0.3,1.6,2.3,1.6h25.8c2.1,0,3.4-0.9,2.3-1.6l-12.9-8.8
	C1483.3,337.7,1480.7,337.7,1479.7,338.4L1479.7,338.4z"/>
<path class="st17" d="M1479.4,338l-14.2,9.8c-1.2,0.8,0.3,1.8,2.6,1.8h28.3c2.3,0,3.7-1,2.6-1.8l-14.2-9.8
	C1483.4,337.2,1480.6,337.2,1479.4,338z"/>
<path class="st18" d="M1479.2,337.4l-15.5,11.1c-1.3,0.9,0.3,2,2.8,2h31.1c2.5,0,4.1-1.1,2.8-2l-15.6-11.1
	C1483.6,336.5,1480.4,336.5,1479.2,337.4L1479.2,337.4z"/>
<path class="st19" d="M1478.9,336.9l-17.1,12.4c-1.4,1,0.3,2.3,3.1,2.3h34.2c2.8,0,4.5-1.3,3.1-2.3l-17.1-12.4
	C1483.7,335.8,1480.3,335.8,1478.9,336.9L1478.9,336.9z"/>
<path class="st20" d="M1478.6,336.2l-18.8,14c-1.5,1.1,0.4,2.5,3.4,2.5h37.6c3,0,4.9-1.4,3.4-2.5l-18.8-14
	C1483.9,335.1,1480.1,335.1,1478.6,336.2L1478.6,336.2z"/>
<path class="st21" d="M1478.2,335.5l-20.6,15.7c-1.7,1.3,0.4,2.9,3.8,2.9h41.3c3.3,0,5.4-1.6,3.8-2.9l-20.6-15.7
	C1484.1,334.2,1479.9,334.2,1478.2,335.5L1478.2,335.5z"/>
<path class="st22" d="M1477.9,334.6l-22.7,17.7c-1.8,1.4,0.5,3.2,4.1,3.2h45.3c3.7,0,6-1.8,4.1-3.2l-22.7-17.7
	C1484.3,333.2,1479.7,333.2,1477.9,334.6L1477.9,334.6z"/>
<path class="st23" d="M1477.5,333.7l-24.9,19.8c-2,1.6,0.5,3.6,4.5,3.6h49.8c4,0,6.6-2,4.5-3.6l-24.9-19.8
	C1484.5,332.1,1479.5,332.1,1477.5,333.7z"/>
<path class="st24" d="M1477,332.7l-27.4,22.3c-2.2,1.8,0.5,4.1,5,4.1h54.8c4.4,0,7.2-2.3,5-4.1l-27.4-22.3
	C1484.8,330.9,1479.2,330.9,1477,332.7L1477,332.7z"/>
<path class="st25" d="M1476.5,331.5l-30.1,25c-2.4,2,0.6,4.6,5.5,4.6h60.2c4.9,0,7.9-2.5,5.5-4.6l-30.1-25
	C1485,329.5,1478.9,329.5,1476.5,331.5L1476.5,331.5z"/>
<path class="st26" d="M1476,330.2l-33.1,28.1c-2.7,2.3,0.7,5.1,6,5.1h66.1c5.3,0,8.7-2.8,6-5.1l-33.1-28.1
	C1485.3,327.9,1478.6,327.9,1476,330.2L1476,330.2z"/>
<path class="st27" d="M1475.4,328.7l-36.3,31.6c-2.9,2.6,0.7,5.8,6.6,5.8h72.7c5.9,0,9.6-3.2,6.6-5.8l-36.3-31.6
	C1485.7,326.1,1478.3,326.1,1475.4,328.7L1475.4,328.7z"/>
<path class="st28" d="M1474.7,327l-39.9,35.5c-3.2,2.9,0.8,6.5,7.3,6.5h79.9c6.5,0,10.5-3.6,7.3-6.5l-39.9-35.5
	C1486,324.2,1477.9,324.2,1474.7,327L1474.7,327z"/>
<path class="st29" d="M1474,325.2l-43.9,39.9c-3.6,3.2,0.9,7.3,8,7.3h87.8c7.1,0,11.6-4,8-7.3l-43.9-39.9
	C1486.4,321.9,1477.6,321.9,1474,325.2L1474,325.2z"/>
<path class="st30" d="M1473.2,323.1l-48.2,44.8c-3.9,3.6,1,8.2,8.8,8.2h96.4c7.8,0,12.7-4.5,8.8-8.2l-48.2-44.8
	C1486.9,319.4,1477.1,319.4,1473.2,323.1L1473.2,323.1z"/>
<path class="st31" d="M1472.3,320.7l-53,50.4c-4.3,4.1,1.1,9.2,9.7,9.2h106c8.6,0,13.9-5.1,9.7-9.2l-53-50.4
	C1487.4,316.6,1476.6,316.6,1472.3,320.7L1472.3,320.7z"/>
<path class="st32" d="M1471.4,318l-58.2,56.6c-4.7,4.6,1.2,10.3,10.6,10.3h116.5c9.4,0,15.3-5.7,10.6-10.3l-58.2-56.6
	C1487.9,313.5,1476.1,313.5,1471.4,318L1471.4,318z"/>
<path class="st33" d="M1470.3,315.1l-64,63.6c-5.2,5.2,1.3,11.6,11.7,11.6h128c10.4,0,16.8-6.4,11.7-11.6l-64-63.6
	C1488.5,309.9,1475.5,309.9,1470.3,315.1L1470.3,315.1z"/>
<path class="st34" d="M1469.2,311.7l-70.3,71.5c-5.7,5.8,1.4,13,12.8,13h140.6c11.4,0,18.5-7.2,12.8-13l-70.3-71.5
	C1489.1,305.9,1474.9,305.9,1469.2,311.7L1469.2,311.7z"/>
<path class="st35" d="M1467.9,308l-77.3,80.3c-6.3,6.5,1.6,14.6,14.1,14.6h154.5c12.5,0,20.3-8.1,14.1-14.6l-77.3-80.3
	C1489.8,301.5,1474.2,301.5,1467.9,308L1467.9,308z"/>
<path class="st36" d="M1466.5,303.7l-84.9,90.2c-6.9,7.3,1.7,16.4,15.5,16.4h169.8c13.8,0,22.3-9.1,15.5-16.4l-84.9-90.2
	C1490.6,296.4,1473.4,296.4,1466.5,303.7L1466.5,303.7z"/>
<path class="st37" d="M1465,299l-93.3,101.3c-7.5,8.2,1.9,18.5,17,18.5h186.6c15.1,0,24.6-10.3,17-18.5L1499,299
	C1491.5,290.8,1472.6,290.8,1465,299L1465,299z"/>
<path class="st38" d="M1463.3,293.7l-102.5,113.9c-8.3,9.2,2.1,20.7,18.7,20.7h205.1c16.6,0,27-11.5,18.7-20.7l-102.5-113.9
	C1492.4,284.4,1471.6,284.4,1463.3,293.7L1463.3,293.7z"/>
<path class="st39" d="M1461.5,287.7l-112.7,128c-9.1,10.4,2.3,23.3,20.5,23.3h225.4c18.3,0,29.7-13,20.5-23.3l-112.7-128
	C1493.4,277.3,1470.6,277.3,1461.5,287.7L1461.5,287.7z"/>
<path class="st40" d="M1459.4,280.9l-123.8,143.8c-10,11.6,2.5,26.2,22.6,26.2h247.7c20.1,0,32.6-14.5,22.6-26.2l-123.8-143.8
	C1494.5,269.3,1469.5,269.3,1459.4,280.9z"/>
<path class="st41" d="M1457.2,273.3l-136.1,161.5c-11,13.1,2.8,29.4,24.8,29.4h272.2c22,0,35.8-16.3,24.8-29.4l-136.1-161.5
	C1495.8,260.3,1468.2,260.3,1457.2,273.3L1457.2,273.3z"/>
<path class="st42" d="M1454.8,264.8l-149.5,181.5c-12.1,14.7,3,33.1,27.2,33.1h299.1c24.2,0,39.3-18.4,27.2-33.1l-149.5-181.5
	C1497.1,250.2,1466.9,250.2,1454.8,264.8z"/>
<path class="st43" d="M1452.1,255.3l-164.3,203.9c-13.3,16.5,3.3,37.2,29.9,37.2h328.6c26.6,0,43.2-20.6,29.9-37.2l-164.3-203.9
	C1498.6,238.8,1465.4,238.8,1452.1,255.3L1452.1,255.3z"/>
<path class="st44" d="M1449.1,244.6l-180.6,229.1c-14.6,18.5,3.7,41.7,32.9,41.7h361.1c29.2,0,47.5-23.2,32.9-41.7l-180.6-229.1
	C1500.3,226,1463.7,226,1449.1,244.6L1449.1,244.6z"/>
<path class="st45" d="M1445.8,232.5l-198.4,257.5c-16.1,20.8,4,46.9,36.2,46.9h396.9c32.1,0,52.2-26,36.2-46.9l-198.4-257.5
	C1502.1,211.6,1461.9,211.6,1445.8,232.5L1445.8,232.5z"/>
<path class="st46" d="M1442.3,218.9l-218.1,289.3c-17.7,23.4,4.4,52.7,39.7,52.7h436.1c35.3,0,57.4-29.3,39.7-52.7l-218.1-289.3
	C1504.1,195.5,1459.9,195.5,1442.3,218.9L1442.3,218.9z"/>
<path class="st47" d="M1438.3,203.7l-239.6,325c-19.4,26.3,4.8,59.2,43.7,59.2h479.2c38.8,0,63.1-32.9,43.7-59.2l-239.6-325
	C1506.3,177.4,1457.8,177.4,1438.3,203.7L1438.3,203.7z"/>
<path class="st48" d="M1434,186.6l-263.3,365.2c-21.3,29.6,5.3,66.5,48,66.5h526.6c42.6,0,69.3-37,48-66.5L1530,186.6
	C1508.6,157,1455.4,157,1434,186.6L1434,186.6z"/>
<path class="st49" d="M1429.3,167.4l-289.4,410.3c-23.4,33.2,5.9,74.8,52.7,74.8h578.7c46.8,0,76.1-41.5,52.7-74.8l-289.4-410.3
	C1511.3,134.2,1452.7,134.2,1429.3,167.4L1429.3,167.4z"/>
<path class="st50" d="M1424.1,145.8l-318,461.1c-25.7,37.3,6.4,84,57.9,84h636c51.5,0,83.7-46.7,57.9-84l-318-461
	C1514.2,108.4,1449.8,108.4,1424.1,145.8L1424.1,145.8z"/>
<path class="st51" d="M1418.3,121.5l-349.4,518c-28.3,41.9,7.1,94.4,63.7,94.4h698.9c56.6,0,91.9-52.4,63.7-94.4l-349.4-518
	C1517.4,79.6,1446.6,79.6,1418.3,121.5L1418.3,121.5z"/>
<path class="st52" d="M1412,94.2l-384,582.1c-31.1,47.1,7.8,106,70,106h768c62.2,0,101-58.9,69.9-106l-384-582.1
	C1520.9,47.1,1443.1,47.1,1412,94.2L1412,94.2z"/>
<path class="st53" d="M1405.1,63.6l-422,654c-34.2,52.9,8.5,119.1,76.9,119.1h843.9c68.3,0,111-66.2,76.9-119.1l-422-654
	C1524.7,10.6,1439.3,10.6,1405.1,63.6L1405.1,63.6z"/>
<path class="st54" d="M1397.5,29.2L933.8,764c-37.5,59.5,9.4,133.9,84.5,133.9h927.4c75.1,0,122-74.4,84.5-133.9L1566.5,29.1
	C1528.9-30.3,1435.1-30.3,1397.5,29.2L1397.5,29.2z"/>
<path class="st55" d="M1389.2-9.5L879.6,816.1c-41.3,66.8,10.3,150.4,92.8,150.4h1019.1c82.5,0,134.1-83.6,92.8-150.4L1574.8-9.5
	C1533.6-76.4,1430.4-76.4,1389.2-9.5L1389.2-9.5z"/>
<path class="st56" d="M1380-53L820,874.7c-45.3,75.1,11.3,169,102,169H2042c90.7,0,147.3-93.9,102-169L1584-53
	C1538.7-128.1,1425.3-128.1,1380-53L1380-53z"/>
<path class="st57" d="M1369.9-101.8L754.6,940.5c-49.8,84.4,12.5,189.9,112.1,189.9h1230.7c99.6,0,161.9-105.5,112.1-189.9
	L1594.1-101.8C1544.3-186.2,1419.7-186.2,1369.9-101.8z"/>
<path class="st58" d="M1358.8-156.7L682.6,1014.5c-54.7,94.8,13.7,213.3,123.2,213.3h1352.4c109.5,0,177.9-118.5,123.2-213.3
	L1605.2-156.7C1550.4-251.5,1413.6-251.5,1358.8-156.7L1358.8-156.7z"/>
</svg>
