<?xml version="1.0" encoding="utf-8"?>
<!-- Generator: Adobe Illustrator 19.0.0, SVG Export Plug-In . SVG Version: 6.00 Build 0)  -->
<svg version="1.1" id="Layer_1" xmlns="http://www.w3.org/2000/svg" xmlns:xlink="http://www.w3.org/1999/xlink" x="0px" y="0px"
	 viewBox="667.7 -360.6 1664.5 1707.5" style="enable-background:new 667.7 -360.6 1664.5 1707.5;" xml:space="preserve">
<style type="text/css">
	.st0{fill:none;stroke:#FFFFFF;stroke-width:5.000000e-002;stroke-miterlimit:10;}
	.st1{fill:none;stroke:#FFFFFF;stroke-width:6.000000e-002;stroke-miterlimit:10;}
	.st2{fill:none;stroke:#FFFFFF;stroke-width:7.000000e-002;stroke-miterlimit:10;}
	.st3{fill:none;stroke:#FFFFFF;stroke-width:8.000000e-002;stroke-miterlimit:10;}
	.st4{fill:none;stroke:#FFFFFF;stroke-width:9.000000e-002;stroke-miterlimit:10;}
	.st5{fill:none;stroke:#FFFFFF;stroke-width:0.1;stroke-miterlimit:10;}
	.st6{fill:none;stroke:#FFFFFF;stroke-width:0.11;stroke-miterlimit:10;}
	.st7{fill:none;stroke:#FFFFFF;stroke-width:0.13;stroke-miterlimit:10;}
	.st8{fill:none;stroke:#FFFFFF;stroke-width:0.14;stroke-miterlimit:10;}
	.st9{fill:none;stroke:#FFFFFF;stroke-width:0.16;stroke-miterlimit:10;}
	.st10{fill:none;stroke:#FFFFFF;stroke-width:0.17;stroke-miterlimit:10;}
	.st11{fill:none;stroke:#FFFFFF;stroke-width:0.19;stroke-miterlimit:10;}
	.st12{fill:none;stroke:#FFFFFF;stroke-width:0.21;stroke-miterlimit:10;}
	.st13{fill:none;stroke:#FFFFFF;stroke-width:0.24;stroke-miterlimit:10;}
	.st14{fill:none;stroke:#FFFFFF;stroke-width:0.26;stroke-miterlimit:10;}
	.st15{fill:none;stroke:#FFFFFF;stroke-width:0.29;stroke-miterlimit:10;}
	.st16{fill:none;stroke:#FFFFFF;stroke-width:0.33;stroke-miterlimit:10;}
	.st17{fill:none;stroke:#FFFFFF;stroke-width:0.36;stroke-miterlimit:10;}
	.st18{fill:none;stroke:#FFFFFF;stroke-width:0.4;stroke-miterlimit:10;}
	.st19{fill:none;stroke:#FFFFFF;stroke-width:0.45;stroke-miterlimit:10;}
	.st20{fill:none;stroke:#FFFFFF;stroke-width:0.5;stroke-miterlimit:10;}
	.st21{fill:none;stroke:#FFFFFF;stroke-width:0.55;stroke-miterlimit:10;}
	.st22{fill:none;stroke:#FFFFFF;stroke-width:0.61;stroke-miterlimit:10;}
	.st23{fill:none;stroke:#FFFFFF;stroke-width:0.68;stroke-miterlimit:10;}
	.st24{fill:none;stroke:#FFFFFF;stroke-width:0.76;stroke-miterlimit:10;}
	.st25{fill:none;stroke:#FFFFFF;stroke-width:0.84;stroke-miterlimit:10;}
	.st26{fill:none;stroke:#FFFFFF;stroke-width:0.94;stroke-miterlimit:10;}
	.st27{fill:none;stroke:#FFFFFF;stroke-width:1.04;stroke-miterlimit:10;}
	.st28{fill:none;stroke:#FFFFFF;stroke-width:1.15;stroke-miterlimit:10;}
	.st29{fill:none;stroke:#FFFFFF;stroke-width:1.28;stroke-miterlimit:10;}
	.st30{fill:none;stroke:#FFFFFF;stroke-width:1.43;stroke-miterlimit:10;}
	.st31{fill:none;stroke:#FFFFFF;stroke-width:1.58;stroke-miterlimit:10;}
	.st32{fill:none;stroke:#FFFFFF;stroke-width:1.76;stroke-miterlimit:10;}
	.st33{fill:none;stroke:#FFFFFF;stroke-width:1.96;stroke-miterlimit:10;}
	.st34{fill:none;stroke:#FFFFFF;stroke-width:2.17;stroke-miterlimit:10;}
	.st35{fill:none;stroke:#FFFFFF;stroke-width:2.41;stroke-miterlimit:10;}
	.st36{fill:none;stroke:#FFFFFF;stroke-width:2.68;stroke-miterlimit:10;}
	.st37{fill:none;stroke:#FFFFFF;stroke-width:2.98;stroke-miterlimit:10;}
	.st38{fill:none;stroke:#FFFFFF;stroke-width:3.31;stroke-miterlimit:10;}
	.st39{fill:none;stroke:#FFFFFF;stroke-width:3.68;stroke-miterlimit:10;}
	.st40{fill:none;stroke:#FFFFFF;stroke-width:4.09;stroke-miterlimit:10;}
	.st41{fill:none;stroke:#FFFFFF;stroke-width:4.55;stroke-miterlimit:10;}
	.st42{fill:none;stroke:#FFFFFF;stroke-width:5.05;stroke-miterlimit:10;}
	.st43{fill:none;stroke:#FFFFFF;stroke-width:5.61;stroke-miterlimit:10;}
	.st44{fill:none;stroke:#FFFFFF;stroke-width:6.24;stroke-miterlimit:10;}
	.st45{fill:none;stroke:#FFFFFF;stroke-width:6.93;stroke-miterlimit:10;}
	.st46{fill:none;stroke:#FFFFFF;stroke-width:7.7;stroke-miterlimit:10;}
	.st47{fill:none;stroke:#FFFFFF;stroke-width:8.56;stroke-miterlimit:10;}
	.st48{fill:none;stroke:#FFFFFF;stroke-width:9.51;stroke-miterlimit:10;}
	.st49{fill:none;stroke:#FFFFFF;stroke-width:10.56;stroke-miterlimit:10;}
	.st50{fill:none;stroke:#FFFFFF;stroke-width:11.74;stroke-miterlimit:10;}
	.st51{fill:none;stroke:#FFFFFF;stroke-width:13.04;stroke-miterlimit:10;}
	.st52{fill:none;stroke:#FFFFFF;stroke-width:14.49;stroke-miterlimit:10;}
	.st53{fill:none;stroke:#FFFFFF;stroke-width:16.11;stroke-miterlimit:10;}
	.st54{fill:none;stroke:#FFFFFF;stroke-width:17.9;stroke-miterlimit:10;}
	.st55{fill:none;stroke:#FFFFFF;stroke-width:19.89;stroke-miterlimit:10;}
	.st56{fill:none;stroke:#FFFFFF;stroke-width:22.1;stroke-miterlimit:10;}
	.st57{fill:none;stroke:#FFFFFF;stroke-width:24.55;stroke-miterlimit:10;}
	.st58{fill:none;stroke:#FFFFFF;stroke-width:27.28;stroke-miterlimit:10;}
	.st59{fill:#FFFFFF;}
</style>
<g id="Layer_3">
	<g>
		<path class="st0" d="M1499.6,222.6l-2.4,1.1c-0.2,0.1,0.1,0.2,0.4,0.2h4.7c0.4,0,0.6-0.1,0.4-0.2l-2.4-1.1
			C1500.2,222.5,1499.8,222.5,1499.6,222.6z"/>
		<path class="st0" d="M1499.5,222.5l-2.6,1.2c-0.2,0.1,0.1,0.2,0.5,0.2h5.2c0.4,0,0.7-0.1,0.5-0.2l-2.6-1.2
			C1500.3,222.5,1499.7,222.5,1499.5,222.5L1499.5,222.5z"/>
		<path class="st1" d="M1499.5,222.5l-2.8,1.4c-0.2,0.1,0.1,0.3,0.5,0.3h5.7c0.5,0,0.8-0.1,0.5-0.3l-2.8-1.4
			C1500.3,222.4,1499.7,222.4,1499.5,222.5L1499.5,222.5z"/>
		<path class="st2" d="M1499.4,222.4l-3.1,1.5c-0.3,0.1,0.1,0.3,0.6,0.3h6.3c0.5,0,0.8-0.2,0.6-0.3l-3.1-1.5
			C1500.3,222.3,1499.7,222.3,1499.4,222.4z"/>
		<path class="st2" d="M1499.4,222.3l-3.4,1.7c-0.3,0.1,0.1,0.3,0.6,0.3h6.9c0.6,0,0.9-0.2,0.6-0.3l-3.4-1.7
			C1500.3,222.2,1499.7,222.2,1499.4,222.3L1499.4,222.3z"/>
		<path class="st3" d="M1499.3,222.2l-3.8,1.9c-0.3,0.2,0.1,0.3,0.7,0.3h7.6c0.6,0,1-0.2,0.7-0.3l-3.8-1.9
			C1500.4,222.1,1499.6,222.1,1499.3,222.2L1499.3,222.2z"/>
		<path class="st4" d="M1499.2,222.1l-4.2,2.2c-0.3,0.2,0.1,0.4,0.8,0.4h8.3c0.7,0,1.1-0.2,0.8-0.4l-4.2-2.2
			C1500.4,222,1499.6,222,1499.2,222.1L1499.2,222.1z"/>
		<path class="st5" d="M1499.2,222l-4.6,2.4c-0.4,0.2,0.1,0.4,0.8,0.4h9.1c0.7,0,1.2-0.3,0.8-0.4l-4.6-2.4
			C1500.5,221.8,1499.6,221.8,1499.2,222L1499.2,222z"/>
		<path class="st6" d="M1499.1,221.9l-5,2.7c-0.4,0.2,0.1,0.5,0.9,0.5h10c0.8,0,1.3-0.3,0.9-0.5l-5-2.7
			C1500.5,221.7,1499.5,221.7,1499.1,221.9L1499.1,221.9z"/>
		<path class="st7" d="M1499,221.8l-5.5,3.1c-0.5,0.3,0.1,0.6,1,0.6h11c0.9,0,1.4-0.3,1-0.6l-5.5-3.1
			C1500.5,221.5,1499.4,221.5,1499,221.8L1499,221.8z"/>
		<path class="st8" d="M1498.9,221.6l-6.1,3.5c-0.5,0.3,0.1,0.6,1.1,0.6h12.1c1,0,1.6-0.3,1.1-0.6l-6.1-3.5
			C1500.6,221.3,1499.4,221.3,1498.9,221.6L1498.9,221.6z"/>
		<path class="st9" d="M1498.8,221.4l-6.7,3.9c-0.5,0.3,0.1,0.7,1.2,0.7h13.3c1.1,0,1.8-0.4,1.2-0.7l-6.7-3.9
			C1500.7,221.1,1499.3,221.1,1498.8,221.4L1498.8,221.4z"/>
		<path class="st10" d="M1498.7,221.2l-7.3,4.4c-0.6,0.3,0.2,0.8,1.3,0.8h14.6c1.2,0,1.9-0.4,1.3-0.8l-7.3-4.4
			C1500.7,220.9,1499.3,220.9,1498.7,221.2L1498.7,221.2z"/>
		<path class="st11" d="M1498.5,221l-8,4.9c-0.7,0.4,0.2,0.9,1.5,0.9h16.1c1.3,0,2.1-0.5,1.5-0.9l-8-4.9
			C1500.8,220.6,1499.2,220.6,1498.5,221L1498.5,221z"/>
		<path class="st12" d="M1498.4,220.7l-8.8,5.5c-0.7,0.5,0.2,1,1.6,1h17.7c1.4,0,2.3-0.6,1.6-1l-8.8-5.5
			C1500.9,220.3,1499.1,220.3,1498.4,220.7L1498.4,220.7z"/>
		<path class="st13" d="M1498.2,220.4l-9.7,6.2c-0.8,0.5,0.2,1.1,1.8,1.1h19.4c1.6,0,2.5-0.6,1.8-1.1l-9.7-6.2
			C1501,219.9,1499,219.9,1498.2,220.4L1498.2,220.4z"/>
		<path class="st14" d="M1498.1,220.1l-10.7,7c-0.9,0.6,0.2,1.3,1.9,1.3h21.3c1.7,0,2.8-0.7,1.9-1.3l-10.7-7
			C1501.1,219.5,1498.9,219.5,1498.1,220.1L1498.1,220.1z"/>
		<path class="st15" d="M1497.9,219.7l-11.7,7.8c-1,0.6,0.2,1.4,2.1,1.4h23.4c1.9,0,3.1-0.8,2.1-1.4l-11.7-7.8
			C1501.2,219.1,1498.8,219.1,1497.9,219.7L1497.9,219.7z"/>
		<path class="st16" d="M1497.7,219.3l-12.9,8.8c-1,0.7,0.3,1.6,2.3,1.6h25.8c2.1,0,3.4-0.9,2.3-1.6l-12.9-8.8
			C1501.3,218.6,1498.7,218.6,1497.7,219.3L1497.7,219.3z"/>
		<path class="st17" d="M1497.4,218.9l-14.2,9.8c-1.2,0.8,0.3,1.8,2.6,1.8h28.3c2.3,0,3.7-1,2.6-1.8l-14.2-9.8
			C1501.4,218.1,1498.6,218.1,1497.4,218.9z"/>
		<path class="st18" d="M1497.2,218.3l-15.5,11.1c-1.3,0.9,0.3,2,2.8,2h31.1c2.5,0,4.1-1.1,2.8-2l-15.6-11.1
			C1501.6,217.4,1498.4,217.4,1497.2,218.3L1497.2,218.3z"/>
		<path class="st19" d="M1496.9,217.8l-17.1,12.4c-1.4,1,0.3,2.3,3.1,2.3h34.2c2.8,0,4.5-1.3,3.1-2.3l-17.1-12.4
			C1501.7,216.8,1498.3,216.8,1496.9,217.8L1496.9,217.8z"/>
		<path class="st20" d="M1496.6,217.1l-18.8,14c-1.5,1.1,0.4,2.5,3.4,2.5h37.6c3,0,4.9-1.4,3.4-2.5l-18.8-14
			C1501.9,216,1498.1,216,1496.6,217.1L1496.6,217.1z"/>
		<path class="st21" d="M1496.2,216.4l-20.6,15.7c-1.7,1.3,0.4,2.9,3.8,2.9h41.3c3.3,0,5.4-1.6,3.8-2.9l-20.6-15.7
			C1502.1,215.1,1497.9,215.1,1496.2,216.4L1496.2,216.4z"/>
		<path class="st22" d="M1495.9,215.5l-22.7,17.7c-1.8,1.4,0.5,3.2,4.1,3.2h45.3c3.7,0,6-1.8,4.1-3.2l-22.7-17.7
			C1502.3,214.1,1497.7,214.1,1495.9,215.5L1495.9,215.5z"/>
		<path class="st23" d="M1495.5,214.6l-24.9,19.8c-2,1.6,0.5,3.6,4.5,3.6h49.8c4,0,6.6-2,4.5-3.6l-24.9-19.8
			C1502.5,213,1497.5,213,1495.5,214.6L1495.5,214.6z"/>
		<path class="st24" d="M1495,213.6l-27.4,22.3c-2.2,1.8,0.5,4.1,5,4.1h54.8c4.4,0,7.2-2.3,5-4.1l-27.4-22.3
			C1502.8,211.8,1497.2,211.8,1495,213.6L1495,213.6z"/>
		<path class="st25" d="M1494.5,212.4l-30.1,25c-2.4,2,0.6,4.6,5.5,4.6h60.2c4.9,0,7.9-2.5,5.5-4.6l-30.1-25
			C1503,210.4,1496.9,210.4,1494.5,212.4L1494.5,212.4z"/>
		<path class="st26" d="M1494,211.1l-33.1,28.1c-2.7,2.3,0.7,5.1,6,5.1h66.1c5.3,0,8.7-2.8,6-5.1l-33.1-28.1
			C1503.3,208.8,1496.6,208.8,1494,211.1L1494,211.1z"/>
		<path class="st27" d="M1493.4,209.6l-36.3,31.6c-2.9,2.6,0.7,5.8,6.6,5.8h72.7c5.9,0,9.6-3.2,6.6-5.8l-36.3-31.6
			C1503.7,207,1496.3,207,1493.4,209.6L1493.4,209.6z"/>
		<path class="st28" d="M1492.7,207.9l-39.9,35.5c-3.2,2.9,0.8,6.5,7.3,6.5h79.9c6.5,0,10.5-3.6,7.3-6.5l-39.9-35.5
			C1504,205.1,1496,205.1,1492.7,207.9L1492.7,207.9z"/>
		<path class="st29" d="M1492,206.1l-43.9,39.9c-3.6,3.2,0.9,7.3,8,7.3h87.8c7.1,0,11.6-4,8-7.3l-43.9-39.9
			C1504.4,202.8,1495.6,202.8,1492,206.1L1492,206.1z"/>
		<path class="st30" d="M1491.2,204l-48.2,44.8c-3.9,3.6,1,8.2,8.8,8.2h96.4c7.8,0,12.7-4.5,8.8-8.2l-48.2-44.8
			C1504.9,200.3,1495.1,200.3,1491.2,204L1491.2,204z"/>
		<path class="st31" d="M1490.3,201.6l-53,50.4c-4.3,4.1,1.1,9.2,9.7,9.2h106c8.6,0,13.9-5.1,9.7-9.2l-53-50.4
			C1505.4,197.5,1494.6,197.5,1490.3,201.6L1490.3,201.6z"/>
		<path class="st32" d="M1489.4,199l-58.2,56.6c-4.7,4.6,1.2,10.3,10.6,10.3h116.5c9.4,0,15.3-5.7,10.6-10.3l-58.2-56.6
			C1505.9,194.4,1494.1,194.4,1489.4,199L1489.4,199z"/>
		<path class="st33" d="M1488.3,196l-64,63.6c-5.2,5.2,1.3,11.6,11.7,11.6h128c10.4,0,16.8-6.4,11.7-11.6l-64-63.6
			C1506.5,190.8,1493.5,190.8,1488.3,196L1488.3,196z"/>
		<path class="st34" d="M1487.2,192.6l-70.3,71.5c-5.7,5.8,1.4,13,12.8,13h140.6c11.4,0,18.5-7.2,12.8-13l-70.3-71.5
			C1507.1,186.8,1492.9,186.8,1487.2,192.6L1487.2,192.6z"/>
		<path class="st35" d="M1485.9,188.9l-77.3,80.3c-6.3,6.5,1.6,14.6,14.1,14.6h154.5c12.5,0,20.3-8.1,14.1-14.6l-77.3-80.3
			C1507.8,182.4,1492.2,182.4,1485.9,188.9L1485.9,188.9z"/>
		<path class="st36" d="M1484.5,184.6l-84.9,90.2c-6.9,7.3,1.7,16.4,15.5,16.4h169.8c13.8,0,22.3-9.1,15.5-16.4l-84.9-90.2
			C1508.6,177.3,1491.4,177.3,1484.5,184.6L1484.5,184.6z"/>
		<path class="st37" d="M1483,179.9l-93.3,101.3c-7.5,8.2,1.9,18.5,17,18.5h186.6c15.1,0,24.6-10.3,17-18.5L1517,179.9
			C1509.5,171.7,1490.6,171.7,1483,179.9L1483,179.9z"/>
		<path class="st38" d="M1481.3,174.6l-102.5,113.9c-8.3,9.2,2.1,20.7,18.7,20.7h205.1c16.6,0,27-11.5,18.7-20.7l-102.5-113.9
			C1510.4,165.3,1489.6,165.3,1481.3,174.6L1481.3,174.6z"/>
		<path class="st39" d="M1479.5,168.6l-112.7,128c-9.1,10.4,2.3,23.3,20.5,23.3h225.4c18.3,0,29.7-13,20.5-23.3l-112.7-128
			C1511.4,158.2,1488.6,158.2,1479.5,168.6L1479.5,168.6z"/>
		<path class="st40" d="M1477.4,161.8l-123.8,143.8c-10,11.6,2.5,26.2,22.6,26.2h247.7c20.1,0,32.6-14.5,22.6-26.2l-123.8-143.8
			C1512.5,150.2,1487.5,150.2,1477.4,161.8z"/>
		<path class="st41" d="M1475.2,154.3l-136.1,161.5c-11,13.1,2.8,29.4,24.8,29.4h272.2c22,0,35.8-16.3,24.8-29.4l-136.1-161.5
			C1513.8,141.2,1486.2,141.2,1475.2,154.3L1475.2,154.3z"/>
		<path class="st42" d="M1472.8,145.8l-149.5,181.5c-12.1,14.7,3,33.1,27.2,33.1h299.1c24.2,0,39.3-18.4,27.2-33.1l-149.5-181.5
			C1515.1,131.1,1484.9,131.1,1472.8,145.8z"/>
		<path class="st43" d="M1470.1,136.2l-164.3,203.9c-13.3,16.5,3.3,37.2,29.9,37.2h328.6c26.6,0,43.2-20.6,29.9-37.2l-164.3-203.9
			C1516.6,119.7,1483.4,119.7,1470.1,136.2L1470.1,136.2z"/>
		<path class="st44" d="M1467.1,125.5l-180.6,229.1c-14.6,18.5,3.7,41.7,32.9,41.7h361.1c29.2,0,47.5-23.2,32.9-41.7l-180.6-229.1
			C1518.3,106.9,1481.7,106.9,1467.1,125.5L1467.1,125.5z"/>
		<path class="st45" d="M1463.8,113.4l-198.4,257.5c-16.1,20.8,4,46.9,36.2,46.9h396.9c32.1,0,52.2-26,36.2-46.9l-198.4-257.5
			C1520.1,92.6,1479.9,92.6,1463.8,113.4L1463.8,113.4z"/>
		<path class="st46" d="M1460.3,99.8l-218.1,289.3c-17.7,23.4,4.4,52.7,39.7,52.7h436.1c35.3,0,57.4-29.3,39.7-52.7L1539.7,99.8
			C1522.1,76.4,1477.9,76.4,1460.3,99.8L1460.3,99.8z"/>
		<path class="st47" d="M1456.3,84.6l-239.6,325c-19.4,26.3,4.8,59.2,43.7,59.2h479.2c38.8,0,63.1-32.9,43.7-59.2l-239.6-325
			C1524.3,58.3,1475.8,58.3,1456.3,84.6L1456.3,84.6z"/>
		<path class="st48" d="M1452,67.5l-263.3,365.2c-21.3,29.6,5.3,66.5,48,66.5h526.6c42.6,0,69.3-37,48-66.5L1548,67.5
			C1526.7,37.9,1473.4,37.9,1452,67.5L1452,67.5z"/>
		<path class="st49" d="M1447.3,48.3l-289.4,410.3c-23.4,33.2,5.9,74.8,52.7,74.8h578.7c46.8,0,76.1-41.5,52.7-74.8L1552.7,48.3
			C1529.3,15.1,1470.7,15.1,1447.3,48.3L1447.3,48.3z"/>
		<path class="st50" d="M1442.1,26.7l-318,461c-25.7,37.3,6.4,84,57.9,84h636c51.5,0,83.7-46.7,57.9-84l-318-461
			C1532.2-10.7,1467.8-10.7,1442.1,26.7L1442.1,26.7z"/>
		<path class="st51" d="M1436.3,2.4l-349.4,518c-28.3,41.9,7.1,94.4,63.7,94.4h698.9c56.6,0,91.9-52.4,63.7-94.4l-349.4-518
			C1535.4-39.5,1464.6-39.5,1436.3,2.4L1436.3,2.4z"/>
		<path class="st52" d="M1430-24.9l-384,582.1c-31.1,47.1,7.8,106,70,106h768c62.2,0,101-58.9,69.9-106l-384-582.1
			C1538.9-72,1461.1-72,1430-24.9L1430-24.9z"/>
		<path class="st53" d="M1423.1-55.5l-422,654c-34.2,52.9,8.5,119.1,76.9,119.1H1922c68.3,0,111-66.2,76.9-119.1l-422-654
			C1542.7-108.5,1457.3-108.5,1423.1-55.5L1423.1-55.5z"/>
		<path class="st54" d="M1415.5-89.9L951.8,644.9c-37.5,59.5,9.4,133.9,84.5,133.9h927.4c75.1,0,122-74.4,84.5-133.9L1584.5-89.9
			C1546.9-149.4,1453.1-149.4,1415.5-89.9L1415.5-89.9z"/>
		<path class="st55" d="M1407.2-128.6L897.6,697c-41.3,66.8,10.3,150.4,92.8,150.4h1019.1c82.5,0,134.1-83.6,92.8-150.4
			l-509.6-825.7C1551.6-195.5,1448.4-195.5,1407.2-128.6L1407.2-128.6z"/>
		<path class="st56" d="M1398-172.1L838,755.6c-45.3,75.1,11.3,169,102,169H2060c90.7,0,147.3-93.9,102-169L1602-172.1
			C1556.7-247.2,1443.3-247.2,1398-172.1L1398-172.1z"/>
		<path class="st57" d="M1387.9-220.9L772.6,821.4c-49.8,84.4,12.5,189.9,112.1,189.9h1230.7c99.6,0,161.9-105.5,112.1-189.9
			L1612.1-220.9C1562.3-305.3,1437.7-305.3,1387.9-220.9z"/>
		<path class="st58" d="M1376.8-275.8L700.6,895.4c-54.7,94.8,13.7,213.3,123.2,213.3h1352.4c109.5,0,177.9-118.5,123.2-213.3
			L1623.2-275.8C1568.4-370.6,1431.6-370.6,1376.8-275.8L1376.8-275.8z"/>
	</g>
</g>
<g id="Layer_4">
	<g>
		<path class="st59" d="M757.9,1173.5c0-0.3,0.1-0.7,0.4-1c0.3-0.3,0.6-0.4,1-0.4h198.4c13.8,0,25.5,4.9,35.2,14.6
			c9.7,9.7,14.6,21.5,14.6,35.2v17.5c0,13.9-4.9,25.7-14.6,35.4c-9.7,9.7-21.5,14.6-35.2,14.6H792.9v55.9c0,0.5-0.1,0.8-0.4,1.1
			c-0.3,0.3-0.7,0.4-1.1,0.4h-32c-0.3,0-0.7-0.1-1-0.4c-0.3-0.3-0.4-0.7-0.4-1.1L757.9,1173.5L757.9,1173.5z M957.7,1259.5
			c4.1,0,7.6-1.5,10.5-4.5c2.9-3,4.4-6.5,4.4-10.6V1217c0-4.2-1.5-7.8-4.4-10.7c-2.9-2.9-6.4-4.4-10.5-4.4H792.9v57.5L957.7,1259.5
			L957.7,1259.5z"/>
		<path class="st59" d="M1309.6,1239.6c0,10.1-2.7,19.3-8,27.4s-12.5,14.1-21.3,18.1l0.7,1.4l27.8,58.4c0.1,0.5,0.1,0.9-0.2,1.4
			s-0.6,0.7-1.2,0.7h-35.5c-0.6,0-1-0.3-1.4-0.9l-26.9-56.5h-148.6v55.9c0,0.3-0.2,0.7-0.4,1c-0.3,0.3-0.7,0.4-1.1,0.4h-32
			c-0.3,0-0.7-0.1-1-0.4c-0.3-0.3-0.4-0.6-0.4-1v-171.8c0-0.5,0.1-0.8,0.4-1.1c0.3-0.3,0.6-0.4,1-0.4h198.4
			c13.8,0,25.5,4.9,35.2,14.6s14.6,21.5,14.6,35.4L1309.6,1239.6L1309.6,1239.6z M1094.9,1259.5h164.8c4.1,0,7.6-1.5,10.5-4.4
			c2.9-2.9,4.4-6.5,4.4-10.7v-27.4c0-4.1-1.5-7.6-4.4-10.5c-2.9-2.9-6.4-4.4-10.5-4.4H1095L1094.9,1259.5L1094.9,1259.5z"/>
		<path class="st59" d="M1586.8,1173.5c0-0.3,0.1-0.7,0.4-1c0.3-0.3,0.7-0.4,1.1-0.4h31.8c0.5,0,0.8,0.2,1.1,0.4
			c0.3,0.3,0.4,0.6,0.4,1v48.9c0,7.1-1.9,13.6-5.8,19.3c-3.8,5.8-9,10.1-15.6,12.8l-91.1,38.6v52.1c0,0.5-0.2,0.8-0.4,1.1
			c-0.3,0.3-0.6,0.4-1,0.4h-32c-0.5,0-0.8-0.1-1.1-0.4c-0.3-0.3-0.4-0.7-0.4-1.1v-52.1l-91.1-38.6c-6.5-2.8-11.7-7.1-15.6-12.9
			s-5.8-12.2-5.8-19.2v-48.9c0-0.3,0.1-0.7,0.4-1c0.3-0.3,0.7-0.4,1.1-0.4h32c0.3,0,0.7,0.2,1,0.4c0.3,0.3,0.4,0.6,0.4,1v42.1
			c0,6.1,3.1,10.7,9.3,13.8l85.7,36l85.8-36c6.1-3.2,9.1-7.8,9.1-13.8L1586.8,1173.5L1586.8,1173.5z"/>
		<path class="st59" d="M1709.2,1229.4c0,4.2,1.5,7.8,4.4,10.7s6.4,4.4,10.5,4.4h150c13.8,0,25.5,4.9,35.2,14.6s14.6,21.5,14.6,35.4
			v2.4c0,13.8-4.9,25.5-14.6,35.3s-21.5,14.7-35.2,14.7h-188.4c-0.3,0-0.7-0.1-1-0.4c-0.3-0.3-0.4-0.7-0.4-1.1v-26.9
			c0-0.5,0.1-0.8,0.4-1.1s0.6-0.4,1-0.4H1874c4.1,0,7.6-1.5,10.5-4.4s4.4-6.4,4.4-10.5v-12.6c0-4.1-1.5-7.6-4.4-10.6
			c-2.9-3-6.4-4.5-10.5-4.5h-150c-13.8,0-25.5-4.9-35.2-14.6c-9.7-9.7-14.6-21.5-14.6-35.2v-2.6c0-13.8,4.9-25.5,14.6-35.2
			c9.7-9.7,21.5-14.6,35.2-14.6h188.4c0.3,0,0.7,0.2,1,0.4c0.3,0.3,0.4,0.6,0.4,1v27.1c0,0.3-0.2,0.7-0.4,1c-0.3,0.3-0.6,0.4-1,0.4
			h-188.4c-4.1,0-7.6,1.5-10.5,4.4s-4.4,6.5-4.4,10.7L1709.2,1229.4L1709.2,1229.4z"/>
		<path class="st59" d="M2236.1,1345.3c0,0.5-0.1,0.8-0.4,1.1s-0.7,0.4-1.1,0.4h-32c-0.4,0-0.7-0.1-1-0.4c-0.3-0.3-0.4-0.7-0.4-1.1
			V1202h-19.2c-6.4,0-11.1,3.4-14.2,10.1l-47.2,133.7c-0.2,0.7-0.7,1.1-1.4,1.1h-26.1c-0.6,0-1.1-0.3-1.4-1.1l-47-133.7
			c-3.2-6.8-7.9-10.1-14.2-10.1h-19.2v143.3c0,0.5-0.2,0.8-0.4,1.1c-0.3,0.3-0.7,0.4-1.1,0.4h-32c-0.3,0-0.7-0.1-1-0.4
			c-0.3-0.3-0.4-0.7-0.4-1.1v-171.7c0-0.5,0.1-0.8,0.4-1.1c0.3-0.3,0.6-0.4,1-0.4h64.3c1.2,0,2.3,0.1,3.5,0.2
			c6.6,0.8,12.4,3.3,17.4,7.5c4.9,4.2,8.5,9.5,10.8,15.9l32.5,93l32.3-93c2.3-6.4,6-11.7,10.9-16c4.9-4.3,10.8-6.7,17.4-7.4
			c1.2-0.1,2.3-0.2,3.3-0.2h64.3c0.5,0,0.8,0.2,1.1,0.4c0.3,0.3,0.4,0.7,0.4,1.1L2236.1,1345.3L2236.1,1345.3z"/>
	</g>
</g>
</svg>
