<?xml version="1.0" encoding="utf-8"?>
<!-- Generator: Adobe Illustrator 19.0.0, SVG Export Plug-In . SVG Version: 6.00 Build 0)  -->
<svg version="1.1" id="Layer_3" xmlns="http://www.w3.org/2000/svg" xmlns:xlink="http://www.w3.org/1999/xlink" x="0px" y="0px"
	 viewBox="1917.8 -241.9 1664.5 1482.9" style="enable-background:new 1917.8 -241.9 1664.5 1482.9;" xml:space="preserve">
<style type="text/css">
	.st0{fill:none;stroke:#FFFFFF;stroke-width:5.000000e-002;stroke-miterlimit:10;}
	.st1{fill:none;stroke:#FFFFFF;stroke-width:6.000000e-002;stroke-miterlimit:10;}
	.st2{fill:none;stroke:#FFFFFF;stroke-width:7.000000e-002;stroke-miterlimit:10;}
	.st3{fill:none;stroke:#FFFFFF;stroke-width:8.000000e-002;stroke-miterlimit:10;}
	.st4{fill:none;stroke:#FFFFFF;stroke-width:9.000000e-002;stroke-miterlimit:10;}
	.st5{fill:none;stroke:#FFFFFF;stroke-width:0.1;stroke-miterlimit:10;}
	.st6{fill:none;stroke:#FFFFFF;stroke-width:0.11;stroke-miterlimit:10;}
	.st7{fill:none;stroke:#FFFFFF;stroke-width:0.13;stroke-miterlimit:10;}
	.st8{fill:none;stroke:#FFFFFF;stroke-width:0.14;stroke-miterlimit:10;}
	.st9{fill:none;stroke:#FFFFFF;stroke-width:0.16;stroke-miterlimit:10;}
	.st10{fill:none;stroke:#FFFFFF;stroke-width:0.17;stroke-miterlimit:10;}
	.st11{fill:none;stroke:#FFFFFF;stroke-width:0.19;stroke-miterlimit:10;}
	.st12{fill:none;stroke:#FFFFFF;stroke-width:0.21;stroke-miterlimit:10;}
	.st13{fill:none;stroke:#FFFFFF;stroke-width:0.24;stroke-miterlimit:10;}
	.st14{fill:none;stroke:#FFFFFF;stroke-width:0.26;stroke-miterlimit:10;}
	.st15{fill:none;stroke:#FFFFFF;stroke-width:0.29;stroke-miterlimit:10;}
	.st16{fill:none;stroke:#FFFFFF;stroke-width:0.33;stroke-miterlimit:10;}
	.st17{fill:none;stroke:#FFFFFF;stroke-width:0.36;stroke-miterlimit:10;}
	.st18{fill:none;stroke:#FFFFFF;stroke-width:0.4;stroke-miterlimit:10;}
	.st19{fill:none;stroke:#FFFFFF;stroke-width:0.45;stroke-miterlimit:10;}
	.st20{fill:none;stroke:#FFFFFF;stroke-width:0.5;stroke-miterlimit:10;}
	.st21{fill:none;stroke:#FFFFFF;stroke-width:0.55;stroke-miterlimit:10;}
	.st22{fill:none;stroke:#FFFFFF;stroke-width:0.61;stroke-miterlimit:10;}
	.st23{fill:none;stroke:#FFFFFF;stroke-width:0.68;stroke-miterlimit:10;}
	.st24{fill:none;stroke:#FFFFFF;stroke-width:0.76;stroke-miterlimit:10;}
	.st25{fill:none;stroke:#FFFFFF;stroke-width:0.84;stroke-miterlimit:10;}
	.st26{fill:none;stroke:#FFFFFF;stroke-width:0.94;stroke-miterlimit:10;}
	.st27{fill:none;stroke:#FFFFFF;stroke-width:1.04;stroke-miterlimit:10;}
	.st28{fill:none;stroke:#FFFFFF;stroke-width:1.15;stroke-miterlimit:10;}
	.st29{fill:none;stroke:#FFFFFF;stroke-width:1.28;stroke-miterlimit:10;}
	.st30{fill:none;stroke:#FFFFFF;stroke-width:1.43;stroke-miterlimit:10;}
	.st31{fill:none;stroke:#FFFFFF;stroke-width:1.58;stroke-miterlimit:10;}
	.st32{fill:none;stroke:#FFFFFF;stroke-width:1.76;stroke-miterlimit:10;}
	.st33{fill:none;stroke:#FFFFFF;stroke-width:1.96;stroke-miterlimit:10;}
	.st34{fill:none;stroke:#FFFFFF;stroke-width:2.17;stroke-miterlimit:10;}
	.st35{fill:none;stroke:#FFFFFF;stroke-width:2.41;stroke-miterlimit:10;}
	.st36{fill:none;stroke:#FFFFFF;stroke-width:2.68;stroke-miterlimit:10;}
	.st37{fill:none;stroke:#FFFFFF;stroke-width:2.98;stroke-miterlimit:10;}
	.st38{fill:none;stroke:#FFFFFF;stroke-width:3.31;stroke-miterlimit:10;}
	.st39{fill:none;stroke:#FFFFFF;stroke-width:3.68;stroke-miterlimit:10;}
	.st40{fill:none;stroke:#FFFFFF;stroke-width:4.09;stroke-miterlimit:10;}
	.st41{fill:none;stroke:#FFFFFF;stroke-width:4.55;stroke-miterlimit:10;}
	.st42{fill:none;stroke:#FFFFFF;stroke-width:5.05;stroke-miterlimit:10;}
	.st43{fill:none;stroke:#FFFFFF;stroke-width:5.61;stroke-miterlimit:10;}
	.st44{fill:none;stroke:#FFFFFF;stroke-width:6.24;stroke-miterlimit:10;}
	.st45{fill:none;stroke:#FFFFFF;stroke-width:6.93;stroke-miterlimit:10;}
	.st46{fill:none;stroke:#FFFFFF;stroke-width:7.7;stroke-miterlimit:10;}
	.st47{fill:none;stroke:#FFFFFF;stroke-width:8.56;stroke-miterlimit:10;}
	.st48{fill:none;stroke:#FFFFFF;stroke-width:9.51;stroke-miterlimit:10;}
	.st49{fill:none;stroke:#FFFFFF;stroke-width:10.56;stroke-miterlimit:10;}
	.st50{fill:none;stroke:#FFFFFF;stroke-width:11.74;stroke-miterlimit:10;}
	.st51{fill:none;stroke:#FFFFFF;stroke-width:13.04;stroke-miterlimit:10;}
	.st52{fill:none;stroke:#FFFFFF;stroke-width:14.49;stroke-miterlimit:10;}
	.st53{fill:none;stroke:#FFFFFF;stroke-width:16.11;stroke-miterlimit:10;}
	.st54{fill:none;stroke:#FFFFFF;stroke-width:17.9;stroke-miterlimit:10;}
	.st55{fill:none;stroke:#FFFFFF;stroke-width:19.89;stroke-miterlimit:10;}
	.st56{fill:none;stroke:#FFFFFF;stroke-width:22.1;stroke-miterlimit:10;}
	.st57{fill:none;stroke:#FFFFFF;stroke-width:24.55;stroke-miterlimit:10;}
	.st58{fill:none;stroke:#FFFFFF;stroke-width:27.28;stroke-miterlimit:10;}
</style>
<path class="st0" d="M2749.7,341.3l-2.4,1.1c-0.2,0.1,0.1,0.2,0.4,0.2h4.7c0.4,0,0.6-0.1,0.4-0.2l-2.4-1.1
	C2750.3,341.2,2749.8,341.2,2749.7,341.3L2749.7,341.3z"/>
<path class="st0" d="M2749.6,341.2l-2.6,1.2c-0.2,0.1,0.1,0.2,0.5,0.2h5.2c0.4,0,0.7-0.1,0.5-0.2l-2.6-1.2
	C2750.3,341.1,2749.8,341.1,2749.6,341.2L2749.6,341.2z"/>
<path class="st1" d="M2749.6,341.2l-2.8,1.4c-0.2,0.1,0.1,0.3,0.5,0.3h5.7c0.5,0,0.8-0.1,0.5-0.3l-2.9-1.4
	C2750.4,341.1,2749.8,341.1,2749.6,341.2z"/>
<path class="st2" d="M2749.5,341.1l-3.1,1.5c-0.3,0.1,0.1,0.3,0.6,0.3h6.3c0.5,0,0.8-0.1,0.6-0.3l-3.1-1.5
	C2750.4,341,2749.8,341,2749.5,341.1L2749.5,341.1z"/>
<path class="st2" d="M2749.4,341l-3.4,1.7c-0.3,0.1,0.1,0.3,0.6,0.3h6.9c0.6,0,0.9-0.2,0.6-0.3l-3.4-1.7
	C2750.4,340.9,2749.7,340.9,2749.4,341L2749.4,341z"/>
<path class="st3" d="M2749.4,340.9l-3.8,1.9c-0.3,0.2,0.1,0.4,0.7,0.4h7.6c0.6,0,1-0.2,0.7-0.4l-3.8-1.9
	C2750.5,340.8,2749.7,340.8,2749.4,340.9L2749.4,340.9z"/>
<path class="st4" d="M2749.3,340.8l-4.2,2.2c-0.3,0.2,0.1,0.4,0.8,0.4h8.3c0.7,0,1.1-0.2,0.8-0.4l-4.1-2.2
	C2750.5,340.6,2749.7,340.6,2749.3,340.8L2749.3,340.8z"/>
<path class="st5" d="M2749.3,340.7l-4.6,2.4c-0.4,0.2,0.1,0.4,0.8,0.4h9.1c0.7,0,1.2-0.3,0.8-0.4l-4.6-2.4
	C2750.5,340.5,2749.6,340.5,2749.3,340.7L2749.3,340.7z"/>
<path class="st6" d="M2749.2,340.6l-5,2.7c-0.4,0.2,0.1,0.5,0.9,0.5h10c0.8,0,1.3-0.3,0.9-0.5l-5-2.7
	C2750.6,340.4,2749.6,340.4,2749.2,340.6L2749.2,340.6z"/>
<path class="st7" d="M2749.1,340.4l-5.5,3.1c-0.4,0.3,0.1,0.6,1,0.6h11c0.9,0,1.4-0.3,1-0.6l-5.5-3.1
	C2750.6,340.2,2749.5,340.2,2749.1,340.4L2749.1,340.4z"/>
<path class="st8" d="M2749,340.3l-6.1,3.4c-0.5,0.3,0.1,0.6,1.1,0.6h12.1c1,0,1.6-0.4,1.1-0.6l-6.1-3.4
	C2750.7,340,2749.4,340,2749,340.3L2749,340.3z"/>
<path class="st9" d="M2748.9,340.1l-6.7,3.9c-0.5,0.3,0.1,0.7,1.2,0.7h13.3c1.1,0,1.8-0.4,1.2-0.7l-6.6-3.9
	C2750.8,339.8,2749.4,339.8,2748.9,340.1L2748.9,340.1z"/>
<path class="st10" d="M2748.7,339.9l-7.3,4.4c-0.6,0.4,0.2,0.8,1.3,0.8h14.6c1.2,0,1.9-0.4,1.3-0.8l-7.3-4.4
	C2750.8,339.5,2749.3,339.5,2748.7,339.9L2748.7,339.9z"/>
<path class="st11" d="M2748.6,339.7l-8,4.9c-0.7,0.4,0.2,0.9,1.5,0.9h16.1c1.3,0,2.1-0.5,1.5-0.9l-8-4.9
	C2750.9,339.3,2749.2,339.3,2748.6,339.7L2748.6,339.7z"/>
<path class="st12" d="M2748.5,339.4l-8.8,5.5c-0.7,0.4,0.2,1,1.6,1h17.7c1.4,0,2.3-0.6,1.6-1l-8.8-5.5
	C2751,338.9,2749.2,338.9,2748.5,339.4L2748.5,339.4z"/>
<path class="st13" d="M2748.3,339.1l-9.7,6.2c-0.8,0.5,0.2,1.1,1.8,1.1h19.4c1.6,0,2.6-0.6,1.8-1.1l-9.7-6.2
	C2751.1,338.6,2749.1,338.6,2748.3,339.1L2748.3,339.1z"/>
<path class="st14" d="M2748.1,338.8l-10.7,6.9c-0.9,0.6,0.2,1.3,1.9,1.3h21.3c1.7,0,2.8-0.7,1.9-1.3l-10.7-6.9
	C2751.2,338.2,2749,338.2,2748.1,338.8L2748.1,338.8z"/>
<path class="st15" d="M2747.9,338.4l-11.7,7.8c-0.9,0.6,0.2,1.4,2.1,1.4h23.4c1.9,0,3.1-0.8,2.1-1.4l-11.7-7.8
	C2751.3,337.8,2748.9,337.8,2747.9,338.4L2747.9,338.4z"/>
<path class="st16" d="M2747.7,338l-12.9,8.8c-1,0.7,0.3,1.6,2.3,1.6h25.8c2.1,0,3.4-0.9,2.4-1.6l-12.9-8.8
	C2751.4,337.3,2748.8,337.3,2747.7,338z"/>
<path class="st17" d="M2747.5,337.5l-14.1,9.9c-1.2,0.8,0.3,1.8,2.6,1.8h28.3c2.3,0,3.7-1,2.6-1.8l-14.2-9.9
	C2751.5,336.7,2748.6,336.7,2747.5,337.5L2747.5,337.5z"/>
<path class="st18" d="M2747.2,337l-15.6,11.1c-1.3,0.9,0.3,2,2.8,2h31.1c2.5,0,4.1-1.1,2.8-2l-15.6-11.1
	C2751.6,336.1,2748.5,336.1,2747.2,337L2747.2,337z"/>
<path class="st19" d="M2747,336.4l-17.1,12.4c-1.4,1,0.3,2.3,3.1,2.3h34.2c2.8,0,4.5-1.3,3.1-2.3l-17.1-12.4
	C2751.8,335.4,2748.3,335.4,2747,336.4L2747,336.4z"/>
<path class="st20" d="M2746.7,335.8l-18.8,14c-1.5,1.1,0.4,2.6,3.4,2.6h37.6c3,0,4.9-1.4,3.4-2.6l-18.8-14
	C2752,334.7,2748.2,334.7,2746.7,335.8L2746.7,335.8z"/>
<path class="st21" d="M2746.3,335.1l-20.6,15.7c-1.7,1.3,0.4,2.9,3.8,2.9h41.3c3.3,0,5.4-1.6,3.8-2.9l-20.6-15.7
	C2752.2,333.8,2748,333.8,2746.3,335.1L2746.3,335.1z"/>
<path class="st22" d="M2745.9,334.2l-22.7,17.6c-1.8,1.4,0.5,3.2,4.1,3.2h45.4c3.7,0,6-1.8,4.1-3.2l-22.7-17.6
	C2752.4,332.8,2747.8,332.8,2745.9,334.2L2745.9,334.2z"/>
<path class="st23" d="M2745.5,333.3l-24.9,19.8c-2,1.6,0.5,3.6,4.5,3.6h49.8c4,0,6.6-2,4.5-3.6l-24.9-19.8
	C2752.6,331.7,2747.6,331.7,2745.5,333.3z"/>
<path class="st24" d="M2745.1,332.3l-27.4,22.3c-2.2,1.8,0.6,4.1,5,4.1h54.8c4.4,0,7.2-2.3,5-4.1l-27.4-22.3
	C2752.9,330.5,2747.3,330.5,2745.1,332.3L2745.1,332.3z"/>
<path class="st25" d="M2744.6,331.1l-30.1,25c-2.4,2,0.6,4.6,5.5,4.6h60.2c4.9,0,7.9-2.5,5.5-4.6l-30.1-25
	C2753.1,329.1,2747,329.1,2744.6,331.1L2744.6,331.1z"/>
<path class="st26" d="M2744.1,329.8l-33.1,28.1c-2.7,2.3,0.7,5.1,6,5.1h66.1c5.4,0,8.7-2.9,6-5.1l-33.1-28.1
	C2753.4,327.5,2746.7,327.5,2744.1,329.8L2744.1,329.8z"/>
<path class="st27" d="M2743.5,328.3l-36.3,31.6c-2.9,2.6,0.7,5.8,6.6,5.8h72.7c5.9,0,9.6-3.2,6.6-5.8l-36.3-31.6
	C2753.8,325.7,2746.4,325.7,2743.5,328.3L2743.5,328.3z"/>
<path class="st28" d="M2742.8,326.6l-39.9,35.5c-3.2,2.9,0.8,6.5,7.3,6.5h79.9c6.5,0,10.5-3.6,7.3-6.5l-39.9-35.5
	C2754.1,323.7,2746,323.7,2742.8,326.6L2742.8,326.6z"/>
<path class="st29" d="M2742.1,324.7l-43.9,39.9c-3.6,3.2,0.9,7.3,8,7.3h87.8c7.1,0,11.6-4,8-7.3l-43.9-39.9
	C2754.5,321.5,2745.6,321.5,2742.1,324.7L2742.1,324.7z"/>
<path class="st30" d="M2741.3,322.6l-48.2,44.8c-3.9,3.6,1,8.2,8.8,8.2h96.4c7.8,0,12.7-4.5,8.8-8.2l-48.2-44.8
	C2755,319,2745.2,319,2741.3,322.6L2741.3,322.6z"/>
<path class="st31" d="M2740.4,320.3l-53,50.4c-4.3,4.1,1.1,9.2,9.6,9.2h106c8.6,0,13.9-5.1,9.7-9.2l-53-50.4
	C2755.4,316.2,2744.7,316.2,2740.4,320.3z"/>
<path class="st32" d="M2739.5,317.6l-58.2,56.6c-4.7,4.6,1.2,10.3,10.6,10.3h116.5c9.4,0,15.3-5.7,10.6-10.3l-58.2-56.6
	C2756,313.1,2744.2,313.1,2739.5,317.6L2739.5,317.6z"/>
<path class="st33" d="M2738.4,314.7l-64,63.6c-5.2,5.1,1.3,11.6,11.7,11.6h128c10.4,0,16.8-6.4,11.7-11.6l-64-63.6
	C2756.6,309.5,2743.6,309.5,2738.4,314.7L2738.4,314.7z"/>
<path class="st34" d="M2737.3,311.3l-70.3,71.4c-5.7,5.8,1.4,13,12.8,13h140.6c11.4,0,18.5-7.2,12.8-13l-70.3-71.4
	C2757.2,305.5,2743,305.5,2737.3,311.3L2737.3,311.3z"/>
<path class="st35" d="M2736,307.5l-77.3,80.3c-6.3,6.5,1.6,14.6,14.1,14.6h154.5c12.5,0,20.3-8.1,14.1-14.6l-77.3-80.3
	C2757.9,301,2742.3,301,2736,307.5L2736,307.5z"/>
<path class="st36" d="M2734.6,303.3l-84.9,90.2c-6.9,7.3,1.7,16.4,15.5,16.4H2835c13.8,0,22.3-9.1,15.5-16.4l-84.9-90.2
	C2758.7,296,2741.5,296,2734.6,303.3L2734.6,303.3z"/>
<path class="st37" d="M2733.1,298.6l-93.3,101.4c-7.6,8.2,1.9,18.5,17,18.5h186.6c15.1,0,24.6-10.3,17-18.5l-93.3-101.4
	C2759.5,290.4,2740.6,290.4,2733.1,298.6L2733.1,298.6z"/>
<path class="st38" d="M2731.4,293.2l-102.5,113.9c-8.3,9.2,2.1,20.7,18.7,20.7h205.1c16.6,0,27-11.5,18.7-20.7l-102.5-113.9
	C2760.5,284,2739.7,284,2731.4,293.2z"/>
<path class="st39" d="M2729.6,287.2l-112.7,127.9c-9.1,10.4,2.3,23.3,20.5,23.3h225.4c18.3,0,29.7-12.9,20.5-23.3l-112.7-127.9
	C2761.5,276.9,2738.7,276.9,2729.6,287.2L2729.6,287.2z"/>
<path class="st40" d="M2727.5,280.5l-123.8,143.8c-10,11.6,2.5,26.2,22.6,26.2h247.6c20.1,0,32.6-14.6,22.6-26.2l-123.8-143.8
	C2762.6,268.9,2737.5,268.9,2727.5,280.5L2727.5,280.5z"/>
<path class="st41" d="M2725.3,272.9l-136.1,161.5c-11,13.1,2.8,29.4,24.8,29.4h272.2c22,0,35.8-16.4,24.8-29.4l-136.1-161.5
	C2763.9,259.9,2736.3,259.9,2725.3,272.9L2725.3,272.9z"/>
<path class="st42" d="M2722.8,264.4l-149.5,181.5c-12.1,14.7,3,33.1,27.2,33.1h299.1c24.2,0,39.3-18.4,27.2-33.1l-149.5-181.5
	C2765.2,249.7,2734.9,249.7,2722.8,264.4L2722.8,264.4z"/>
<path class="st43" d="M2720.1,254.9l-164.3,203.9c-13.3,16.5,3.3,37.1,29.9,37.1h328.6c26.6,0,43.2-20.6,29.9-37.1L2780,254.9
	C2766.7,238.4,2733.4,238.4,2720.1,254.9L2720.1,254.9z"/>
<path class="st44" d="M2717.2,244.1l-180.6,229.1c-14.6,18.6,3.7,41.7,32.9,41.7h361.1c29.2,0,47.5-23.2,32.9-41.7L2783,244.1
	C2768.3,225.6,2731.8,225.6,2717.2,244.1L2717.2,244.1z"/>
<path class="st45" d="M2713.9,232.1l-198.4,257.4c-16.1,20.8,4,46.9,36.2,46.9h396.9c32.1,0,52.2-26.1,36.2-46.9l-198.4-257.4
	C2770.2,211.2,2730,211.2,2713.9,232.1L2713.9,232.1z"/>
<path class="st46" d="M2710.4,218.5l-218.1,289.3c-17.6,23.4,4.4,52.7,39.7,52.7h436.1c35.3,0,57.4-29.3,39.7-52.7l-218.1-289.3
	C2772.1,195.1,2728,195.1,2710.4,218.5L2710.4,218.5z"/>
<path class="st47" d="M2706.4,203.3l-239.6,325c-19.4,26.3,4.9,59.2,43.7,59.2h479.2c38.8,0,63.1-32.9,43.6-59.2l-239.6-325
	C2774.3,177,2725.8,177,2706.4,203.3z"/>
<path class="st48" d="M2702.1,186.2l-263.3,365.2c-21.3,29.6,5.3,66.5,48,66.5h526.6c42.6,0,69.3-37,48-66.5l-263.3-365.2
	C2776.7,156.6,2723.4,156.6,2702.1,186.2L2702.1,186.2z"/>
<path class="st49" d="M2697.4,167L2408,577.3c-23.4,33.2,5.9,74.8,52.7,74.8h578.7c46.9,0,76.1-41.5,52.7-74.8L2802.8,167
	C2779.4,133.7,2720.8,133.7,2697.4,167L2697.4,167z"/>
<path class="st50" d="M2692.2,145.4l-318,461.1c-25.7,37.3,6.4,84,57.9,84h636c51.5,0,83.7-46.7,57.9-84l-318-461.1
	C2782.3,108,2717.9,108,2692.2,145.4L2692.2,145.4z"/>
<path class="st51" d="M2686.4,121.1l-349.4,518c-28.3,41.9,7.1,94.4,63.7,94.4h698.9c56.6,0,91.9-52.4,63.7-94.4l-349.4-518
	C2785.4,79.1,2714.7,79.1,2686.4,121.1L2686.4,121.1z"/>
<path class="st52" d="M2680.1,93.8l-384,582.1c-31.1,47.1,7.8,106,69.9,106h768c62.2,0,101-58.9,69.9-106L2820,93.8
	C2788.9,46.7,2711.2,46.7,2680.1,93.8L2680.1,93.8z"/>
<path class="st53" d="M2673.2,63.2l-422,654c-34.2,52.9,8.5,119.1,76.9,119.1H3172c68.3,0,111-66.2,76.9-119.1l-422-654
	C2792.8,10.2,2707.4,10.2,2673.2,63.2L2673.2,63.2z"/>
<path class="st54" d="M2665.6,28.7l-463.7,734.8c-37.5,59.5,9.4,133.9,84.5,133.9h927.4c75.1,0,122-74.4,84.5-133.9L2834.5,28.7
	C2797-30.8,2703.2-30.8,2665.6,28.7L2665.6,28.7z"/>
<path class="st55" d="M2657.3-9.9l-509.6,825.7c-41.3,66.8,10.3,150.4,92.8,150.4h1019.1c82.5,0,134.1-83.6,92.8-150.4L2842.9-9.9
	C2801.7-76.8,2698.5-76.8,2657.3-9.9L2657.3-9.9z"/>
<path class="st56" d="M2648.1-53.4l-560,927.7c-45.3,75.1,11.3,169,102,169H3310c90.7,0,147.3-93.9,102-169L2852.1-53.4
	C2806.8-128.5,2693.4-128.5,2648.1-53.4L2648.1-53.4z"/>
<path class="st57" d="M2638-102.3L2022.7,940.1c-49.8,84.4,12.4,189.9,112.1,189.9h1230.7c99.6,0,161.9-105.5,112.1-189.9
	L2862.2-102.3C2812.4-186.6,2687.8-186.6,2638-102.3L2638-102.3z"/>
<path class="st58" d="M2626.9-157.1l-676.2,1171.2c-54.7,94.8,13.7,213.3,123.2,213.3h1352.4c109.5,0,177.9-118.5,123.2-213.3
	L2873.2-157.1C2818.5-251.9,2681.6-251.9,2626.9-157.1L2626.9-157.1z"/>
</svg>
